<?xml version="1.0" standalone="no"?>
<!DOCTYPE svg PUBLIC "-//W3C//DTD SVG 1.1//EN" "http://www.w3.org/Graphics/SVG/1.1/DTD/svg11.dtd" >
<svg xmlns="http://www.w3.org/2000/svg" xmlns:xlink="http://www.w3.org/1999/xlink" version="1.1">
<metadata></metadata>
<defs>
<font id="dosebold" horiz-adv-x="1073" >
<font-face units-per-em="2048" ascent="1638" descent="-410" />
<missing-glyph horiz-adv-x="409" />
<glyph unicode="fi" horiz-adv-x="1159" d="M924 973q55 0 95 -22.5t40 -59.5v-807q0 -31 -40 -57.5t-95 -26.5q-57 0 -93 26.5t-36 57.5v807q0 37 36 59.5t93 22.5zM612 1317q-113 0 -178 -54.5t-65 -160.5v-129h209q35 0 52 -31t17 -65q0 -37 -17.5 -67t-51.5 -30h-209v-698q0 -37 -41 -59.5t-95 -22.5 q-55 0 -92 22.5t-37 59.5v1010q0 90 35 172t100.5 143t159 97t211.5 36q63 0 127 -10t113 -29.5t80 -46.5t31 -59q0 -12 -6.5 -38t-17.5 -51.5t-28.5 -45t-42.5 -19.5q-18 0 -37.5 12.5t-47 25.5t-68 25.5t-101.5 12.5z" />
<glyph unicode="fl" horiz-adv-x="1181" d="M797 1278q-29 20 -73 31.5t-91 11.5q-49 0 -96.5 -13.5t-85 -41t-60 -68.5t-22.5 -96v-129h209q35 0 52 -31t17 -65q0 -37 -17.5 -67t-51.5 -30h-209v-698q0 -37 -41 -59.5t-95 -22.5q-55 0 -92 22.5t-37 59.5v1010q0 109 44.5 192.5t119 140t172 86t203.5 29.5 q55 0 114.5 -8t117 -23.5t105.5 -40t81 -57.5v-1327q0 -31 -39 -57.5t-96 -26.5q-55 0 -92 26.5t-37 57.5v1194z" />
<glyph unicode=" "  horiz-adv-x="409" />
<glyph unicode="&#x09;" horiz-adv-x="409" />
<glyph unicode="&#xa0;" horiz-adv-x="409" />
<glyph unicode="!" horiz-adv-x="450" d="M352 1393q0 -102 -4 -217t-10 -234t-10 -234.5t-4 -215.5q0 -41 -35 -59.5t-66 -18.5q-41 0 -70.5 18.5t-29.5 59.5q0 100 -4 215.5t-9.5 234.5t-9.5 233.5t-4 217.5q0 53 37 82.5t90 29.5t91 -29.5t38 -82.5zM225 266q57 0 98.5 -41t41.5 -98q0 -55 -41 -97t-99 -42 q-59 0 -99 42t-40 97q0 57 40 98t99 41z" />
<glyph unicode="&#x22;" horiz-adv-x="620" d="M154 1573q37 0 68.5 -18.5t31.5 -49.5l-21 -282q0 -25 -19 -46.5t-60 -21.5t-58.5 21.5t-17.5 46.5l-21 282q0 31 30 49.5t67 18.5zM463 1573q37 0 68.5 -18.5t31.5 -49.5l-20 -282q0 -25 -18.5 -46.5t-61.5 -21.5q-41 0 -58.5 21.5t-17.5 46.5l-20 282q0 31 29.5 49.5 t66.5 18.5z" />
<glyph unicode="#" horiz-adv-x="1388" d="M569 1460q47 0 84 -23.5t37 -76.5l-47 -262h225l56 307q4 27 36.5 41t71.5 14q47 0 84 -23.5t39 -76.5l-49 -262h160q29 0 53 -28t24 -71t-23.5 -70.5t-51.5 -27.5h-197l-47 -252h160q29 0 54.5 -28.5t25.5 -69.5q0 -45 -25 -72.5t-53 -27.5h-199l-59 -328 q-4 -29 -37 -45.5t-68 -16.5q-43 0 -87 25t-44 74l51 291h-221l-59 -328q-4 -29 -38 -45.5t-65 -16.5q-43 0 -86 25t-43 74l50 291h-160q-35 0 -54.5 26.5t-19.5 69.5t20.5 72.5t53.5 29.5h198l46 252h-160q-35 0 -55.5 25.5t-20.5 70.5q0 43 19.5 72t54.5 29h200l56 307 q6 27 38.5 41t71.5 14zM561 649h221l47 252h-223z" />
<glyph unicode="$" horiz-adv-x="1075" d="M487 2q-92 2 -171.5 25.5t-138 60.5t-91.5 81t-33 87q0 20 9.5 46t24.5 47.5t35.5 35.5t45.5 14q29 0 57.5 -21.5t64.5 -48t83 -51t114 -32.5v407q-70 27 -140.5 57.5t-127.5 77t-93 113t-36 164.5t33 169t88 119t127 74.5t149 36.5v58q0 20 20.5 35.5t49.5 15.5 q27 0 48.5 -15.5t21.5 -35.5v-54q49 -2 110.5 -10t114.5 -27.5t89 -49t36 -74.5q0 -18 -6 -42t-19.5 -46.5t-34 -38t-49.5 -15.5q-23 0 -43 10.5t-47.5 23.5t-63.5 25.5t-87 16.5v-360q68 -25 137.5 -57.5t124.5 -83t90 -122t35 -176.5q0 -188 -107.5 -297.5t-279.5 -136.5 v-63q0 -20 -21.5 -35.5t-48.5 -15.5q-29 0 -49.5 15t-20.5 36v57zM764 416q0 76 -44 117.5t-110 70.5v-356q68 14 111 55t43 113zM340 1092q0 -68 46 -103t118 -63v309q-78 -12 -121 -48t-43 -95z" />
<glyph unicode="%" horiz-adv-x="1611" d="M344 672q-61 0 -115.5 14t-93.5 46t-61.5 82t-22.5 122v297q0 72 22.5 122t61.5 81.5t93.5 46t115.5 14.5t114.5 -14.5t92.5 -46t61.5 -81.5t22.5 -122v-297q0 -72 -22.5 -122t-61.5 -82t-92.5 -46t-114.5 -14zM461 1233q0 57 -32 83.5t-85 26.5t-84 -26.5t-31 -83.5 v-297q0 -57 31 -84t84 -27t85 27t32 84v297zM1268 -6q-61 0 -115.5 14.5t-93.5 45t-61.5 80.5t-22.5 124v297q0 72 22.5 122t61.5 82t93 46t116 14q61 0 114.5 -14t92 -46t61.5 -82t23 -122v-297q0 -74 -23 -124t-61.5 -80.5t-92 -45t-114.5 -14.5zM1384 555q0 57 -31.5 84 t-84.5 27t-84 -27t-31 -84v-297q0 -57 30.5 -84t84.5 -27q53 0 84.5 27t31.5 84v297zM1169 1579q35 0 69 -25.5t34 -66.5q0 -20 -8 -37l-738 -1487q-10 -23 -31.5 -34t-48.5 -11q-43 0 -69.5 28.5t-26.5 61.5q0 14 8 35l738 1493q10 23 30 33t43 10z" />
<glyph unicode="&#x26;" horiz-adv-x="1314" d="M559 -20q-119 0 -214 36.5t-161.5 98t-102.5 143.5t-36 172q0 70 20.5 133.5t56.5 117.5t82 95t97 70q-59 66 -101 139.5t-42 175.5q0 88 33.5 156.5t92 117t136.5 73t168 24.5q92 0 166.5 -23.5t127 -59.5t80 -78t27.5 -79q0 -47 -39 -85t-86 -38q-35 0 -58.5 24 t-51 51.5t-65.5 51t-99 23.5q-78 0 -130 -44t-52 -126q0 -47 20.5 -91t52 -85t68.5 -80t69 -72l330 -348q33 78 37 149.5t8 122.5q4 41 26.5 61.5t92.5 20.5t91.5 -31.5t21.5 -90.5q0 -78 -27 -185.5t-88 -212.5l166 -172q16 -18 16 -45q0 -20 -10 -39.5t-27.5 -35 t-40 -24.5t-45.5 -9q-16 0 -31.5 6t-33.5 24l-127 131q-78 -72 -180.5 -117.5t-237.5 -45.5zM590 211q78 0 135 26.5t94 67.5l-368 385q-53 -39 -95.5 -95t-42.5 -142q0 -102 71 -172t206 -70z" />
<glyph unicode="'" horiz-adv-x="311" d="M154 1573q37 0 68.5 -18.5t31.5 -49.5l-21 -282q0 -25 -19 -46.5t-60 -21.5t-58.5 21.5t-17.5 46.5l-21 282q0 31 30 49.5t67 18.5z" />
<glyph unicode="(" horiz-adv-x="698" d="M528 -41q-78 0 -154.5 22.5t-138 68.5t-99.5 118t-38 172v823q0 92 39 168t101.5 129t140.5 83t156 30t104.5 -34t26.5 -81q0 -53 -24 -85t-60 -32q-53 0 -93 -15t-69 -40.5t-43.5 -57.5t-14.5 -65v-823q0 -47 20.5 -75.5t53.5 -45t71 -23t75 -6.5q53 0 68.5 -36.5 t15.5 -79.5q0 -51 -26 -83t-112 -32z" />
<glyph unicode=")" horiz-adv-x="698" d="M170 -41q-86 0 -111.5 32t-25.5 83q0 43 15 79.5t69 36.5q37 0 74.5 6.5t69.5 23t52.5 45t20.5 75.5v823q0 33 -14.5 65t-42 57.5t-68.5 40.5t-92 15q-37 0 -60.5 32t-23.5 85q0 47 26.5 81t104.5 34t155.5 -30t140 -83t101.5 -129t39 -168v-823q0 -100 -39 -172 t-100.5 -118t-138 -68.5t-152.5 -22.5z" />
<glyph unicode="*" horiz-adv-x="962" d="M780 813q14 -18 15 -49q0 -43 -34 -69.5t-73 -26.5q-16 0 -33.5 6t-33.5 28l-140 211l-141 -213q-12 -20 -27.5 -26t-33.5 -6q-16 0 -35 6t-36.5 18.5t-28.5 28.5t-11 39q0 16 6 30.5t16 24.5l144 201l-228 65q-31 6 -45 31t-14 57q0 35 27.5 67t68.5 32q4 0 10.5 -1 t16.5 -5l227 -76l-10 227q2 43 29.5 63.5t64.5 20.5t64.5 -20.5t29.5 -63.5l-10 -229l230 78q14 6 26 6q41 0 66.5 -35t25.5 -74q0 -27 -14 -49.5t-47 -28.5l-221 -55z" />
<glyph unicode="+" horiz-adv-x="909" d="M455 82q-47 0 -79 22.5t-32 59.5v219h-219q-37 0 -59.5 29.5t-22.5 79.5q0 47 22.5 78.5t59.5 31.5h219v217q0 33 32 58.5t79 25.5q49 0 78.5 -25.5t29.5 -58.5v-217h217q33 0 59.5 -31.5t26.5 -78.5q0 -49 -26.5 -79t-59.5 -30h-217v-219q0 -37 -29.5 -59.5t-78.5 -22.5 z" />
<glyph unicode="," horiz-adv-x="395" d="M197 266q57 0 98 -40t41 -97q0 -8 -2 -20.5t-13.5 -42t-34 -86t-63.5 -150.5q-10 -20 -24.5 -27.5t-30.5 -7.5q-29 0 -58.5 17.5t-29.5 52.5q0 14 8 29l47 108q-35 18 -55.5 51t-20.5 74q0 57 40.5 98t97.5 41z" />
<glyph unicode="-" horiz-adv-x="845" d="M74 492q0 47 22.5 78.5t59.5 31.5h532q33 0 59.5 -31.5t26.5 -78.5q0 -49 -26.5 -79t-59.5 -30h-532q-37 0 -59.5 30t-22.5 79z" />
<glyph unicode="." horiz-adv-x="391" d="M197 266q55 0 96 -41t41 -98q0 -55 -41 -97t-96 -42q-59 0 -99.5 42t-40.5 97q0 57 40.5 98t99.5 41z" />
<glyph unicode="/" horiz-adv-x="991" d="M854 1579q37 0 69.5 -25.5t32.5 -66.5q0 -20 -8 -37l-735 -1487q-10 -23 -32.5 -34t-47.5 -11q-45 0 -71.5 28.5t-26.5 61.5q0 18 10 35l735 1493q10 23 30.5 33t43.5 10z" />
<glyph unicode="0" horiz-adv-x="1148" d="M573 -12q-102 0 -189 25.5t-151.5 81t-101.5 144.5t-37 218v571q0 129 37 218t101.5 144.5t151.5 81t189 25.5q100 0 188.5 -25.5t154 -81t102.5 -144.5t37 -218v-571q0 -129 -37 -218t-102.5 -144.5t-154 -81t-188.5 -25.5zM788 1028q0 123 -57 179.5t-158 56.5 q-102 0 -157.5 -56.5t-55.5 -179.5v-571q0 -123 55.5 -179.5t157.5 -56.5q100 0 157.5 56.5t57.5 179.5v571zM575 836q43 0 69 -26t26 -69q0 -41 -26 -68.5t-69 -27.5q-45 0 -70.5 27.5t-25.5 68.5q0 43 25.5 69t70.5 26z" />
<glyph unicode="1" horiz-adv-x="589" d="M207 1178l-66 -66q-12 -10 -25.5 -14t-23.5 -4q-39 0 -62.5 32.5t-23.5 73.5q0 29 13.5 54.5t37.5 41.5l242 185q25 20 55 20q41 0 80 -22.5t39 -63.5v-1331q0 -41 -42 -62.5t-91 -21.5q-51 0 -92 21.5t-41 62.5v1094z" />
<glyph unicode="2" horiz-adv-x="1038" d="M82 1120q0 88 37 158t98.5 119t140 74.5t164.5 25.5q88 0 171 -28.5t147.5 -82t102.5 -130t38 -175.5q0 -111 -48 -197.5t-120 -158.5t-157 -129t-156.5 -109.5t-119.5 -101.5t-48 -102v-50h569q35 0 59.5 -33.5t24.5 -80.5t-24.5 -83t-59.5 -36h-729q-18 0 -38.5 6 t-38 16.5t-29 27t-11.5 34.5v199q0 82 49.5 152.5t122 134t158.5 123t158.5 119.5t122 124.5t49.5 136.5q0 31 -11.5 63.5t-34 59.5t-58.5 43t-87 16q-76 0 -129 -42t-53 -138q0 -37 -37 -67.5t-102 -30.5q-53 0 -87 29.5t-34 113.5z" />
<glyph unicode="3" horiz-adv-x="1067" d="M518 221q117 0 168 52.5t51 168.5v39q0 57 -16 94t-47 59.5t-72 32t-90 9.5q-45 0 -62.5 31.5t-17.5 72.5q0 39 17.5 72t62.5 33q39 0 72.5 6t59.5 27.5t41 61.5t15 105q0 102 -48 141.5t-132 39.5q-100 0 -141 -38t-41 -100q0 -47 -26.5 -74.5t-100.5 -27.5 q-45 0 -71.5 6t-41 19.5t-19.5 35t-5 54.5q0 55 21.5 117.5t72.5 115.5t138 88t216 35q92 0 172 -19.5t137.5 -62.5t90 -112.5t32.5 -172.5q0 -123 -42 -214t-117 -125q90 -35 149.5 -109t59.5 -201v-39q0 -123 -39 -210t-105.5 -141t-157 -78.5t-190.5 -24.5 q-127 0 -216 34.5t-145.5 89t-83 121t-26.5 127.5t28.5 83t98.5 22q82 0 109.5 -22.5t27.5 -71.5q0 -70 57.5 -110t155.5 -40z" />
<glyph unicode="4" horiz-adv-x="1028" d="M580 326h-492q-39 0 -64.5 24.5t-25.5 69.5q0 27 14 53l486 954q18 39 49 54.5t63 15.5q18 0 41 -7t43.5 -20.5t34.5 -33t14 -41.5q0 -14 -10 -35l-393 -787h240v215q0 45 42 64.5t91 19.5q51 0 92 -19t41 -65v-215h96q41 0 62.5 -38.5t21.5 -85.5t-25.5 -85t-58.5 -38 h-96v-242q0 -41 -41 -62.5t-92 -21.5q-49 0 -91 21.5t-42 62.5v242z" />
<glyph unicode="5" horiz-adv-x="1042" d="M516 926q100 0 188.5 -23.5t154 -76t102 -135.5t36.5 -204v-38q0 -127 -37.5 -214.5t-102 -142.5t-152 -79.5t-185.5 -24.5q-117 0 -207 30.5t-151.5 83t-93 119t-31.5 137.5q0 72 34.5 96.5t98.5 24.5q84 0 108.5 -29.5t24.5 -72.5q0 -76 60.5 -116t150.5 -40 q102 0 159.5 55.5t57.5 172.5v38q0 117 -57.5 173.5t-157.5 56.5h-303q-63 0 -85 28.5t-22 75.5q0 12 1.5 25.5t1.5 27.5l53 539q4 39 16 61.5t35 22.5h631q41 0 60.5 -37t19.5 -80q0 -45 -19.5 -80.5t-60.5 -35.5h-461l-25 -338h158z" />
<glyph unicode="6" horiz-adv-x="1124" d="M631 909q86 0 163.5 -20.5t135 -69.5t91.5 -131t34 -203v-28q0 -129 -37 -218t-101.5 -144.5t-152.5 -81t-189 -25.5q-102 0 -189 25.5t-152.5 81t-102.5 144.5t-37 218v571q0 129 38 218t104.5 144.5t156.5 81t195 25.5q123 0 211 -35t145 -88t84 -120.5t27 -131.5 q0 -63 -31 -86.5t-94 -23.5q-55 0 -97 20.5t-42 79.5q0 37 -16.5 64.5t-45.5 47t-66.5 30t-80.5 10.5q-104 0 -164 -56.5t-60 -179.5v-223q51 59 122 81.5t151 22.5zM358 440q0 -123 57.5 -179t159.5 -56q100 0 156.5 56t56.5 179v27q0 129 -56 181t-159 52 q-98 0 -156.5 -49t-58.5 -166v-45z" />
<glyph unicode="7" horiz-adv-x="1019" d="M995 1180q0 -33 -16 -76t-35 -80l-518 -995q-20 -39 -76 -39q-63 0 -115.5 38t-52.5 95q0 27 13 47l534 958v136h-428v-166q0 -37 -41 -61.5t-94 -24.5t-92 24.5t-39 61.5v315q0 31 35.5 57.5t81.5 26.5h727q18 0 39.5 -7t38 -19.5t27.5 -28t11 -29.5v-233z" />
<glyph unicode="8" horiz-adv-x="1091" d="M547 1497q94 0 173 -20.5t136 -63.5t90 -111.5t33 -166.5q0 -129 -54.5 -207t-142.5 -109q111 -41 177.5 -133t66.5 -252v-24q0 -115 -37 -195t-101.5 -131t-152.5 -73.5t-188 -22.5q-102 0 -189.5 22.5t-153 73.5t-102 131t-36.5 195v24q0 160 66.5 252t176.5 133 q-88 31 -142 109t-54 207q0 98 32.5 166.5t90 111.5t137.5 63.5t174 20.5zM760 481q0 117 -56.5 171.5t-156.5 54.5q-102 0 -158.5 -54.5t-56.5 -171.5v-41q0 -123 57 -179t158 -56q102 0 157.5 57t55.5 178v41zM547 1280q-86 0 -131 -41t-45 -137t45 -137t131 -41 q84 0 130 41t46 137t-46 137t-130 41z" />
<glyph unicode="9" horiz-adv-x="1126" d="M494 575q-86 0 -164 20.5t-135.5 70t-91 131.5t-33.5 202v29q0 129 36.5 218t101 144.5t153 81t188.5 25.5t189 -25.5t153.5 -81t102.5 -144.5t38 -218v-571q0 -129 -38 -218t-105.5 -144.5t-157.5 -81t-194 -25.5q-123 0 -211 34.5t-144.5 88t-84 120t-27.5 131.5 q0 63 30.5 87t94.5 24q55 0 97 -20.5t42 -79.5q0 -72 62.5 -112t148.5 -40q104 0 162.5 56.5t58.5 179.5v223q-51 -59 -121.5 -82t-150.5 -23zM766 1044q0 123 -57.5 179.5t-159.5 56.5q-100 0 -156.5 -56.5t-56.5 -179.5v-26q0 -129 56.5 -181.5t158.5 -52.5 q98 0 156.5 49.5t58.5 165.5v45z" />
<glyph unicode=":" horiz-adv-x="456" d="M229 266q55 0 96.5 -41t41.5 -98q0 -55 -41 -97t-97 -42q-59 0 -99 42t-40 97q0 57 40 98t99 41zM229 864q55 0 96.5 -41t41.5 -98q0 -55 -41 -97t-97 -42q-59 0 -99 42t-40 97q0 57 40 98t99 41z" />
<glyph unicode=";" horiz-adv-x="458" d="M223 266q57 0 98 -40t41 -97q0 -8 -2 -20.5t-13 -42t-33.5 -86t-63.5 -150.5q-10 -20 -24.5 -27.5t-30.5 -7.5q-29 0 -59 17.5t-30 52.5q0 14 9 29l47 108q-35 18 -55.5 51t-20.5 74q0 57 40 98t97 41zM236 864q55 0 96 -41t41 -98q0 -55 -41 -97t-96 -42q-59 0 -99.5 42 t-40.5 97q0 57 40.5 98t99.5 41z" />
<glyph unicode="&#x3c;" horiz-adv-x="856" d="M39 567q0 23 13.5 51.5t41.5 47.5l529 346q14 8 34 8t41 -9.5t37.5 -26.5t27.5 -39.5t11 -49.5q0 -47 -33 -68l-395 -260l395 -258q16 -10 24.5 -28.5t8.5 -40.5q0 -53 -38 -89t-79 -36q-23 0 -34 10l-529 344q-29 20 -42 47.5t-13 50.5z" />
<glyph unicode="=" horiz-adv-x="911" d="M109 295q0 47 22.5 79t58.5 32h529q33 0 59.5 -32t26.5 -79q0 -49 -26.5 -79t-59.5 -30h-529q-37 0 -59 30t-22 79zM109 711q0 47 22.5 78.5t58.5 31.5h529q33 0 59.5 -31.5t26.5 -78.5q0 -49 -26.5 -79t-59.5 -30h-529q-37 0 -59 30t-22 79z" />
<glyph unicode="&#x3e;" horiz-adv-x="854" d="M815 567q0 -23 -12 -50.5t-41 -47.5l-531 -344q-10 -10 -32 -10q-41 0 -80 35.5t-39 89.5q0 23 9 41t24 28l397 258l-397 260q-14 10 -23.5 27.5t-9.5 40.5q0 27 11 49.5t28.5 39.5t38 26.5t41.5 9.5q23 0 32 -8l531 -346q29 -18 41 -47t12 -52z" />
<glyph unicode="?" horiz-adv-x="890" d="M842 1159q0 -80 -29 -144.5t-68.5 -114.5t-80.5 -86t-64 -56q-37 -31 -58.5 -60.5t-30.5 -61.5t-11 -68t-2 -81q0 -29 -19.5 -51t-83.5 -22q-51 0 -72.5 24.5t-21.5 89.5q0 72 11.5 124.5t28.5 90t38.5 64.5t44.5 45q27 25 61.5 52.5t65.5 60t52.5 72.5t21.5 93 q0 86 -58.5 131.5t-152.5 45.5q-76 0 -114 -22.5t-60.5 -48.5t-41 -48.5t-53.5 -22.5t-68.5 23.5t-33.5 75.5q0 37 23.5 78.5t71.5 78.5t119 60.5t163 23.5q98 0 176 -26.5t132 -72.5t84 -109.5t30 -137.5zM397 266q57 0 98.5 -41t41.5 -98q0 -55 -40 -97t-100 -42 q-59 0 -98 42t-39 97q0 57 40 98t97 41z" />
<glyph unicode="@" horiz-adv-x="1509" d="M475 739q0 29 25.5 54.5t67.5 44t94.5 29t105.5 10.5q66 0 125 -17.5t105 -51.5t73 -86t27 -120v-346q8 -53 26.5 -75.5t46.5 -22.5q39 0 62.5 30.5t36 75.5t16.5 95.5t4 89.5q0 272 -124 419.5t-388 147.5q-154 0 -255 -48t-161.5 -128t-86 -186.5t-25.5 -223.5 q0 -109 22.5 -208t75.5 -175t143.5 -121t225.5 -45q61 0 105 8.5t76 18.5t53.5 18t37.5 8q33 0 49.5 -28.5t16.5 -48.5q0 -33 -39 -57.5t-96.5 -40t-121 -22.5t-112.5 -7q-119 0 -228.5 43t-194.5 129t-135 217t-50 309q0 156 42 290t129 234.5t219 157.5t310 57 q162 0 288 -47t213 -134t133 -213t46 -284q0 -94 -17.5 -179t-54 -148.5t-94 -100t-137.5 -36.5q-88 0 -144.5 43t-70.5 106q-49 -63 -109.5 -101t-146.5 -38q-47 0 -93 13t-82 42t-58.5 74t-22.5 106q0 72 30.5 120t86 78t130.5 42t165 12h65v31q0 72 -40 107.5t-126 35.5 q-47 0 -78.5 -8t-54 -19.5t-38 -19.5t-29.5 -8t-25.5 10.5t-20 25.5t-13.5 32.5t-5 29.5zM915 408h-51q-106 0 -165.5 -31t-59.5 -103q0 -49 26.5 -73.5t67.5 -24.5q35 0 68 14.5t58.5 38t40.5 54t15 61.5v64z" />
<glyph unicode="A" horiz-adv-x="1177" d="M186 0q-27 0 -56.5 8t-54 22.5t-41 35t-16.5 45.5q0 4 5 20l395 1288q14 47 63 68.5t107 21.5q59 0 108 -21.5t64 -68.5l395 -1288q4 -16 4 -20q0 -25 -16.5 -44.5t-41 -35t-54 -23.5t-56.5 -8q-35 0 -58.5 12.5t-31.5 40.5l-78 273h-469l-78 -273q-8 -29 -31.5 -41 t-58.5 -12zM766 535l-178 628l-178 -628h356z" />
<glyph unicode="B" horiz-adv-x="1150" d="M123 1413q0 41 36 62.5t81 21.5h395q80 0 154.5 -15.5t131 -55.5t91.5 -110.5t35 -178.5q0 -127 -46.5 -209t-128.5 -117q47 -18 86 -44t67 -64.5t43 -94t15 -131.5v-43q0 -121 -31.5 -202.5t-87 -134t-130 -75t-160.5 -22.5h-434q-53 0 -85 24.5t-32 57.5v1331zM618 233 q94 0 146.5 53.5t52.5 170.5v32q0 121 -52 169.5t-147 48.5h-231v-474h231zM387 915h229q84 0 124 49.5t40 127.5q0 80 -44 126t-122 46h-227v-349z" />
<glyph unicode="C" horiz-adv-x="1126" d="M803 1061q-2 25 -8.5 58.5t-28 66.5t-62 55.5t-114.5 22.5q-104 0 -159.5 -57.5t-55.5 -178.5v-571q0 -121 56 -178.5t163 -57.5q70 0 110.5 22.5t61 55.5t28 71t9.5 70q4 47 41 65.5t90 18.5q70 0 102.5 -26.5t32.5 -104.5q0 -92 -36 -167.5t-101.5 -128t-155.5 -81 t-196 -28.5q-96 0 -182.5 25.5t-151 81t-101 144.5t-36.5 218v571q0 129 37.5 218t102 144.5t150.5 81t183 25.5q106 0 196 -27.5t154.5 -78t100.5 -123t36 -160.5q0 -80 -32.5 -105.5t-100.5 -25.5q-57 0 -94 18.5t-39 65.5z" />
<glyph unicode="D" horiz-adv-x="1187" d="M602 1497q100 0 188.5 -25.5t154 -81t102 -144.5t36.5 -218v-559q0 -129 -36.5 -218t-102 -144.5t-154 -81t-188.5 -25.5h-362q-53 0 -85 24.5t-32 57.5v1333q0 33 31.5 57.5t85.5 24.5h362zM389 1264v-1031h213q102 0 158.5 57.5t56.5 178.5v559q0 121 -56 178.5 t-159 57.5h-213z" />
<glyph unicode="E" horiz-adv-x="1085" d="M389 854h311q41 0 62.5 -33t21.5 -73q0 -35 -20.5 -69t-63.5 -34h-311v-412h580q41 0 62.5 -35.5t21.5 -82.5q0 -41 -20.5 -78t-63.5 -37h-729q-45 0 -81 21.5t-36 62.5v1329q0 41 36 62.5t81 21.5h729q43 0 63.5 -37t20.5 -78q0 -47 -21.5 -82.5t-62.5 -35.5h-580v-410z " />
<glyph unicode="F" horiz-adv-x="1040" d="M123 1413q0 41 36 62.5t81 21.5h714q43 0 62.5 -37t19.5 -78q0 -47 -20.5 -82.5t-61.5 -35.5h-565v-410h313q41 0 61.5 -33t20.5 -73q0 -35 -19.5 -69t-62.5 -34h-313v-561q0 -41 -42 -62.5t-91 -21.5q-51 0 -92 21.5t-41 62.5v1329z" />
<glyph unicode="G" horiz-adv-x="1155" d="M801 1061q-2 37 -11.5 72.5t-33 64.5t-63.5 47.5t-105 18.5q-104 0 -159.5 -57.5t-55.5 -178.5v-571q0 -121 55 -178.5t158 -57.5q100 0 157.5 57.5t57.5 178.5v121h-166q-41 0 -61.5 31.5t-20.5 72.5q0 39 20.5 71.5t61.5 32.5h348q41 0 62.5 -25.5t21.5 -60.5v-243 q0 -129 -37 -218t-102.5 -144.5t-153.5 -81t-188 -25.5q-102 0 -189.5 25.5t-152 81t-101.5 144.5t-37 218v571q0 129 37 218t101.5 144.5t149.5 81t184 25.5q106 0 195 -26.5t154.5 -78t102.5 -124t37 -164.5q0 -78 -34 -102.5t-99 -24.5q-53 0 -92 18.5t-41 65.5z" />
<glyph unicode="H" horiz-adv-x="1239" d="M850 672h-461v-588q0 -41 -42 -62.5t-91 -21.5q-51 0 -92 21.5t-41 62.5v1331q0 43 41 62.5t92 19.5q49 0 91 -19.5t42 -62.5v-534h461v534q0 43 41 62.5t92 19.5q49 0 91 -19.5t42 -62.5v-1331q0 -41 -42 -62.5t-91 -21.5q-51 0 -92 21.5t-41 62.5v588z" />
<glyph unicode="I" horiz-adv-x="512" d="M123 1415q0 43 41 62.5t92 19.5q49 0 91 -19.5t42 -62.5v-1331q0 -41 -42 -62.5t-91 -21.5q-51 0 -92 21.5t-41 62.5v1331z" />
<glyph unicode="J" horiz-adv-x="1103" d="M512 1264q-41 0 -62.5 35.5t-21.5 82.5q0 41 19.5 78t64.5 37h358q45 0 81 -21.5t36 -62.5v-956q0 -129 -37 -218t-101.5 -144.5t-150.5 -81t-182 -25.5q-106 0 -196.5 27.5t-155 81t-101 128t-36.5 170.5q0 78 32.5 103.5t100.5 25.5q53 0 91 -17.5t42 -66.5 q2 -39 11 -77.5t32.5 -70.5t64.5 -51.5t103 -19.5q104 0 160.5 57.5t56.5 178.5v807h-209z" />
<glyph unicode="K" horiz-adv-x="1130" d="M123 1415q0 43 41 62.5t92 19.5q49 0 91 -19.5t42 -62.5v-559l442 602q29 39 74 39q25 0 52.5 -12t50 -31.5t37 -44.5t14.5 -49q0 -10 -3 -23.5t-14 -27.5l-366 -459l446 -680q14 -20 15 -47q0 -25 -14.5 -48.5t-37 -43t-51 -30.5t-57.5 -11q-27 0 -51.5 11t-40.5 40 l-385 584l-111 -140v-401q0 -41 -42 -62.5t-91 -21.5q-51 0 -92 21.5t-41 62.5v1331z" />
<glyph unicode="L" horiz-adv-x="991" d="M240 0q-45 0 -81 21.5t-36 62.5v1331q0 43 41 62.5t92 19.5q49 0 91 -19.5t42 -62.5v-1182h500q41 0 60.5 -35.5t19.5 -80.5q0 -43 -19.5 -80t-60.5 -37h-649z" />
<glyph unicode="M" horiz-adv-x="1431" d="M803 539q-16 -31 -41 -42.5t-49 -11.5q-25 0 -48.5 11.5t-39.5 42.5l-236 442v-897q0 -41 -42 -62.5t-91 -21.5q-51 0 -92 21.5t-41 62.5v1280q0 74 41 103.5t92 29.5q37 0 63.5 -5t50 -20.5t46 -43t47.5 -72.5l252 -459l252 459q25 45 47 72.5t45.5 43t51.5 20.5t65 5 q51 0 92 -29.5t41 -103.5v-1280q0 -41 -42 -62.5t-91 -21.5q-51 0 -92.5 21.5t-41.5 62.5v881z" />
<glyph unicode="N" horiz-adv-x="1239" d="M983 0q-47 0 -87 18.5t-67 65.5l-440 823v-823q0 -41 -42 -62.5t-91 -21.5q-51 0 -92 21.5t-41 62.5v1329q0 43 41 63.5t92 20.5q37 0 63.5 -5t48 -20.5t42 -43t45.5 -72.5l395 -764v823q0 43 41 62.5t92 19.5q49 0 91 -19.5t42 -62.5v-1331q0 -41 -42 -62.5t-91 -21.5z " />
<glyph unicode="O" horiz-adv-x="1171" d="M586 -12q-102 0 -189.5 25.5t-152 81t-101.5 144.5t-37 218v571q0 129 37 218t101.5 144.5t151.5 81t190 25.5q100 0 188 -25.5t153.5 -81t102.5 -144.5t37 -218v-571q0 -129 -37 -218t-102.5 -144.5t-153.5 -81t-188 -25.5zM801 1028q0 123 -57.5 179.5t-157.5 56.5 q-102 0 -157.5 -56.5t-55.5 -179.5v-571q0 -123 55 -179.5t158 -56.5q100 0 157.5 56.5t57.5 179.5v571z" />
<glyph unicode="P" horiz-adv-x="1140" d="M123 1415q0 33 26.5 57.5t73.5 24.5h412q98 0 182 -24.5t147.5 -80t99.5 -143.5t36 -213v-12q0 -127 -37 -215t-102.5 -143.5t-153.5 -81t-189 -25.5h-229v-475q0 -41 -42 -62.5t-91 -21.5q-51 0 -92 21.5t-41 62.5v1331zM389 1264v-496h229q100 0 158 57.5t58 178.5v24 q0 121 -57.5 178.5t-158.5 57.5h-229z" />
<glyph unicode="Q" horiz-adv-x="1171" d="M586 -223q-33 0 -59.5 21.5t-26.5 62.5v133q-86 8 -158 38.5t-124 86t-82 139.5t-30 199v571q0 129 37 218t101.5 145.5t151.5 81t190 24.5q100 0 188 -24.5t153.5 -81t102.5 -145.5t37 -218v-571q0 -115 -29.5 -198t-83 -139.5t-126 -87t-158.5 -38.5v-133 q0 -41 -25.5 -62.5t-58.5 -21.5zM801 1028q0 121 -57.5 178.5t-157.5 57.5q-102 0 -157.5 -57.5t-55.5 -178.5v-571q0 -178 127 -219v108q0 43 26.5 62.5t59.5 19.5t58.5 -19.5t25.5 -62.5v-108q61 20 96 73.5t35 145.5v571z" />
<glyph unicode="R" horiz-adv-x="1167" d="M123 1415q0 33 23.5 57.5t62.5 24.5h405q100 0 188.5 -21.5t155 -70.5t104.5 -131t38 -205q0 -176 -77 -275.5t-192 -134.5l269 -497q6 -8 8 -17.5t2 -15.5q0 -25 -15.5 -50.5t-39 -45t-53 -31.5t-58.5 -12t-52.5 16.5t-39.5 46.5l-291 565h-172v-534q0 -41 -41 -62.5 t-92 -21.5q-49 0 -91 21.5t-42 62.5v1331zM389 1264v-437h225q100 0 160 48.5t60 168.5q0 121 -59.5 170.5t-160.5 49.5h-225z" />
<glyph unicode="S" horiz-adv-x="1069" d="M514 221q92 0 160.5 43t68.5 135q0 76 -49 124t-121.5 86t-157.5 73t-158 87t-122 130t-49 199q0 115 45 192.5t115.5 125.5t160 69.5t177.5 21.5q45 0 111.5 -6t128 -24.5t105.5 -50t44 -83.5q0 -18 -6 -41.5t-19.5 -46t-34 -38t-47.5 -15.5q-25 0 -47 12.5t-53 26.5 t-75 26.5t-107 12.5q-111 0 -171.5 -42t-60.5 -116q0 -63 49.5 -103t122 -73t157.5 -68.5t157.5 -92t122 -141.5t49.5 -218q0 -111 -37 -193.5t-101.5 -138t-153.5 -84t-196 -28.5q-100 0 -187 22.5t-150.5 59t-99.5 81.5t-36 91q0 20 9.5 45.5t25.5 47t36.5 36t45.5 14.5 q31 0 60.5 -24.5t67.5 -54.5t90 -54.5t130 -24.5z" />
<glyph unicode="T" horiz-adv-x="1081" d="M975 1497q43 0 63.5 -38t20.5 -81q0 -47 -21.5 -84t-62.5 -37h-299v-1173q0 -41 -42 -62.5t-91 -21.5q-51 0 -92 21.5t-41 62.5v1173h-301q-41 0 -62.5 36t-21.5 85q0 43 20.5 81t63.5 38h866z" />
<glyph unicode="U" horiz-adv-x="1216" d="M834 1415q0 43 40.5 62.5t92.5 19.5q49 0 91 -19.5t42 -62.5v-958q0 -129 -38 -218t-104.5 -144.5t-156.5 -81t-193 -25.5q-104 0 -193 25.5t-155.5 81t-104.5 144.5t-38 218v958q0 43 41 62.5t92 19.5q49 0 91 -19.5t42 -62.5v-958q0 -121 59.5 -178.5t165.5 -57.5 t166 57.5t60 178.5v958z" />
<glyph unicode="V" horiz-adv-x="1177" d="M23 1366l-5 20q0 25 16.5 45.5t41 35t54.5 22.5t56 8q35 0 58.5 -12t31.5 -41l314 -1110l311 1110q8 29 31.5 41t58.5 12q27 0 56.5 -8t54 -23.5t41 -35t16.5 -44.5q0 -4 -4 -20l-393 -1288q-14 -47 -63.5 -68.5t-108.5 -21.5t-107.5 21.5t-64.5 68.5z" />
<glyph unicode="W" horiz-adv-x="1808" d="M1380 78q-16 -47 -65 -68.5t-109 -21.5q-57 0 -108 21.5t-62 68.5l-131 553l-133 -553q-10 -47 -61.5 -68.5t-108.5 -21.5q-59 0 -109.5 21.5t-64.5 68.5l-405 1288q-4 12 -5 25q0 23 16.5 42t41 33.5t54.5 22.5t58 8q31 0 55.5 -12t32.5 -41l324 -1110l174 713 q10 39 48 56t83 17q43 0 81 -17.5t48 -55.5l174 -713l324 1110q8 29 32.5 41t55.5 12q29 0 58.5 -8t54 -22.5t41 -34t16.5 -41.5q0 -12 -4 -25z" />
<glyph unicode="X" horiz-adv-x="1148" d="M573 559l-299 -526q-10 -18 -29.5 -30.5t-43.5 -12.5q-27 0 -57.5 10t-56.5 28.5t-43 42t-17 52.5q0 20 16 49l354 578l-342 575q-18 31 -18 57q0 27 16.5 49.5t41 40t54 26.5t58.5 9q31 0 52.5 -15t35.5 -42l278 -502l279 502q16 27 36.5 42t53.5 15q29 0 58.5 -9 t54 -26.5t41 -40t16.5 -49.5t-18 -57l-342 -575l354 -578q14 -27 14 -49q0 -29 -16.5 -52.5t-43 -42t-57 -28.5t-57.5 -10q-25 0 -43 12t-29 31z" />
<glyph unicode="Y" horiz-adv-x="1175" d="M455 600q0 16 -6 27l-424 733q-6 14 -7 26q0 25 17.5 45.5t44 35t57.5 22.5t58 8q33 0 50 -12t31 -41l312 -592l313 592q14 27 30.5 40t49.5 13q27 0 57.5 -8t57 -22.5t44 -35t17.5 -45.5q0 -4 -1 -11t-5 -15l-422 -733q-8 -12 -8 -27v-516q0 -41 -41 -62.5t-92 -21.5 q-49 0 -91 21.5t-42 62.5v516z" />
<glyph unicode="Z" horiz-adv-x="1069" d="M369 233h589q41 0 62.5 -37.5t21.5 -78.5t-21.5 -79t-62.5 -38h-849q-41 0 -60.5 20.5t-19.5 53.5q0 45 28 92l609 1098h-519q-41 0 -61 34.5t-20 81.5q0 43 19 80t62 37h779q41 0 60.5 -20.5t19.5 -51.5q0 -45 -31 -96z" />
<glyph unicode="[" horiz-adv-x="698" d="M381 190h203q39 0 60.5 -35.5t21.5 -82.5q0 -41 -19.5 -78t-62.5 -37h-353q-43 0 -79.5 21.5t-36.5 62.5v1448q0 41 35.5 62.5t80.5 21.5h353q43 0 62.5 -37t19.5 -78q0 -47 -21.5 -83t-60.5 -36h-203v-1149z" />
<glyph unicode="\" horiz-adv-x="757" d="M43 1427q-2 8 -3 14.5t-1 14.5q0 35 29.5 62.5t70.5 27.5q25 0 46.5 -12t31.5 -41l498 -1376q4 -8 4 -25q0 -35 -28.5 -64.5t-69.5 -29.5q-59 0 -80 57z" />
<glyph unicode="]" horiz-adv-x="700" d="M319 1339h-202q-41 0 -62.5 36t-21.5 83q0 41 20.5 78t63.5 37h350q45 0 82 -21.5t37 -62.5v-1448q0 -41 -37 -62.5t-82 -21.5h-350q-43 0 -63.5 37t-20.5 78q0 47 21.5 82.5t62.5 35.5h202v1149z" />
<glyph unicode="^" horiz-adv-x="583" d="M80 1186q-12 -6 -23 -6q-25 0 -41 24.5t-16 57.5q0 23 10 43t35 32l213 115q16 10 35 10q14 0 35 -10l213 -113q23 -14 33 -35.5t10 -43.5q0 -31 -16.5 -55.5t-41.5 -24.5q-12 0 -20 6l-213 114z" />
<glyph unicode="_" horiz-adv-x="647" d="M-86 -111q0 47 22.5 79t59.5 32h655q33 0 59.5 -31.5t26.5 -79.5q0 -49 -26.5 -78.5t-59.5 -29.5h-655q-37 0 -59.5 29.5t-22.5 78.5z" />
<glyph unicode="`" horiz-adv-x="413" d="M37 1300q-20 10 -28.5 26.5t-8.5 35.5q0 35 23.5 67.5t58.5 32.5q6 0 12 -1t15 -3l270 -131q35 -18 35 -63q0 -35 -23.5 -68t-58.5 -33q-8 0 -14.5 2t-14.5 6z" />
<glyph unicode="a" horiz-adv-x="964" d="M430 985q119 0 203 -33.5t137 -89t76.5 -127t23.5 -149.5v-502q0 -35 -36.5 -59.5t-92.5 -24.5q-51 0 -84.5 24.5t-33.5 59.5v59q-55 -63 -130 -112t-182 -49q-55 0 -103 16t-84 50t-57.5 85t-21.5 121q0 88 35 146.5t97.5 92t150.5 48t194 14.5h84v27q0 33 -9 66.5 t-30.5 60t-55.5 44t-85 17.5q-59 0 -96 -10t-61.5 -21.5t-41 -21.5t-34.5 -10q-45 0 -68 43t-23 88q0 31 31 58.5t79 47t105.5 30.5t112.5 11zM606 418h-31q-51 0 -99 -4t-85 -17.5t-59.5 -39t-22.5 -68.5q0 -57 31 -84t78 -27q31 0 64.5 16.5t61 44t45 63.5t17.5 73v43z " />
<glyph unicode="b" horiz-adv-x="1062" d="M233 1540q55 0 95.5 -22.5t40.5 -59.5v-629q33 59 99.5 107.5t162.5 48.5q76 0 142.5 -32.5t115.5 -90t77.5 -132.5t28.5 -161v-168q0 -82 -29.5 -157.5t-78.5 -134t-113.5 -93t-136.5 -34.5q-49 0 -93 13t-82 35.5t-66.5 52.5t-43.5 60v-59q0 -31 -34.5 -57.5 t-84.5 -26.5q-57 0 -93 26.5t-36 57.5v1374q0 37 36 59.5t93 22.5zM731 569q0 35 -14.5 68t-39 59.5t-57 42t-69.5 15.5q-33 0 -65.5 -12.5t-58.5 -37t-42 -58.5t-16 -77v-204q0 -16 14 -42t38.5 -50.5t58.5 -42t73 -17.5q37 0 69.5 16.5t56 43t38 60.5t14.5 68v168z" />
<glyph unicode="c" horiz-adv-x="888" d="M514 -18q-117 0 -201 31.5t-138 88t-79.5 133t-25.5 166.5v164q0 88 25.5 165t79.5 133.5t137 89t200 32.5q72 0 132.5 -13.5t103.5 -36t67.5 -51t24.5 -59.5q0 -18 -7.5 -40.5t-21.5 -42t-32.5 -33t-43.5 -13.5q-16 0 -33.5 9.5t-40 19.5t-53 19.5t-76.5 9.5 q-104 0 -151 -49.5t-47 -139.5v-164q0 -90 47 -139t154 -49q45 0 75.5 9t53 21.5t40 21.5t35.5 9q27 0 48.5 -12t36 -30.5t21.5 -41t7 -40.5q0 -31 -25.5 -61t-70.5 -54.5t-107.5 -38.5t-134.5 -14z" />
<glyph unicode="d" horiz-adv-x="1064" d="M829 1540q57 0 94.5 -22.5t37.5 -59.5v-1374q0 -31 -37 -57.5t-95 -26.5q-49 0 -83.5 26.5t-34.5 57.5v59q-31 -63 -109 -112t-176 -49q-72 0 -136.5 34.5t-113.5 93t-78.5 134t-29.5 157.5v168q0 86 28.5 161t77.5 132.5t115.5 90t142.5 32.5q96 0 163 -48t101 -108v629 q0 37 39 59.5t94 22.5zM332 401q0 -35 14 -68.5t39 -60t56.5 -43t68.5 -16.5q39 0 72.5 17.5t59.5 42t40 50t14 42.5v204q0 43 -16 77t-43 58.5t-59.5 37t-65.5 12.5q-37 0 -69.5 -15.5t-57.5 -42t-39 -59.5t-14 -68v-168z" />
<glyph unicode="e" horiz-adv-x="991" d="M514 985q84 0 161 -28.5t135 -79t92 -121t34 -156.5q0 -66 -16.5 -102.5t-44 -54t-61.5 -21.5t-69 -4h-415v-31q0 -90 65.5 -143.5t173.5 -53.5q51 0 88 12.5t66 27t52.5 26.5t45.5 12q23 0 41.5 -12t31.5 -30.5t20.5 -39t7.5 -34.5q0 -27 -26 -56.5t-73 -55.5 t-113.5 -42t-148.5 -16q-109 0 -200 29.5t-156.5 85t-102 133t-36.5 171.5v174q0 82 34.5 157t95 131.5t142.5 89t176 32.5zM629 573q33 0 46 10.5t13 45.5q0 72 -53 117t-127 45q-70 0 -124 -43t-54 -117v-58h299z" />
<glyph unicode="f" horiz-adv-x="696" d="M369 973h249q33 0 50.5 -31t17.5 -65q0 -37 -17.5 -67t-50.5 -30h-249v-698q0 -37 -41 -59.5t-95 -22.5q-55 0 -92 22.5t-37 59.5v1057q0 86 29 159.5t78 127t114.5 84t139.5 30.5h121q51 0 75.5 -35t24.5 -75q0 -43 -24.5 -78t-75.5 -35h-66q-66 0 -108.5 -40 t-42.5 -110v-194z" />
<glyph unicode="g" horiz-adv-x="962" d="M471 262q-76 0 -133 19q-25 -20 -25 -41q0 -33 46.5 -47.5t114 -23.5t148 -21.5t148.5 -42t114 -85t46 -151.5q0 -86 -38 -146.5t-99.5 -99.5t-142.5 -57.5t-167 -18.5q-90 0 -172 19.5t-144.5 56.5t-99 90.5t-36.5 122.5q0 78 43 131t106 86q-39 18 -62.5 49t-23.5 82 q0 57 29 93t76 67q-59 47 -93 113.5t-34 146.5v43q0 74 28.5 136.5t80.5 107.5t126 69.5t164 24.5q68 0 127 -15.5t107 -43.5q35 82 65.5 110.5t58.5 28.5q51 0 78 -28.5t27 -53.5q0 -18 -9.5 -32.5t-23.5 -24.5q-20 -14 -47 -31.5t-49 -46.5q72 -84 72 -201v-43 q0 -74 -30 -136t-84 -108.5t-129 -72t-163 -25.5zM621 647q0 74 -38 126t-110 52t-108.5 -52t-36.5 -126v-41q0 -78 37.5 -131t109.5 -53q68 0 107 51t39 131v43zM674 -139q0 43 -25.5 68.5t-66.5 41t-91.5 21.5t-99.5 12q-49 -23 -79.5 -58.5t-30.5 -82.5q0 -70 58 -108 t140 -38t138.5 39t56.5 105z" />
<glyph unicode="h" d="M369 84q0 -31 -40 -57.5t-93 -26.5q-59 0 -95.5 26.5t-36.5 57.5v1374q0 37 36 59.5t96 22.5q53 0 93 -22.5t40 -59.5v-629q29 59 94 107.5t164 48.5q70 0 134 -32.5t112.5 -90t77 -132.5t28.5 -161v-485q0 -41 -42 -62.5t-91 -21.5q-47 0 -89 21.5t-42 62.5v485 q0 35 -14.5 68t-39 59.5t-56.5 42t-68 15.5q-63 0 -115.5 -49.5t-52.5 -135.5v-485z" />
<glyph unicode="i" horiz-adv-x="468" d="M233 973q55 0 94.5 -22.5t39.5 -59.5v-807q0 -31 -39 -57.5t-95 -26.5q-57 0 -94 26.5t-37 57.5v807q0 37 37 59.5t94 22.5zM233 1448q59 0 101.5 -38t42.5 -91q0 -51 -42 -90t-102 -39q-61 0 -103 39t-42 90q0 53 42 91t103 38z" />
<glyph unicode="j" horiz-adv-x="473" d="M236 1448q59 0 101 -38t42 -91q0 -51 -42 -90t-101 -39q-61 0 -103.5 39t-42.5 90q0 53 42.5 91t103.5 38zM233 973q57 0 96.5 -22.5t39.5 -59.5v-957q0 -86 -19.5 -156.5t-58.5 -121.5t-97.5 -80t-134.5 -29q-41 0 -67.5 9.5t-42 25t-21.5 34.5t-6 40q0 53 30 84t71 31 q55 0 68 46t13 117v957q0 37 37 59.5t92 22.5z" />
<glyph unicode="k" horiz-adv-x="1007" d="M672 588l301 -430q14 -20 14 -43t-14.5 -46.5t-37 -42t-48 -30.5t-49.5 -12q-41 0 -66 34l-276 408l-127 -117v-225q0 -31 -40 -57.5t-96 -26.5q-57 0 -93 26.5t-36 57.5v1374q0 37 36 59.5t93 22.5q55 0 95.5 -22.5t40.5 -59.5v-858l385 363q25 20 53 20q20 0 43.5 -11 t42 -29.5t31 -41t12.5 -45.5q0 -27 -23 -49z" />
<glyph unicode="l" horiz-adv-x="505" d="M252 1540q53 0 93 -22.5t40 -59.5v-1374q0 -31 -40 -57.5t-93 -26.5q-59 0 -95 26.5t-36 57.5v1374q0 37 36 59.5t95 22.5z" />
<glyph unicode="m" horiz-adv-x="1644" d="M694 569q0 86 -51 135.5t-117 49.5q-59 0 -109 -47.5t-50 -137.5v-485q0 -31 -40 -57.5t-94 -26.5q-59 0 -95 26.5t-36 57.5v807q0 37 36 59.5t95 22.5q47 0 82 -22.5t35 -59.5v-62q35 59 101.5 107.5t169.5 48.5q88 0 155.5 -56.5t100.5 -148.5q53 104 136 154.5 t173 50.5q70 0 135 -27.5t116.5 -81t82 -130t30.5 -177.5v-485q0 -31 -40 -57.5t-93 -26.5t-92 26.5t-39 57.5v485q0 92 -52 139.5t-114 47.5q-61 0 -111.5 -47t-50.5 -138v-489q0 -43 -42 -62.5t-91 -19.5q-47 0 -89 19.5t-42 62.5v487z" />
<glyph unicode="n" horiz-adv-x="1071" d="M367 84q0 -31 -40 -57.5t-94 -26.5q-59 0 -95 26.5t-36 57.5v807q0 37 36 59.5t95 22.5q47 0 82 -22.5t35 -59.5v-62q29 59 100.5 107.5t174.5 48.5q70 0 134 -32.5t112.5 -90t77 -132.5t28.5 -161v-485q0 -41 -42 -62.5t-91 -21.5q-47 0 -89 21.5t-42 62.5v485 q0 35 -14.5 68t-38 59.5t-56.5 42t-69 15.5q-63 0 -115.5 -49.5t-52.5 -135.5v-485z" />
<glyph unicode="o" horiz-adv-x="1019" d="M510 985q88 0 169 -32.5t142.5 -90t97 -132.5t35.5 -161v-168q0 -82 -35.5 -157.5t-97 -134t-142.5 -93t-169 -34.5q-90 0 -171 34.5t-141.5 92t-96 133t-35.5 159.5v168q0 82 34.5 158t95 133.5t141.5 91t173 33.5zM690 569q0 35 -14 68t-39 59.5t-57.5 42t-69.5 15.5 t-69.5 -15.5t-57.5 -42t-39 -59.5t-14 -68v-168q0 -37 14 -70.5t39 -59t57.5 -42t69.5 -16.5t69.5 16.5t57.5 42t39 59.5t14 70v168z" />
<glyph unicode="p" horiz-adv-x="1062" d="M229 973q53 0 88 -22.5t35 -59.5v-62q35 59 106.5 107.5t170.5 48.5q76 0 143.5 -32.5t116.5 -90t77.5 -132.5t28.5 -161v-168q0 -82 -29.5 -157.5t-78.5 -134t-113.5 -93t-136.5 -34.5q-92 0 -166 49t-102 112v-512q0 -33 -40 -58.5t-96 -25.5q-57 0 -93 26t-36 58v1260 q0 37 36 59.5t89 22.5zM731 569q0 35 -14.5 68t-40 59.5t-59 42t-72.5 15.5q-33 0 -64.5 -12.5t-56.5 -37t-40 -58.5t-15 -77v-204q0 -16 13 -42t37.5 -50.5t57.5 -42t72 -17.5q37 0 69.5 16.5t57 43t40 60.5t15.5 68v168z" />
<glyph unicode="q" horiz-adv-x="1064" d="M834 973q53 0 90 -22.5t37 -59.5v-1260q0 -33 -37 -58.5t-95 -25.5q-55 0 -94 26t-39 58v512q-31 -63 -104.5 -112t-165.5 -49q-72 0 -136.5 34.5t-113.5 93t-78.5 134t-29.5 157.5v168q0 86 28.5 161t77.5 132.5t116.5 90t145.5 32.5q98 0 169 -48t106 -108v62 q0 37 35 59.5t88 22.5zM332 401q0 -35 15 -68.5t40 -60t57.5 -43t69.5 -16.5q39 0 73 17.5t58.5 42t37.5 50t13 42.5v204q0 43 -15 77t-41 58.5t-57.5 37t-64.5 12.5q-39 0 -72.5 -15.5t-59.5 -42t-40 -59.5t-14 -68v-168z" />
<glyph unicode="r" horiz-adv-x="772" d="M602 754q-45 0 -87 -21.5t-74.5 -60.5t-53 -95.5t-20.5 -125.5v-367q0 -31 -40 -57.5t-96 -26.5q-57 0 -93 26.5t-36 57.5v807q0 37 36 59.5t93 22.5q49 0 84 -22.5t35 -59.5v-84q14 33 40 64.5t58.5 57t71.5 41t82 15.5h64q37 0 66.5 -33.5t29.5 -81.5q0 -47 -30 -81.5 t-66 -34.5h-64z" />
<glyph unicode="s" horiz-adv-x="847" d="M412 182q90 0 119.5 29t29.5 59q0 45 -36 70t-90 41t-116.5 33.5t-117 47.5t-90 81t-35.5 137q0 55 18.5 109.5t61.5 97.5t113.5 70.5t172.5 27.5q61 0 121 -10t105 -27.5t72.5 -42t27.5 -53.5q0 -14 -6 -35.5t-18.5 -42t-31 -35t-40.5 -14.5q-18 0 -40 9t-49.5 20.5 t-60.5 20.5t-76 9q-78 0 -110.5 -30.5t-32.5 -61.5q0 -37 37 -57.5t91 -35.5t117.5 -32.5t118 -50.5t91.5 -89t37 -146q0 -137 -97.5 -218t-279.5 -81q-78 0 -145.5 14t-118 38.5t-79 56.5t-28.5 67q0 16 6 36.5t18.5 38t29 29.5t34.5 12q23 0 44.5 -14t52 -31.5t72.5 -32 t108 -14.5z" />
<glyph unicode="t" horiz-adv-x="710" d="M365 332q0 -59 24.5 -84t89.5 -25h80q57 0 85 -34.5t28 -75.5q0 -43 -28 -78t-85 -35h-80q-186 0 -282.5 79t-96.5 253v993q0 37 42 59.5t89 22.5q51 0 92.5 -22.5t41.5 -59.5v-352h241q33 0 50.5 -31t17.5 -65q0 -37 -17.5 -67t-50.5 -30h-241v-448z" />
<glyph unicode="u" d="M537 -18q-92 0 -173 33.5t-141.5 91t-95.5 133t-35 157.5v492q0 31 39 57.5t94 26.5q53 0 92 -26.5t39 -57.5v-492q0 -35 14.5 -67.5t39 -59t57.5 -42t70 -15.5t69.5 15.5t57 41t38 59t13.5 68.5v494q0 33 40 57.5t93 24.5q59 0 95 -24.5t36 -57.5v-494q0 -84 -35 -158.5 t-95.5 -132t-141 -91t-170.5 -33.5z" />
<glyph unicode="v" horiz-adv-x="985" d="M23 836q-4 6 -7.5 17t-3.5 19q0 23 18.5 43.5t45 36t57.5 24.5t55 9q27 0 47.5 -11t30.5 -34l228 -594l227 590q18 49 76 49q20 0 51 -9t58.5 -24.5t47 -36t19.5 -45.5q0 -18 -8 -34l-351 -811q-10 -23 -46 -35.5t-74 -12.5q-41 0 -75 11.5t-44 36.5z" />
<glyph unicode="w" horiz-adv-x="1419" d="M1081 25q-10 -27 -39.5 -37.5t-64.5 -10.5q-39 0 -68.5 12.5t-40.5 35.5l-157 446l-156 -444q-10 -25 -42 -37.5t-71 -12.5q-33 0 -62.5 10.5t-39.5 39.5l-315 809q-10 20 -11 38q0 25 17.5 44.5t43 34t55.5 22.5t56 8q27 0 47.5 -10t28.5 -33l205 -582l154 506 q10 35 34.5 44.5t55.5 9.5q29 0 54.5 -9.5t35.5 -44.5l151 -508l207 584q16 43 76 43q25 0 54.5 -8t55 -22.5t43 -35t17.5 -45.5q0 -23 -8 -36z" />
<glyph unicode="x" horiz-adv-x="962" d="M43 113q0 25 16 45l242 338l-225 313q-4 6 -10.5 18.5t-6.5 24.5q0 23 17.5 46.5t44 43t57.5 31.5t58 12q10 0 28.5 -4t30.5 -25l186 -299l189 297q10 16 28.5 23.5t32.5 7.5q25 0 54.5 -12t56 -31.5t45 -43.5t18.5 -46q0 -16 -16 -43l-227 -315l243 -336q16 -16 17 -45 q0 -23 -17.5 -45.5t-43 -42t-55.5 -31.5t-56 -12q-16 0 -34 6t-28 22l-207 312l-205 -312q-10 -16 -29.5 -22t-35.5 -6q-20 0 -49 12t-55.5 30.5t-45 42t-18.5 46.5z" />
<glyph unicode="y" horiz-adv-x="974" d="M20 825q-8 20 -8 35q0 27 18.5 49.5t45 40t57.5 27.5t55 10q27 0 47.5 -10t28.5 -35l246 -612l199 612q8 25 27.5 35t41.5 10q25 0 55.5 -10t58.5 -27.5t47 -42t19 -51.5q0 -16 -6 -31l-299 -764q-37 -92 -70.5 -184t-88 -164.5t-139.5 -119t-222 -46.5q-51 0 -86 19.5 t-35 93.5q0 45 15.5 78t52.5 33q33 0 81 12t93 46t79 92.5t40 150.5z" />
<glyph unicode="z" horiz-adv-x="894" d="M780 215q33 0 55.5 -30.5t22.5 -78.5q0 -43 -21.5 -74.5t-56.5 -31.5h-647q-49 0 -69.5 29.5t-20.5 64.5q0 31 14.5 58.5t30.5 48.5l404 557h-355q-33 0 -55.5 30.5t-22.5 77.5q0 43 21.5 75t56.5 32h602q35 0 60.5 -21.5t25.5 -68.5q0 -57 -41 -111l-405 -557h401z" />
<glyph unicode="{" horiz-adv-x="739" d="M43 791q0 47 19.5 65t42 26.5t42 17.5t19.5 40q0 14 -5 51t-11.5 80t-11.5 84t-5 66q0 70 37 133t98.5 112.5t138 78t156.5 28.5q43 0 71 -10.5t45 -27.5t23.5 -37.5t6.5 -41.5q0 -39 -20.5 -73.5t-61.5 -34.5q-31 0 -71 -9.5t-75 -29t-58.5 -50t-23.5 -73.5 q0 -20 5.5 -59.5t11.5 -82.5t11 -80.5t5 -56.5q0 -43 -27.5 -78.5t-46.5 -42.5q23 -6 48.5 -39.5t25.5 -78.5q0 -18 -5 -68.5t-11 -107t-11.5 -105.5t-5.5 -68q0 -41 25 -66.5t60.5 -40.5t74.5 -21.5t68 -6.5q25 0 40 -11t24 -27.5t13.5 -36t4.5 -35.5q0 -115 -150 -115 q-80 0 -155.5 24.5t-136 67.5t-97.5 103.5t-37 134.5q0 27 5 78t11.5 106t11.5 101.5t5 62.5q0 31 -19.5 41t-42 19.5t-42 28t-19.5 65.5z" />
<glyph unicode="|" horiz-adv-x="493" d="M246 1573q55 0 94 -23.5t39 -58.5v-1450q0 -31 -39 -57.5t-94 -26.5q-57 0 -94 26.5t-37 57.5v1450q0 35 37 58.5t94 23.5z" />
<glyph unicode="}" horiz-adv-x="739" d="M696 791q0 -47 -19.5 -65.5t-42 -28t-42 -19.5t-19.5 -41q0 -16 5.5 -62.5t11.5 -101.5t11 -106.5t5 -77.5q0 -74 -37 -134.5t-96 -103.5t-136 -67.5t-157 -24.5q-150 0 -149 115q0 16 4 35.5t13 36t25.5 27.5t41.5 11q29 0 67.5 6.5t73.5 21.5t59.5 41t24.5 66 q0 18 -5 67.5t-11.5 106t-11.5 106.5t-5 69q0 45 26.5 78.5t47.5 39.5q-18 6 -46 42t-28 79q0 18 5 56t11.5 81t11.5 82t5 60q0 43 -23.5 73.5t-57.5 50t-74 29t-70 9.5q-41 0 -62.5 34.5t-21.5 73.5q0 20 7 41t23.5 38t45 27.5t71.5 10.5q80 0 157 -28.5t137 -78t97 -113 t37 -132.5q0 -25 -5 -66t-11 -84t-11.5 -80t-5.5 -51q0 -31 19.5 -40t42 -17.5t42 -26.5t19.5 -65z" />
<glyph unicode="~" horiz-adv-x="841" d="M307 467q-33 0 -56.5 -8t-43 -17.5t-35.5 -16.5t-33 -7q-20 0 -33.5 10t-20.5 24.5t-10 29t-3 22.5q0 47 20.5 74.5t49 42t58 18.5t48.5 4q45 0 79.5 -9t68.5 -20.5t68 -20.5t75 -9q33 0 57.5 7t42.5 16t33.5 17.5t32.5 8.5q20 0 32.5 -10.5t20.5 -24.5t11 -28.5t3 -22.5 q0 -47 -20.5 -75t-49 -42t-58.5 -18t-46 -4q-51 0 -88 9t-69.5 20.5t-63.5 20.5t-70 9z" />
<glyph unicode="&#xa1;" horiz-adv-x="452" d="M98 98q0 102 4 218t10.5 235t10.5 233.5t4 216.5q0 41 34 59.5t64 18.5q41 0 72 -18.5t31 -59.5q0 -102 4 -216.5t9 -233.5t9 -234.5t4 -218.5q0 -53 -36.5 -81.5t-92.5 -28.5q-53 0 -90 28.5t-37 81.5zM225 1225q-57 0 -98 41t-41 100q0 55 41 97t98 42q59 0 99.5 -42 t40.5 -97q0 -59 -40.5 -100t-99.5 -41z" />
<glyph unicode="&#xa2;" horiz-adv-x="884" d="M500 1423q31 0 54.5 -19.5t23.5 -51.5v-162q109 -14 177 -56t68 -96q0 -18 -8 -39.5t-21.5 -40t-33 -29.5t-43.5 -11q-12 0 -24.5 6t-29 15t-37 17.5t-48.5 14.5v-424q29 6 49 15t35.5 18.5t27.5 16.5t27 7q53 0 83.5 -39t30.5 -80q0 -27 -19 -52t-54 -46.5t-81 -38 t-99 -24.5v-168q0 -29 -24 -52.5t-54 -23.5q-33 0 -55.5 23.5t-22.5 52.5v166q-98 8 -168 43.5t-116 91t-67.5 127t-21.5 155.5v37q0 82 21.5 153.5t67.5 127t116 91.5t168 46v158q0 33 22.5 52t55.5 19zM281 739q0 -78 33.5 -128t107.5 -68v428q-74 -18 -107.5 -67.5 t-33.5 -127.5v-37z" />
<glyph unicode="&#xa3;" horiz-adv-x="1107" d="M963 233q41 0 60 -35.5t19 -80.5q0 -43 -19 -80t-60 -37h-840q-41 0 -60.5 37t-19.5 80q0 45 19.5 80.5t60.5 35.5h108l72 517h-115q-33 0 -50 29.5t-17 66.5q0 35 17.5 65.5t49.5 30.5h142l28 195q14 94 62.5 175t119 138t158.5 90t183 33h71q43 0 66.5 -37t23.5 -78 q0 -43 -23.5 -80t-66.5 -37h-82q-113 0 -174 -59t-73 -145l-29 -195h246q35 0 51 -30.5t16 -65.5q0 -37 -16.5 -66.5t-50.5 -29.5h-273l-73 -517h469z" />
<glyph unicode="&#xa4;" horiz-adv-x="925" d="M463 1335q61 0 118.5 -21.5t104.5 -58.5l51 48q12 10 29 10q23 0 40 -17.5t17 -40.5q0 -14 -12 -26l-53 -51q33 -43 51 -96.5t18 -112.5t-18 -113.5t-53 -99.5l55 -51q12 -12 12 -27q0 -23 -17.5 -40t-39.5 -17q-16 0 -29 10l-51 47q-47 -41 -104.5 -62.5t-118.5 -21.5 q-63 0 -120.5 22.5t-106.5 63.5l-52 -49q-12 -10 -28 -10q-23 0 -40.5 17t-17.5 40q0 14 13 27l57 53q-33 45 -50.5 98t-17.5 111q0 57 17.5 110t48.5 99l-53 51q-10 10 -11 26q0 23 17.5 40.5t40.5 17.5q12 0 26 -11l50 -47q47 39 104 60.5t123 21.5zM682 965 q0 43 -17.5 82.5t-46 71.5t-69.5 50.5t-86 18.5t-85 -18.5t-68.5 -49t-46 -70.5t-17.5 -83t17.5 -84t46 -73t68.5 -50.5t85 -18.5t85 18.5t69.5 50.5t47 72t17.5 83z" />
<glyph unicode="&#xa5;" horiz-adv-x="1153" d="M174 725q0 41 22.5 68.5t61.5 27.5h123l-330 545q-4 6 -6 16.5t-2 16.5q0 20 15.5 39.5t38 35t51 24.5t53.5 9q29 0 45 -17t30 -44l299 -555l302 555q14 27 30.5 44t44.5 17q25 0 53.5 -10t51 -25.5t38 -35t15.5 -37.5q0 -16 -8 -33l-336 -545h133q33 0 59.5 -26.5 t26.5 -67.5t-26.5 -66.5t-59.5 -25.5h-190v-131h190q33 0 59.5 -26.5t26.5 -67.5t-26.5 -67t-59.5 -26h-190v-233q0 -41 -41 -62.5t-93 -21.5q-51 0 -92 21.5t-41 62.5v233h-184q-39 0 -61.5 25t-22.5 66t22.5 68.5t61.5 27.5h184v131h-184q-39 0 -61.5 24.5t-22.5 65.5z " />
<glyph unicode="&#xa6;" horiz-adv-x="489" d="M244 1573q55 0 94 -23.5t39 -58.5v-512q0 -33 -39 -59.5t-94 -26.5q-57 0 -94 26.5t-37 59.5v512q0 35 37 58.5t94 23.5zM244 637q55 0 94 -23.5t39 -60.5v-512q0 -31 -39 -57.5t-94 -26.5q-57 0 -94 26.5t-37 57.5v512q0 37 37 60.5t94 23.5z" />
<glyph unicode="&#xa7;" horiz-adv-x="976" d="M90 1073q0 129 39 211t97.5 129t129 65.5t133.5 18.5q94 0 164 -29.5t116 -78t68.5 -109.5t22.5 -125q0 -63 -26.5 -83.5t-73.5 -20.5q-66 0 -89.5 26.5t-23.5 61.5q0 23 -6 47t-22.5 45.5t-45 36t-73.5 14.5q-78 0 -122 -42t-44 -112q0 -61 42 -98t105.5 -65.5 t136 -59.5t136 -80t105.5 -125.5t42 -197.5v-219q0 -125 -39 -206t-100.5 -129t-136 -67.5t-144.5 -19.5q-98 0 -173 30.5t-125 78.5t-75.5 109.5t-25.5 123.5q0 61 29.5 82.5t83.5 21.5q66 0 90 -22.5t24 -51.5q0 -23 5 -50t21.5 -49.5t47.5 -38t82 -15.5q90 0 130 42 t40 105q0 61 -40 98t-101.5 66t-131 59.5t-131 80t-101.5 125t-40 198.5v219zM684 535q0 82 -43 126t-102.5 72.5t-123 51t-106.5 59.5v-43q0 -82 43 -126t102.5 -73t123 -51.5t106.5 -58.5v43z" />
<glyph unicode="&#xa8;" horiz-adv-x="514" d="M104 1397q43 0 73 -32t30 -75t-30 -75.5t-73 -32.5t-73.5 32.5t-30.5 75.5t30.5 75t73.5 32zM412 1397q41 0 71.5 -32t30.5 -75t-30.5 -75.5t-71.5 -32.5q-45 0 -76 32.5t-31 75.5t31 75t76 32z" />
<glyph unicode="&#xa9;" horiz-adv-x="1413" d="M78 733q0 172 59.5 298t151.5 209t204.5 123t219.5 40q109 0 219 -41t200.5 -123t146.5 -207t56 -291q0 -172 -59 -298t-151.5 -208.5t-205 -122.5t-219.5 -40q-109 0 -219 41t-200.5 122.5t-146.5 206.5t-56 291zM1208 741q0 117 -34.5 214.5t-99 169t-157 111.5 t-204.5 40q-113 0 -206 -40t-160.5 -111.5t-104.5 -171t-37 -220.5q0 -117 34.5 -214t99 -168.5t156 -111.5t205.5 -40q113 0 206 40t161 111.5t104.5 170.5t36.5 220zM815 911q0 12 -3 32t-13.5 37t-29.5 29.5t-54 12.5q-104 0 -105 -129v-283q0 -68 27 -98.5t78 -30.5 q33 0 52 12.5t29.5 31t13.5 39t5 38.5q2 27 22.5 36t49.5 9q39 0 56.5 -14.5t17.5 -59.5q0 -104 -71 -164.5t-181 -60.5q-49 0 -94.5 14.5t-78 45t-52 81t-19.5 121.5v283q0 72 19.5 122t52 80.5t77.5 45t95 14.5q111 0 181.5 -58.5t70.5 -158.5q0 -45 -17.5 -59.5 t-54.5 -14.5q-31 0 -51.5 10t-22.5 37z" />
<glyph unicode="&#xaa;" horiz-adv-x="684" d="M311 1556q80 0 135.5 -22.5t91 -60t51 -86t15.5 -99.5v-334q0 -23 -23.5 -39t-64.5 -16q-33 0 -55.5 16.5t-22.5 38.5v41q-35 -41 -84 -74.5t-116 -33.5q-74 0 -129.5 42t-55.5 138q0 59 23.5 98t65.5 61.5t100.5 32t130.5 9.5h55v18q0 45 -26.5 86t-92.5 41 q-41 0 -65.5 -7t-40 -15.5t-26.5 -15.5t-23 -7q-31 0 -46.5 29.5t-15.5 60.5q0 20 20.5 39t53.5 32t70.5 20t74.5 7zM428 1176h-43q-61 0 -107.5 -16.5t-46.5 -67.5q0 -39 20.5 -56.5t51.5 -17.5q20 0 43 10t41.5 28.5t29.5 42t11 50.5v27z" />
<glyph unicode="&#xab;" horiz-adv-x="1021" d="M479 311q6 -12 6 -26q0 -20 -13 -44t-36.5 -43.5t-53.5 -32.5t-63 -13q-55 0 -73 34l-150 279q-20 39 -33.5 58.5t-13.5 41.5q0 25 13.5 45.5t33.5 59.5l150 278q18 35 76 35q33 0 62.5 -13.5t52 -32.5t35.5 -43t13 -44q0 -16 -6 -25l-137 -258zM944 311q6 -12 6 -26 q0 -20 -13 -44t-35.5 -43.5t-52.5 -32.5t-63 -13q-57 0 -73 34l-152 279q-20 39 -33.5 58.5t-13.5 41.5q0 25 13.5 45.5t33.5 59.5l152 278q16 35 73 35q33 0 63 -13.5t52.5 -32.5t35.5 -43t13 -44q0 -16 -6 -25l-137 -258z" />
<glyph unicode="&#xac;" horiz-adv-x="1017" d="M66 492q0 47 22.5 78.5t58.5 31.5h684q33 0 60 -31.5t27 -78.5v-279q0 -33 -39 -58.5t-95 -25.5q-57 0 -94 25.5t-37 58.5v170h-506q-37 0 -59 30t-22 79z" />
<glyph unicode="&#xad;" horiz-adv-x="968" d="M74 492q0 47 22.5 78.5t59.5 31.5h655q33 0 59.5 -31.5t26.5 -78.5q0 -49 -26.5 -79t-59.5 -30h-655q-37 0 -59.5 30t-22.5 79z" />
<glyph unicode="&#xae;" horiz-adv-x="1413" d="M78 733q0 172 59.5 298t151.5 209t204.5 123t219.5 40q109 0 219 -41t200.5 -123t146.5 -207t56 -291q0 -172 -59 -298t-151.5 -208.5t-205 -122.5t-219.5 -40q-109 0 -219 41t-200.5 122.5t-146.5 206.5t-56 291zM487 1081q0 18 12.5 31.5t32.5 15.5h201q49 0 92 -11 t76 -36.5t52.5 -68.5t19.5 -105q0 -88 -38 -139t-93 -72l125 -243q2 -4 2 -15q0 -29 -24.5 -51t-51.5 -22q-29 0 -43 36l-135 273h-90v-258q0 -23 -18.5 -36t-47.5 -13q-27 0 -49.5 12t-22.5 37v665zM625 1006v-215h108q47 0 76 24.5t29 77.5q0 63 -29 88t-76 25h-108z M1208 741q0 117 -34.5 214.5t-99 169t-157 111.5t-204.5 40q-113 0 -206 -40t-160.5 -111.5t-104.5 -171t-37 -220.5q0 -117 34.5 -214t99 -168.5t156 -111.5t205.5 -40q113 0 206 40t161 111.5t104.5 170.5t36.5 220z" />
<glyph unicode="&#xaf;" horiz-adv-x="585" d="M0 1335q0 37 22.5 62.5t59.5 25.5h420q33 0 58.5 -25.5t25.5 -62.5q0 -39 -25.5 -62.5t-58.5 -23.5h-420q-37 0 -59.5 23.5t-22.5 62.5z" />
<glyph unicode="&#xb0;" horiz-adv-x="817" d="M408 1573q74 0 139 -30t115.5 -80t80 -116.5t29.5 -140.5t-29.5 -142.5t-80 -119.5t-116 -82t-138.5 -31q-74 0 -139.5 31t-115 82t-79 118.5t-29.5 141.5t28.5 140.5t78 117.5t116 81t140.5 30zM627 1202q0 43 -17.5 83t-46 72t-69.5 50t-86 18t-85 -18t-69 -49 t-46.5 -71t-17.5 -83t17.5 -84t46.5 -72.5t68.5 -50t85.5 -18.5q45 0 84.5 18.5t69.5 50t47.5 71.5t17.5 83z" />
<glyph unicode="&#xb1;" horiz-adv-x="964" d="M483 360q-47 0 -78.5 23t-31.5 59v203h-219q-37 0 -59.5 31t-22.5 78t22.5 79.5t59.5 32.5h219v201q0 31 31.5 57.5t78.5 26.5q49 0 79 -26.5t30 -57.5v-201h217q33 0 58.5 -32.5t25.5 -79.5t-25.5 -78t-58.5 -31h-217v-203q0 -37 -30 -59.5t-79 -22.5zM72 174 q0 47 22.5 79t59.5 32h655q33 0 58.5 -32t25.5 -79q0 -49 -25.5 -78.5t-58.5 -29.5h-655q-37 0 -59.5 29.5t-22.5 78.5z" />
<glyph unicode="&#xb2;" horiz-adv-x="659" d="M63 1282q0 51 23 91t60.5 67.5t86 42t99.5 14.5q53 0 103 -15.5t89 -44t62.5 -72.5t23.5 -99q0 -59 -27.5 -106.5t-69.5 -85.5t-91 -67.5t-91 -56t-70 -50t-28 -48.5v-21h324q23 0 38 -22.5t15 -52.5q0 -29 -15 -53.5t-38 -24.5h-430q-25 0 -51.5 15.5t-26.5 39.5v109 q0 43 28.5 81t72 72.5t92.5 67.5t92 64.5t71.5 64.5t28.5 68q0 27 -23.5 53t-76.5 26q-41 0 -68.5 -19.5t-27.5 -64.5q0 -25 -26 -44t-69 -19q-35 0 -57.5 18.5t-22.5 71.5z" />
<glyph unicode="&#xb3;" horiz-adv-x="673" d="M330 825q66 0 92.5 23.5t26.5 77.5v20q0 57 -35 72.5t-88 15.5q-31 0 -42.5 21.5t-11.5 46.5q0 27 11.5 47t42.5 22q18 0 36.5 3.5t33 12.5t22.5 27.5t8 51.5q0 49 -27.5 65.5t-68.5 16.5q-51 0 -75 -12.5t-24 -45.5q0 -29 -16 -46t-65 -17q-59 0 -75 14t-16 55 q0 33 13.5 69t44 64.5t83 48t130.5 19.5q57 0 105 -10t83 -33.5t55.5 -62.5t20.5 -97q0 -61 -23.5 -112.5t-70.5 -71.5q55 -18 89 -57t34 -107v-20q0 -70 -24 -118t-63.5 -79t-95 -44t-116.5 -13q-76 0 -130.5 20.5t-88 51t-49 68.5t-15.5 73q0 39 17.5 51t64.5 12 q55 0 72.5 -13t17.5 -44q0 -37 35 -51.5t82 -14.5z" />
<glyph unicode="&#xb4;" horiz-adv-x="413" d="M111 1171q-8 -4 -14.5 -6t-14.5 -2q-35 0 -58.5 33t-23.5 68q0 45 35 63l270 131q8 2 14.5 3t12.5 1q35 0 58.5 -32.5t23.5 -67.5q0 -18 -8.5 -34.5t-28.5 -27.5z" />
<glyph unicode="&#xb5;" horiz-adv-x="1060" d="M559 -18q-61 0 -115.5 22.5t-95.5 56.5v-430q0 -33 -30.5 -58.5t-73.5 -25.5q-55 0 -92 26t-37 58v1258q0 31 39 57.5t94 26.5q53 0 92 -26.5t39 -57.5v-502q0 -31 14.5 -61.5t40 -55t58 -41t69.5 -16.5t69 15.5t55.5 42t36.5 59t13 67.5v492q0 35 40 59.5t93 24.5 q57 0 94 -24.5t37 -59.5v-492q0 -84 -34.5 -159.5t-94 -132t-139.5 -90t-172 -33.5z" />
<glyph unicode="&#xb6;" horiz-adv-x="1136" d="M924 1497q33 0 58.5 -21.5t25.5 -62.5v-1331q0 -43 -26 -62.5t-58 -19.5q-33 0 -59.5 19.5t-26.5 62.5v1294h-168v-1292q0 -41 -27 -62.5t-59 -21.5q-33 0 -58.5 21.5t-25.5 62.5v543h-51q-84 0 -158 22.5t-128 73.5t-85 132t-31 196v24q0 115 31 196t85 131t128 72.5 t158 22.5h475z" />
<glyph unicode="&#xb7;" horiz-adv-x="421" d="M211 743q61 0 103 -37.5t42 -91.5q0 -53 -42 -92t-103 -39t-104.5 39t-43.5 92t43.5 91t104.5 38z" />
<glyph unicode="&#xb8;" horiz-adv-x="389" d="M186 -104q104 -4 153.5 -50.5t49.5 -107.5q0 -27 -10 -58.5t-36 -58.5t-66.5 -45t-102.5 -18q-27 0 -57.5 3t-56 11t-43 18.5t-17.5 26.5q0 6 3 18.5t8 25.5t14.5 22.5t21.5 9.5q16 0 42 -14.5t77 -14.5q96 0 96 68q0 66 -98 75l-113 11l58 200h116z" />
<glyph unicode="&#xb9;" horiz-adv-x="395" d="M135 1303l-35 -21q-14 -8 -30 -8q-25 0 -40.5 21.5t-15.5 45.5q0 43 31 62l156 90q8 4 15 6t17 2q29 0 54.5 -15.5t25.5 -41.5v-711q0 -29 -27.5 -42t-60.5 -13q-35 0 -62.5 13.5t-27.5 41.5v570z" />
<glyph unicode="&#xba;" horiz-adv-x="704" d="M350 1556q59 0 113.5 -21.5t95.5 -59t64.5 -89t23.5 -108.5v-113q0 -55 -23.5 -105t-64.5 -89t-95 -62.5t-114 -23.5q-59 0 -112.5 23.5t-94.5 62.5t-64.5 89t-23.5 105v113q0 55 23.5 106.5t63.5 89t93.5 60t114.5 22.5zM471 1278q0 47 -35 85t-86 38q-49 0 -84 -38 t-35 -85v-113q0 -47 35 -86t84 -39q51 0 86 39t35 86v113z" />
<glyph unicode="&#xbb;" horiz-adv-x="1024" d="M680 567l-137 258q-6 8 -6 25q0 20 13 44t36.5 43t53.5 32.5t62 13.5q57 0 74 -35l152 -278q20 -39 33.5 -59.5t13.5 -45.5q0 -23 -13.5 -42t-33.5 -58l-152 -279q-16 -35 -74 -34q-33 0 -62.5 13t-53 32.5t-36.5 43t-13 44.5q0 14 6 26zM215 567l-137 258q-6 8 -6 25 q0 20 13 44t35.5 43t52.5 32.5t63 13.5q57 0 75 -35l150 -278q20 -39 33.5 -59.5t13.5 -45.5q0 -23 -13.5 -42t-33.5 -58l-150 -279q-18 -35 -73 -34q-33 0 -63 13t-53.5 32.5t-36.5 43t-13 44.5q0 14 6 26z" />
<glyph unicode="&#xbc;" horiz-adv-x="1361" d="M172 1303l-35 -21q-14 -8 -31 -8q-25 0 -40 21.5t-15 45.5q0 43 31 62l156 90q8 4 15 6t17 2q29 0 54.5 -15.5t25.5 -41.5v-711q0 -29 -27.5 -42t-60.5 -13q-35 0 -62.5 13.5t-27.5 41.5v570zM979 1579q35 0 68.5 -25.5t33.5 -66.5q0 -20 -8 -37l-737 -1487 q-10 -23 -31.5 -34t-48.5 -11q-43 0 -69.5 28.5t-26.5 61.5q0 14 8 35l737 1493q10 23 30.5 33t43.5 10zM1036 172h-286q-25 0 -41.5 15.5t-16.5 45.5q0 16 8 33l283 508q14 23 33.5 34t40.5 11q12 0 26.5 -5t28.5 -13t23.5 -20.5t9.5 -26.5t-6 -23l-221 -397h118v78 q0 29 28 41t60 12q35 0 62.5 -12.5t27.5 -40.5v-78h54q29 0 41 -24.5t12 -55.5t-16.5 -56.5t-36.5 -25.5h-54v-119q0 -27 -27.5 -40t-62.5 -13q-33 0 -60.5 13.5t-27.5 39.5v119z" />
<glyph unicode="&#xbd;" horiz-adv-x="1339" d="M737 604q0 51 22.5 91t60.5 68t86 42t100 14q53 0 103 -15.5t89 -45t62.5 -72.5t23.5 -100q0 -59 -27.5 -105.5t-69.5 -84.5t-91 -68.5t-91 -57t-70 -50t-28 -48.5v-18h324q23 0 38 -22.5t15 -53.5t-15.5 -54.5t-37.5 -23.5h-430q-25 0 -51.5 14.5t-26.5 38.5v111 q0 43 28.5 81t71.5 72.5t92.5 67.5t92.5 64.5t71.5 64.5t28.5 68q0 27 -23.5 52t-76.5 25q-41 0 -69 -18t-28 -66q0 -23 -25.5 -43t-68.5 -20q-35 0 -57.5 19.5t-22.5 72.5zM166 1303l-35 -21q-14 -8 -31 -8q-25 0 -40 21.5t-15 45.5q0 43 31 62l155 90q8 4 15.5 6t17.5 2 q29 0 54.5 -15.5t25.5 -41.5v-711q0 -29 -27.5 -42t-60.5 -13q-35 0 -62.5 13.5t-27.5 41.5v570zM940 1579q35 0 68.5 -25.5t33.5 -66.5q0 -20 -8 -37l-737 -1487q-10 -23 -31.5 -34t-48.5 -11q-43 0 -69.5 28.5t-26.5 61.5q0 14 8 35l737 1493q10 23 30.5 33t43.5 10z" />
<glyph unicode="&#xbe;" horiz-adv-x="1636" d="M346 825q66 0 92.5 23.5t26.5 77.5v20q0 57 -35 72.5t-88 15.5q-31 0 -42 21.5t-11 46.5q0 27 11 47t42 22q18 0 36.5 3.5t33 12.5t22.5 27.5t8 51.5q0 49 -27.5 65.5t-68.5 16.5q-51 0 -74.5 -12.5t-23.5 -45.5q0 -29 -16.5 -46t-65.5 -17q-59 0 -74.5 14t-15.5 55 q0 33 13 69t44 64.5t83 48t130 19.5q57 0 105.5 -10t83 -33.5t55 -62.5t20.5 -97q0 -61 -23.5 -112.5t-70.5 -71.5q55 -18 89 -57t34 -107v-20q0 -70 -23.5 -118t-63.5 -79t-95.5 -44t-116.5 -13q-76 0 -130 20.5t-88 51t-49.5 68.5t-15.5 73q0 39 17.5 51t64.5 12 q55 0 72.5 -13t17.5 -44q0 -37 35 -51.5t82 -14.5zM1311 172h-287q-25 0 -41 15.5t-16 45.5q0 16 8 33l282 508q14 23 34 34t40 11q12 0 26.5 -5t29 -13t23.5 -20.5t9 -26.5t-6 -23l-221 -397h119v78q0 29 27.5 41t60.5 12q35 0 62.5 -12.5t27.5 -40.5v-78h53q29 0 41 -24.5 t12 -55.5t-16 -56.5t-37 -25.5h-53v-119q0 -27 -27.5 -40t-62.5 -13q-33 0 -60.5 13.5t-27.5 39.5v119zM1239 1579q35 0 68.5 -25.5t33.5 -66.5q0 -20 -8 -37l-737 -1487q-10 -23 -31.5 -34t-48.5 -11q-43 0 -69.5 28.5t-26.5 61.5q0 14 8 35l737 1493q10 23 30.5 33 t43.5 10z" />
<glyph unicode="&#xbf;" horiz-adv-x="892" d="M51 334q0 80 29 144.5t68.5 114.5t79.5 86t65 54q37 29 57.5 58.5t30.5 61.5t12 70t2 83q0 29 20.5 51t82.5 22q53 0 74.5 -24.5t21.5 -89.5q0 -72 -11.5 -124.5t-29.5 -91t-41 -64.5t-43 -46q-27 -25 -61.5 -52.5t-65.5 -59t-52.5 -72.5t-21.5 -95q0 -86 58.5 -130 t152.5 -44q76 0 114 22.5t61.5 48.5t41 48.5t52.5 22.5t68.5 -24.5t33.5 -74.5q0 -37 -23.5 -78.5t-71.5 -78.5t-119 -60.5t-163 -23.5q-98 0 -176 26.5t-132 72.5t-84 109.5t-30 137.5zM496 1225q-57 0 -98.5 41t-41.5 100q0 55 40 97t100 42q59 0 98 -42t39 -97 q0 -59 -40 -100t-97 -41z" />
<glyph unicode="&#xc0;" horiz-adv-x="1177" d="M186 0q-27 0 -56.5 8t-54 22.5t-41 35t-16.5 45.5q0 4 5 20l395 1288q14 47 63 68.5t107 21.5q59 0 108 -21.5t64 -68.5l395 -1288q4 -16 4 -20q0 -25 -16.5 -44.5t-41 -35t-54 -23.5t-56.5 -8q-35 0 -58.5 12.5t-31.5 40.5l-78 273h-469l-78 -273q-8 -29 -31.5 -41 t-58.5 -12zM766 535l-178 628l-178 -628h356zM389 1798q-20 10 -28.5 26.5t-8.5 35.5q0 35 23.5 67.5t58.5 32.5q6 0 12.5 -1t14.5 -3l270 -131q35 -18 35 -64q0 -35 -23.5 -67.5t-58.5 -32.5q-8 0 -14 2t-15 6z" />
<glyph unicode="&#xc1;" horiz-adv-x="1177" d="M186 0q-27 0 -56.5 8t-54 22.5t-41 35t-16.5 45.5q0 4 5 20l395 1288q14 47 63 68.5t107 21.5q59 0 108 -21.5t64 -68.5l395 -1288q4 -16 4 -20q0 -25 -16.5 -44.5t-41 -35t-54 -23.5t-56.5 -8q-35 0 -58.5 12.5t-31.5 40.5l-78 273h-469l-78 -273q-8 -29 -31.5 -41 t-58.5 -12zM766 535l-178 628l-178 -628h356zM551 1669q-8 -4 -14.5 -6t-14.5 -2q-35 0 -58.5 32.5t-23.5 67.5q0 45 35 64l270 131q8 2 14.5 3t12.5 1q35 0 58.5 -33t23.5 -67q0 -18 -8 -35t-29 -27z" />
<glyph unicode="&#xc2;" horiz-adv-x="1177" d="M186 0q-27 0 -56.5 8t-54 22.5t-41 35t-16.5 45.5q0 4 5 20l395 1288q14 47 63 68.5t107 21.5q59 0 108 -21.5t64 -68.5l395 -1288q4 -16 4 -20q0 -25 -16.5 -44.5t-41 -35t-54 -23.5t-56.5 -8q-35 0 -58.5 12.5t-31.5 40.5l-78 273h-469l-78 -273q-8 -29 -31.5 -41 t-58.5 -12zM766 535l-178 628l-178 -628h356zM375 1683q-12 -6 -23 -6q-25 0 -41 24.5t-16 57.5q0 23 10 43.5t35 32.5l213 115q16 10 35 10q14 0 35 -10l213 -113q23 -14 33 -35.5t10 -44.5q0 -31 -16.5 -55.5t-41.5 -24.5q-12 0 -20 6l-213 115z" />
<glyph unicode="&#xc3;" horiz-adv-x="1177" d="M186 0q-27 0 -56.5 8t-54 22.5t-41 35t-16.5 45.5q0 4 5 20l395 1288q14 47 63 68.5t107 21.5q59 0 108 -21.5t64 -68.5l395 -1288q4 -16 4 -20q0 -25 -16.5 -44.5t-41 -35t-54 -23.5t-56.5 -8q-35 0 -58.5 12.5t-31.5 40.5l-78 273h-469l-78 -273q-8 -29 -31.5 -41 t-58.5 -12zM766 535l-178 628l-178 -628h356zM473 1761q-33 0 -56.5 -8t-43 -17.5t-35.5 -16.5t-33 -7q-20 0 -33.5 10.5t-20.5 24.5t-10 28.5t-3 22.5q0 47 20.5 75t49 42t58 18t48.5 4q45 0 79.5 -9t68.5 -20.5t68 -20.5t75 -9q33 0 57 7t42.5 16.5t34 17.5t31.5 8 q20 0 32.5 -10t21 -24.5t11.5 -29t3 -22.5q0 -47 -20.5 -74.5t-49 -42t-58.5 -18.5t-46 -4q-51 0 -88 9t-70 20.5t-63.5 20.5t-69.5 9z" />
<glyph unicode="&#xc4;" horiz-adv-x="1177" d="M186 0q-27 0 -56.5 8t-54 22.5t-41 35t-16.5 45.5q0 4 5 20l395 1288q14 47 63 68.5t107 21.5q59 0 108 -21.5t64 -68.5l395 -1288q4 -16 4 -20q0 -25 -16.5 -44.5t-41 -35t-54 -23.5t-56.5 -8q-35 0 -58.5 12.5t-31.5 40.5l-78 273h-469l-78 -273q-8 -29 -31.5 -41 t-58.5 -12zM766 535l-178 628l-178 -628h356zM438 1894q43 0 73 -31.5t30 -74.5t-30 -76t-73 -33t-73.5 33t-30.5 76t30.5 74.5t73.5 31.5zM745 1894q41 0 72 -31.5t31 -74.5t-31 -76t-72 -33q-45 0 -75.5 33t-30.5 76t30.5 74.5t75.5 31.5z" />
<glyph unicode="&#xc5;" horiz-adv-x="1177" d="M186 0q-27 0 -56.5 8t-54 22.5t-41 35t-16.5 45.5q0 4 5 20l395 1288q14 47 63 68.5t107 21.5q59 0 108 -21.5t64 -68.5l395 -1288q4 -16 4 -20q0 -25 -16.5 -44.5t-41 -35t-54 -23.5t-56.5 -8q-35 0 -58.5 12.5t-31.5 40.5l-78 273h-469l-78 -273q-8 -29 -31.5 -41 t-58.5 -12zM766 535l-178 628l-178 -628h356zM586 2073q41 0 77.5 -16.5t64.5 -45.5t44 -65.5t16 -75.5q0 -41 -16 -78t-45 -65.5t-65.5 -46t-75.5 -17.5q-41 0 -77 17.5t-62.5 46t-43 65.5t-16.5 78q0 39 15.5 75.5t42 64.5t63.5 45.5t78 17.5zM678 1868q0 35 -25.5 63.5 t-64.5 28.5q-41 0 -68.5 -28.5t-27.5 -63.5t27.5 -67t68.5 -32q39 0 64.5 31t25.5 68z" />
<glyph unicode="&#xc6;" horiz-adv-x="1611" d="M1028 854h244q41 0 62.5 -33t21.5 -73q0 -35 -20.5 -69t-63.5 -34h-244v-412h467q41 0 62.5 -35.5t21.5 -82.5q0 -41 -19.5 -78t-64.5 -37h-616q-45 0 -81 21.5t-36 62.5v561h-393v-551q0 -20 -4.5 -37.5t-18.5 -30t-40.5 -19.5t-69.5 -7q-66 0 -92.5 26.5t-26.5 67.5 v934q0 129 36.5 218t99 144.5t147.5 81t184 25.5h911q45 0 64.5 -37t19.5 -78q0 -47 -21.5 -82.5t-62.5 -35.5h-467v-410zM369 854h393v410h-178q-102 0 -158.5 -57.5t-56.5 -178.5v-174z" />
<glyph unicode="&#xc7;" horiz-adv-x="1126" d="M803 1061q-2 25 -8.5 58.5t-28 66.5t-62 55.5t-114.5 22.5q-104 0 -159.5 -57.5t-55.5 -178.5v-571q0 -121 56 -178.5t163 -57.5q70 0 110.5 22.5t61 55.5t28 71t9.5 70q4 47 41 65.5t90 18.5q70 0 102.5 -26.5t32.5 -104.5q0 -84 -29.5 -153.5t-85 -121.5t-131 -85 t-168.5 -41l-30 -96q104 -4 153 -50.5t49 -107.5q0 -27 -10 -58.5t-35.5 -58.5t-66.5 -45t-103 -18q-27 0 -57.5 3t-56 11t-43 18.5t-17.5 26.5q0 6 3 18.5t8.5 25.5t14.5 22.5t21 9.5q16 0 42 -14.5t77 -14.5q96 0 96 68q0 66 -98 75l-113 11l50 172q-90 4 -168 32.5 t-136.5 84t-92 142.5t-33.5 208v571q0 129 37.5 218t102 144.5t150.5 81t183 25.5q106 0 196 -27.5t154.5 -78t100.5 -123t36 -160.5q0 -80 -32.5 -105.5t-100.5 -25.5q-57 0 -94 18.5t-39 65.5z" />
<glyph unicode="&#xc8;" horiz-adv-x="1083" d="M389 854h311q41 0 62.5 -33t21.5 -73q0 -35 -20.5 -69t-63.5 -34h-311v-412h580q41 0 62.5 -35.5t21.5 -82.5q0 -41 -20.5 -78t-63.5 -37h-729q-45 0 -81 21.5t-36 62.5v1329q0 41 36 62.5t81 21.5h729q43 0 63.5 -37t20.5 -78q0 -47 -21.5 -82.5t-62.5 -35.5h-580v-410z M408 1798q-20 10 -28.5 26.5t-8.5 35.5q0 35 23.5 67.5t58.5 32.5q6 0 12 -1t14 -3l271 -131q35 -18 34 -64q0 -35 -23.5 -67.5t-58.5 -32.5q-8 0 -14 2t-14 6z" />
<glyph unicode="&#xc9;" horiz-adv-x="1083" d="M530 1669q-8 -4 -14 -6t-14 -2q-35 0 -58.5 32.5t-23.5 67.5q0 45 35 64l270 131q8 2 14 3t13 1q35 0 58.5 -33t23.5 -67q0 -18 -8.5 -35t-28.5 -27zM389 854h311q41 0 62.5 -33t21.5 -73q0 -35 -20.5 -69t-63.5 -34h-311v-412h580q41 0 62.5 -35.5t21.5 -82.5 q0 -41 -20.5 -78t-63.5 -37h-729q-45 0 -81 21.5t-36 62.5v1329q0 41 36 62.5t81 21.5h729q43 0 63.5 -37t20.5 -78q0 -47 -21.5 -82.5t-62.5 -35.5h-580v-410z" />
<glyph unicode="&#xca;" horiz-adv-x="1085" d="M391 1683q-12 -6 -22 -6q-25 0 -41.5 24.5t-16.5 57.5q0 23 10.5 43.5t34.5 32.5l213 115q16 10 35 10q14 0 35 -10l213 -113q23 -14 33 -35.5t10 -44.5q0 -31 -16.5 -55.5t-40.5 -24.5q-12 0 -21 6l-213 115zM389 854h311q41 0 62.5 -33t21.5 -73q0 -35 -20.5 -69 t-63.5 -34h-311v-412h580q41 0 62.5 -35.5t21.5 -82.5q0 -41 -20.5 -78t-63.5 -37h-729q-45 0 -81 21.5t-36 62.5v1329q0 41 36 62.5t81 21.5h729q43 0 63.5 -37t20.5 -78q0 -47 -21.5 -82.5t-62.5 -35.5h-580v-410z" />
<glyph unicode="&#xcb;" horiz-adv-x="1085" d="M440 1894q43 0 73 -31.5t30 -74.5t-30 -76t-73 -33t-73.5 33t-30.5 76t30.5 74.5t73.5 31.5zM748 1894q41 0 71.5 -31.5t30.5 -74.5t-31 -76t-71 -33q-45 0 -76 33t-31 76t31 74.5t76 31.5zM389 854h311q41 0 62.5 -33t21.5 -73q0 -35 -20.5 -69t-63.5 -34h-311v-412h580 q41 0 62.5 -35.5t21.5 -82.5q0 -41 -20.5 -78t-63.5 -37h-729q-45 0 -81 21.5t-36 62.5v1329q0 41 36 62.5t81 21.5h729q43 0 63.5 -37t20.5 -78q0 -47 -21.5 -82.5t-62.5 -35.5h-580v-410z" />
<glyph unicode="&#xcc;" horiz-adv-x="512" d="M123 1415q0 43 41 62.5t92 19.5q49 0 91 -19.5t42 -62.5v-1331q0 -41 -42 -62.5t-91 -21.5q-51 0 -92 21.5t-41 62.5v1331zM72 1798q-20 10 -28.5 26.5t-8.5 35.5q0 35 23.5 67.5t58.5 32.5q6 0 12 -1t14 -3l271 -131q35 -18 35 -64q0 -35 -24 -67.5t-58 -32.5 q-8 0 -14.5 2t-14.5 6z" />
<glyph unicode="&#xcd;" horiz-adv-x="512" d="M123 1415q0 43 41 62.5t92 19.5q49 0 91 -19.5t42 -62.5v-1331q0 -41 -42 -62.5t-91 -21.5q-51 0 -92 21.5t-41 62.5v1331zM174 1669q-8 -4 -14 -6t-15 -2q-35 0 -58.5 32.5t-23.5 67.5q0 45 35 64l271 131q8 2 14 3t12 1q35 0 58.5 -33t23.5 -67q0 -18 -8 -35t-29 -27z " />
<glyph unicode="&#xce;" horiz-adv-x="512" d="M123 1415q0 43 41 62.5t92 19.5q49 0 91 -19.5t42 -62.5v-1331q0 -41 -42 -62.5t-91 -21.5q-51 0 -92 21.5t-41 62.5v1331zM47 1683q-12 -6 -22 -6q-25 0 -41.5 24.5t-16.5 57.5q0 23 10.5 43.5t34.5 32.5l213 115q16 10 35 10q14 0 35 -10l213 -113q23 -14 33 -35.5 t10 -44.5q0 -31 -16.5 -55.5t-40.5 -24.5q-12 0 -21 6l-213 115z" />
<glyph unicode="&#xcf;" horiz-adv-x="512" d="M123 1415q0 43 41 62.5t92 19.5q49 0 91 -19.5t42 -62.5v-1331q0 -41 -42 -62.5t-91 -21.5q-51 0 -92 21.5t-41 62.5v1331zM106 1894q43 0 73 -31.5t30 -74.5t-29.5 -76t-73.5 -33q-43 0 -73.5 33t-30.5 76t30.5 74.5t73.5 31.5zM414 1894q41 0 71.5 -31.5t30.5 -74.5 t-30.5 -76t-71.5 -33q-45 0 -76 33t-31 76t31 74.5t76 31.5z" />
<glyph unicode="&#xd0;" horiz-adv-x="1202" d="M616 1497q100 0 188.5 -25.5t154 -81t102.5 -144.5t37 -218v-559q0 -129 -37 -218t-102.5 -144.5t-153.5 -81t-189 -25.5h-362q-53 0 -85 24.5t-32 57.5v606h-84q-33 0 -50 28.5t-17 65.5t17 67t50 30h84v536q0 33 32 57.5t85 24.5h362zM403 1264v-385h158q35 0 52.5 -30 t17.5 -67t-17.5 -65.5t-52.5 -28.5h-158v-455h213q102 0 158.5 57.5t56.5 178.5v559q0 121 -56 178.5t-159 57.5h-213z" />
<glyph unicode="&#xd1;" horiz-adv-x="1239" d="M983 0q-47 0 -87 18.5t-67 65.5l-440 823v-823q0 -41 -42 -62.5t-91 -21.5q-51 0 -92 21.5t-41 62.5v1329q0 43 41 63.5t92 20.5q37 0 63.5 -5t48 -20.5t42 -43t45.5 -72.5l395 -764v823q0 43 41 62.5t92 19.5q49 0 91 -19.5t42 -62.5v-1331q0 -41 -42 -62.5t-91 -21.5z M489 1761q-33 0 -56 -8t-42.5 -17.5t-36 -16.5t-32.5 -7q-20 0 -34 10.5t-21 24.5t-10 28.5t-3 22.5q0 47 20.5 75t49 42t58.5 18t48 4q45 0 80 -9t68.5 -20.5t67.5 -20.5t75 -9q33 0 57.5 7t43 16.5t33.5 17.5t32 8q20 0 32.5 -10t20.5 -24.5t11 -29t3 -22.5 q0 -47 -20.5 -74.5t-49 -42t-58 -18.5t-46.5 -4q-51 0 -88 9t-69.5 20.5t-63.5 20.5t-70 9z" />
<glyph unicode="&#xd2;" horiz-adv-x="1171" d="M586 -12q-102 0 -189.5 25.5t-152 81t-101.5 144.5t-37 218v571q0 129 37 218t101.5 144.5t151.5 81t190 25.5q100 0 188 -25.5t153.5 -81t102.5 -144.5t37 -218v-571q0 -129 -37 -218t-102.5 -144.5t-153.5 -81t-188 -25.5zM801 1028q0 123 -57.5 179.5t-157.5 56.5 q-102 0 -157.5 -56.5t-55.5 -179.5v-571q0 -123 55 -179.5t158 -56.5q100 0 157.5 56.5t57.5 179.5v571zM391 1798q-20 10 -28.5 26.5t-8.5 35.5q0 35 23.5 67.5t58.5 32.5q6 0 12.5 -1t14.5 -3l270 -131q35 -18 35 -64q0 -35 -23.5 -67.5t-58.5 -32.5q-8 0 -14 2t-15 6z " />
<glyph unicode="&#xd3;" horiz-adv-x="1171" d="M561 1669q-8 -4 -14 -6t-15 -2q-35 0 -58 32.5t-23 67.5q0 45 34 64l271 131q8 2 14 3t12 1q35 0 58.5 -33t23.5 -67q0 -18 -8 -35t-29 -27zM586 -12q-102 0 -189.5 25.5t-152 81t-101.5 144.5t-37 218v571q0 129 37 218t101.5 144.5t151.5 81t190 25.5q100 0 188 -25.5 t153.5 -81t102.5 -144.5t37 -218v-571q0 -129 -37 -218t-102.5 -144.5t-153.5 -81t-188 -25.5zM801 1028q0 123 -57.5 179.5t-157.5 56.5q-102 0 -157.5 -56.5t-55.5 -179.5v-571q0 -123 55 -179.5t158 -56.5q100 0 157.5 56.5t57.5 179.5v571z" />
<glyph unicode="&#xd4;" horiz-adv-x="1171" d="M373 1683q-12 -6 -23 -6q-25 0 -41 24.5t-16 57.5q0 23 10 43.5t35 32.5l213 115q16 10 35 10q14 0 35 -10l213 -113q23 -14 33 -35.5t10 -44.5q0 -31 -16.5 -55.5t-41.5 -24.5q-12 0 -20 6l-213 115zM586 -12q-102 0 -189.5 25.5t-152 81t-101.5 144.5t-37 218v571 q0 129 37 218t101.5 144.5t151.5 81t190 25.5q100 0 188 -25.5t153.5 -81t102.5 -144.5t37 -218v-571q0 -129 -37 -218t-102.5 -144.5t-153.5 -81t-188 -25.5zM801 1028q0 123 -57.5 179.5t-157.5 56.5q-102 0 -157.5 -56.5t-55.5 -179.5v-571q0 -123 55 -179.5t158 -56.5 q100 0 157.5 56.5t57.5 179.5v571z" />
<glyph unicode="&#xd5;" horiz-adv-x="1171" d="M586 -12q-102 0 -189.5 25.5t-152 81t-101.5 144.5t-37 218v571q0 129 37 218t101.5 144.5t151.5 81t190 25.5q100 0 188 -25.5t153.5 -81t102.5 -144.5t37 -218v-571q0 -129 -37 -218t-102.5 -144.5t-153.5 -81t-188 -25.5zM801 1028q0 123 -57.5 179.5t-157.5 56.5 q-102 0 -157.5 -56.5t-55.5 -179.5v-571q0 -123 55 -179.5t158 -56.5q100 0 157.5 56.5t57.5 179.5v571zM471 1761q-33 0 -56.5 -8t-43 -17.5t-36 -16.5t-32.5 -7q-20 0 -33.5 10.5t-20.5 24.5t-10 28.5t-3 22.5q0 47 20 75t49 42t58.5 18t48.5 4q45 0 79.5 -9t68.5 -20.5 t68 -20.5t74 -9q33 0 57.5 7t43 16.5t34 17.5t31.5 8q20 0 32.5 -10t21 -24.5t11.5 -29t3 -22.5q0 -47 -20.5 -74.5t-49 -42t-58.5 -18.5t-46 -4q-51 0 -88 9t-70 20.5t-63.5 20.5t-69.5 9z" />
<glyph unicode="&#xd6;" horiz-adv-x="1171" d="M436 1894q43 0 73 -31.5t30 -74.5t-30 -76t-73 -33t-73.5 33t-30.5 76t30.5 74.5t73.5 31.5zM743 1894q41 0 72 -31.5t31 -74.5t-31 -76t-72 -33q-45 0 -75.5 33t-30.5 76t30.5 74.5t75.5 31.5zM586 -12q-102 0 -189.5 25.5t-152 81t-101.5 144.5t-37 218v571 q0 129 37 218t101.5 144.5t151.5 81t190 25.5q100 0 188 -25.5t153.5 -81t102.5 -144.5t37 -218v-571q0 -129 -37 -218t-102.5 -144.5t-153.5 -81t-188 -25.5zM801 1028q0 123 -57.5 179.5t-157.5 56.5q-102 0 -157.5 -56.5t-55.5 -179.5v-571q0 -123 55 -179.5t158 -56.5 q100 0 157.5 56.5t57.5 179.5v571z" />
<glyph unicode="&#xd7;" horiz-adv-x="833" d="M748 354q0 -23 -11.5 -44t-29 -38.5t-39 -29t-43.5 -11.5q-33 0 -54 21l-155 156l-154 -156q-20 -20 -53 -21q-20 0 -42 11.5t-40 29t-29.5 40t-11.5 44.5q0 31 20 52l173 155l-170 152q-20 25 -21 53q0 47 38 85t85 38q29 0 53 -21l152 -153l153 153q20 20 54 21 q47 0 84.5 -38t37.5 -83q0 -31 -20 -55l-170 -152l172 -155q21 -21 21 -54z" />
<glyph unicode="&#xd8;" horiz-adv-x="1173" d="M948 1579q37 0 70 -25.5t33 -66.5q0 -20 -9 -37l-59 -119q41 -55 62.5 -130t21.5 -173v-571q0 -129 -37 -218t-102.5 -144.5t-153.5 -81t-188 -25.5q-68 0 -129.5 10t-114.5 35l-35 -70q-10 -23 -32.5 -34t-47.5 -11q-45 0 -71.5 28.5t-26.5 61.5q0 18 10 35l54 107 q-41 55 -64 130.5t-23 176.5v571q0 129 37 218t101.5 144.5t151.5 81t190 25.5q68 0 130 -11t115 -36l43 86q10 23 30.5 33t43.5 10zM373 516l348 709q-51 39 -135 39q-102 0 -157.5 -56.5t-55.5 -179.5v-512zM801 961l-348 -705q49 -35 133 -35q100 0 157.5 56.5 t57.5 179.5v504z" />
<glyph unicode="&#xd9;" horiz-adv-x="1216" d="M834 1415q0 43 40.5 62.5t92.5 19.5q49 0 91 -19.5t42 -62.5v-958q0 -129 -38 -218t-104.5 -144.5t-156.5 -81t-193 -25.5q-104 0 -193 25.5t-155.5 81t-104.5 144.5t-38 218v958q0 43 41 62.5t92 19.5q49 0 91 -19.5t42 -62.5v-958q0 -121 59.5 -178.5t165.5 -57.5 t166 57.5t60 178.5v958zM403 1798q-20 10 -28 26.5t-8 35.5q0 35 23.5 67.5t58.5 32.5q6 0 12 -1t14 -3l270 -131q35 -18 35 -64q0 -35 -23.5 -67.5t-58.5 -32.5q-8 0 -14 2t-14 6z" />
<glyph unicode="&#xda;" horiz-adv-x="1216" d="M557 1669q-8 -4 -14 -6t-15 -2q-35 0 -58.5 32.5t-23.5 67.5q0 45 35 64l271 131q8 2 14 3t12 1q35 0 58.5 -33t23.5 -67q0 -18 -8 -35t-29 -27zM834 1415q0 43 40.5 62.5t92.5 19.5q49 0 91 -19.5t42 -62.5v-958q0 -129 -38 -218t-104.5 -144.5t-156.5 -81t-193 -25.5 q-104 0 -193 25.5t-155.5 81t-104.5 144.5t-38 218v958q0 43 41 62.5t92 19.5q49 0 91 -19.5t42 -62.5v-958q0 -121 59.5 -178.5t165.5 -57.5t166 57.5t60 178.5v958z" />
<glyph unicode="&#xdb;" horiz-adv-x="1216" d="M385 1683q-12 -6 -23 -6q-25 0 -41 24.5t-16 57.5q0 23 10.5 43.5t34.5 32.5l213 115q16 10 35 10q14 0 35 -10l213 -113q23 -14 33 -35.5t10 -44.5q0 -31 -16.5 -55.5t-41.5 -24.5q-12 0 -20 6l-213 115zM834 1415q0 43 40.5 62.5t92.5 19.5q49 0 91 -19.5t42 -62.5 v-958q0 -129 -38 -218t-104.5 -144.5t-156.5 -81t-193 -25.5q-104 0 -193 25.5t-155.5 81t-104.5 144.5t-38 218v958q0 43 41 62.5t92 19.5q49 0 91 -19.5t42 -62.5v-958q0 -121 59.5 -178.5t165.5 -57.5t166 57.5t60 178.5v958z" />
<glyph unicode="&#xdc;" horiz-adv-x="1216" d="M455 1894q43 0 72.5 -31.5t29.5 -74.5t-29.5 -76t-72.5 -33t-74 33t-31 76t31 74.5t74 31.5zM762 1894q41 0 71.5 -31.5t30.5 -74.5t-30.5 -76t-71.5 -33q-45 0 -76 33t-31 76t31 74.5t76 31.5zM834 1415q0 43 40.5 62.5t92.5 19.5q49 0 91 -19.5t42 -62.5v-958 q0 -129 -38 -218t-104.5 -144.5t-156.5 -81t-193 -25.5q-104 0 -193 25.5t-155.5 81t-104.5 144.5t-38 218v958q0 43 41 62.5t92 19.5q49 0 91 -19.5t42 -62.5v-958q0 -121 59.5 -178.5t165.5 -57.5t166 57.5t60 178.5v958z" />
<glyph unicode="&#xdd;" horiz-adv-x="1175" d="M455 600q0 16 -6 27l-424 733q-6 14 -7 26q0 25 17.5 45.5t44 35t57.5 22.5t58 8q33 0 50 -12t31 -41l312 -592l313 592q14 27 30.5 40t49.5 13q27 0 57.5 -8t57 -22.5t44 -35t17.5 -45.5q0 -4 -1 -11t-5 -15l-422 -733q-8 -12 -8 -27v-516q0 -41 -41 -62.5t-92 -21.5 q-49 0 -91 21.5t-42 62.5v516zM524 1669q-8 -4 -14 -6t-14 -2q-35 0 -58.5 32.5t-23.5 67.5q0 45 35 64l270 131q8 2 14 3t12 1q35 0 58.5 -33t23.5 -67q0 -18 -8 -35t-28 -27z" />
<glyph unicode="&#xde;" horiz-adv-x="1064" d="M250 1524q59 0 99 -22.5t40 -59.5v-324q33 59 100.5 107.5t163.5 48.5q74 0 140.5 -31t115.5 -85t78 -127t29 -159v-196q0 -84 -30 -158t-79 -129t-112.5 -87t-130.5 -32q-47 0 -90.5 13.5t-80 36t-63.5 51t-41 61.5v-348q0 -31 -40 -57.5t-95 -26.5q-57 0 -93 26.5 t-36 57.5v1358q0 37 36 59.5t89 22.5zM752 872q0 35 -14.5 66t-40 54.5t-58.5 36.5t-70 13q-35 0 -67.5 -12t-57 -33.5t-40 -53.5t-15.5 -71v-219q0 -18 13.5 -44.5t38 -50t58 -40t74.5 -16.5q35 0 67 13t56.5 36.5t40 55.5t15.5 69v196z" />
<glyph unicode="&#xdf;" horiz-adv-x="1228" d="M721 -41q-35 0 -71 3t-65.5 15.5t-48 37t-18.5 67.5q0 18 3 39.5t11.5 40t20.5 32t29 13.5q23 0 54.5 -12.5t82.5 -12.5q92 0 143 58.5t51 167.5v26q0 72 -18 123t-51 87t-79 57.5t-99 33.5q-37 10 -59.5 29.5t-22.5 79.5q0 57 21.5 72.5t62.5 25.5q35 6 55 27.5 t31.5 49.5t15.5 58.5t4 57.5q0 90 -38 148t-128 58q-45 0 -74.5 -15t-48 -39.5t-25.5 -57.5t-7 -68v-1079q0 -37 -41 -59.5t-95 -22.5q-53 0 -91 22.5t-38 59.5v698h-114q-35 0 -51.5 30t-16.5 67q0 35 16.5 65.5t51.5 30.5h114v188q0 82 21.5 157t69 131t124 90t185.5 34 q84 0 157.5 -22.5t128 -68.5t86 -118t31.5 -168q0 -102 -36.5 -194.5t-102.5 -127.5q55 -10 111.5 -43.5t102.5 -88t75.5 -127t29.5 -158.5v-27q0 -115 -36.5 -203t-98 -147.5t-143.5 -90t-172 -30.5z" />
<glyph unicode="&#xe0;" horiz-adv-x="964" d="M430 985q119 0 203 -33.5t137 -89t76.5 -127t23.5 -149.5v-502q0 -35 -36.5 -59.5t-92.5 -24.5q-51 0 -84.5 24.5t-33.5 59.5v59q-55 -63 -130 -112t-182 -49q-55 0 -103 16t-84 50t-57.5 85t-21.5 121q0 88 35 146.5t97.5 92t150.5 48t194 14.5h84v27q0 33 -9 66.5 t-30.5 60t-55.5 44t-85 17.5q-59 0 -96 -10t-61.5 -21.5t-41 -21.5t-34.5 -10q-45 0 -68 43t-23 88q0 31 31 58.5t79 47t105.5 30.5t112.5 11zM606 418h-31q-51 0 -99 -4t-85 -17.5t-59.5 -39t-22.5 -68.5q0 -57 31 -84t78 -27q31 0 64.5 16.5t61 44t45 63.5t17.5 73v43z M295 1300q-20 10 -28.5 26.5t-8.5 35.5q0 35 23.5 67.5t58.5 32.5q6 0 12 -1t15 -3l270 -131q35 -18 35 -63q0 -35 -23.5 -68t-58.5 -33q-8 0 -14.5 2t-14.5 6z" />
<glyph unicode="&#xe1;" horiz-adv-x="964" d="M430 985q119 0 203 -33.5t137 -89t76.5 -127t23.5 -149.5v-502q0 -35 -36.5 -59.5t-92.5 -24.5q-51 0 -84.5 24.5t-33.5 59.5v59q-55 -63 -130 -112t-182 -49q-55 0 -103 16t-84 50t-57.5 85t-21.5 121q0 88 35 146.5t97.5 92t150.5 48t194 14.5h84v27q0 33 -9 66.5 t-30.5 60t-55.5 44t-85 17.5q-59 0 -96 -10t-61.5 -21.5t-41 -21.5t-34.5 -10q-45 0 -68 43t-23 88q0 31 31 58.5t79 47t105.5 30.5t112.5 11zM606 418h-31q-51 0 -99 -4t-85 -17.5t-59.5 -39t-22.5 -68.5q0 -57 31 -84t78 -27q31 0 64.5 16.5t61 44t45 63.5t17.5 73v43z M401 1171q-8 -4 -14 -6t-14 -2q-35 0 -58.5 33t-23.5 68q0 45 35 63l270 131q8 2 14 3t13 1q35 0 58.5 -32.5t23.5 -67.5q0 -18 -8.5 -34.5t-28.5 -27.5z" />
<glyph unicode="&#xe2;" horiz-adv-x="964" d="M240 1186q-12 -6 -23 -6q-25 0 -41 24.5t-16 57.5q0 23 10 43t35 32l213 115q16 10 35 10q14 0 34 -10l213 -113q23 -14 33 -35.5t10 -43.5q0 -31 -16 -55.5t-41 -24.5q-12 0 -20 6l-213 114zM430 985q119 0 203 -33.5t137 -89t76.5 -127t23.5 -149.5v-502 q0 -35 -36.5 -59.5t-92.5 -24.5q-51 0 -84.5 24.5t-33.5 59.5v59q-55 -63 -130 -112t-182 -49q-55 0 -103 16t-84 50t-57.5 85t-21.5 121q0 88 35 146.5t97.5 92t150.5 48t194 14.5h84v27q0 33 -9 66.5t-30.5 60t-55.5 44t-85 17.5q-59 0 -96 -10t-61.5 -21.5t-41 -21.5 t-34.5 -10q-45 0 -68 43t-23 88q0 31 31 58.5t79 47t105.5 30.5t112.5 11zM606 418h-31q-51 0 -99 -4t-85 -17.5t-59.5 -39t-22.5 -68.5q0 -57 31 -84t78 -27q31 0 64.5 16.5t61 44t45 63.5t17.5 73v43z" />
<glyph unicode="&#xe3;" horiz-adv-x="964" d="M430 985q119 0 203 -33.5t137 -89t76.5 -127t23.5 -149.5v-502q0 -35 -36.5 -59.5t-92.5 -24.5q-51 0 -84.5 24.5t-33.5 59.5v59q-55 -63 -130 -112t-182 -49q-55 0 -103 16t-84 50t-57.5 85t-21.5 121q0 88 35 146.5t97.5 92t150.5 48t194 14.5h84v27q0 33 -9 66.5 t-30.5 60t-55.5 44t-85 17.5q-59 0 -96 -10t-61.5 -21.5t-41 -21.5t-34.5 -10q-45 0 -68 43t-23 88q0 31 31 58.5t79 47t105.5 30.5t112.5 11zM606 418h-31q-51 0 -99 -4t-85 -17.5t-59.5 -39t-22.5 -68.5q0 -57 31 -84t78 -27q31 0 64.5 16.5t61 44t45 63.5t17.5 73v43z M350 1264q-33 0 -56.5 -8.5t-43 -17.5t-35.5 -16.5t-33 -7.5q-20 0 -33.5 10.5t-20.5 25t-10 28.5t-3 22q0 47 20.5 75t49 42.5t58 18.5t48.5 4q45 0 80 -9.5t68.5 -20.5t67.5 -20.5t75 -9.5q33 0 57.5 7.5t42.5 16.5t33.5 17.5t32.5 8.5q20 0 32.5 -10.5t20.5 -25t11 -28.5 t3 -23q0 -47 -20.5 -74.5t-49 -42t-58.5 -18.5t-46 -4q-51 0 -88 9.5t-69.5 20.5t-63.5 20.5t-70 9.5z" />
<glyph unicode="&#xe4;" horiz-adv-x="964" d="M309 1397q43 0 73 -32t30 -75t-30 -75.5t-73 -32.5t-73.5 32.5t-30.5 75.5t30.5 75t73.5 32zM616 1397q41 0 72 -32t31 -75t-31 -75.5t-72 -32.5q-45 0 -75.5 32.5t-30.5 75.5t30.5 75t75.5 32zM430 985q119 0 203 -33.5t137 -89t76.5 -127t23.5 -149.5v-502 q0 -35 -36.5 -59.5t-92.5 -24.5q-51 0 -84.5 24.5t-33.5 59.5v59q-55 -63 -130 -112t-182 -49q-55 0 -103 16t-84 50t-57.5 85t-21.5 121q0 88 35 146.5t97.5 92t150.5 48t194 14.5h84v27q0 33 -9 66.5t-30.5 60t-55.5 44t-85 17.5q-59 0 -96 -10t-61.5 -21.5t-41 -21.5 t-34.5 -10q-45 0 -68 43t-23 88q0 31 31 58.5t79 47t105.5 30.5t112.5 11zM606 418h-31q-51 0 -99 -4t-85 -17.5t-59.5 -39t-22.5 -68.5q0 -57 31 -84t78 -27q31 0 64.5 16.5t61 44t45 63.5t17.5 73v43z" />
<glyph unicode="&#xe5;" horiz-adv-x="964" d="M430 985q119 0 203 -33.5t137 -89t76.5 -127t23.5 -149.5v-502q0 -35 -36.5 -59.5t-92.5 -24.5q-51 0 -84.5 24.5t-33.5 59.5v59q-55 -63 -130 -112t-182 -49q-55 0 -103 16t-84 50t-57.5 85t-21.5 121q0 88 35 146.5t97.5 92t150.5 48t194 14.5h84v27q0 33 -9 66.5 t-30.5 60t-55.5 44t-85 17.5q-59 0 -96 -10t-61.5 -21.5t-41 -21.5t-34.5 -10q-45 0 -68 43t-23 88q0 31 31 58.5t79 47t105.5 30.5t112.5 11zM606 418h-31q-51 0 -99 -4t-85 -17.5t-59.5 -39t-22.5 -68.5q0 -57 31 -84t78 -27q31 0 64.5 16.5t61 44t45 63.5t17.5 73v43z M465 1575q41 0 78 -16.5t64.5 -45t44 -65.5t16.5 -76q0 -41 -16.5 -78t-45 -65.5t-65.5 -46t-76 -17.5q-41 0 -77 17.5t-62.5 46t-43 65.5t-16.5 78q0 39 15.5 76t42 64.5t63.5 45t78 17.5zM557 1370q0 35 -25.5 63.5t-64.5 28.5q-41 0 -68.5 -28.5t-27.5 -63.5t27.5 -66.5 t68.5 -31.5q39 0 64.5 30.5t25.5 67.5z" />
<glyph unicode="&#xe6;" horiz-adv-x="1531" d="M1053 985q82 0 158.5 -26.5t135 -77t94.5 -123t36 -164.5q0 -61 -15.5 -96t-41 -53.5t-61.5 -22.5t-75 -4h-414v-31q0 -90 67 -143.5t171 -53.5q51 0 88 12.5t66.5 27t53 26.5t46.5 12t41 -12t30.5 -29.5t19.5 -38t7 -36.5q0 -29 -27.5 -59t-75.5 -54.5t-114.5 -40.5 t-146.5 -16q-121 0 -218.5 51t-160.5 145q-72 -92 -167 -144t-192 -52q-63 0 -119.5 16t-99.5 50t-68.5 84t-25.5 120q0 88 35 147.5t97.5 93t150.5 48t194 14.5h82v29q0 33 -9 66.5t-30.5 60t-55.5 44t-85 17.5q-59 0 -95 -10t-60.5 -22.5t-41 -22.5t-34.5 -10 q-45 0 -69 43t-24 90q0 31 31 57.5t79 46t106.5 30.5t113.5 11q115 0 193.5 -44t126.5 -116q57 72 134 116t169 44zM1169 573q35 0 47.5 11.5t12.5 42.5q0 74 -53.5 119t-126.5 45q-72 0 -125.5 -43t-53.5 -117v-58h299zM604 418h-31q-51 0 -99 -4t-85 -17.5t-58.5 -40 t-21.5 -69.5q0 -55 31 -82t78 -27q33 0 65.5 16.5t59 44t44 63.5t17.5 73v43z" />
<glyph unicode="&#xe7;" horiz-adv-x="888" d="M852 150q0 -29 -21.5 -56.5t-60.5 -50.5t-91 -38t-116 -21l-26 -88q104 -4 153 -50.5t49 -107.5q0 -27 -10 -58.5t-35.5 -58.5t-66.5 -45t-103 -18q-27 0 -57.5 3t-56 11t-43 18.5t-17.5 26.5q0 6 3 18.5t8.5 25.5t14.5 22.5t21 9.5q16 0 42 -14.5t77 -14.5q96 0 96 68 q0 66 -98 75l-113 11l48 168q-98 8 -170 42.5t-118 90t-68.5 127t-22.5 155.5v164q0 88 25.5 165t79.5 133.5t137 89t200 32.5q72 0 132.5 -13.5t103.5 -36t67.5 -51t24.5 -59.5q0 -18 -7.5 -40.5t-21.5 -42t-32.5 -33t-43.5 -13.5q-16 0 -33.5 9.5t-40 19.5t-53 19.5 t-76.5 9.5q-104 0 -151 -49.5t-47 -139.5v-164q0 -90 47 -139t154 -49q45 0 75.5 9t53 21.5t40 21.5t35.5 9q27 0 48.5 -12t36 -30.5t21.5 -41t7 -40.5z" />
<glyph unicode="&#xe8;" horiz-adv-x="991" d="M514 985q84 0 161 -28.5t135 -79t92 -121t34 -156.5q0 -66 -16.5 -102.5t-44 -54t-61.5 -21.5t-69 -4h-415v-31q0 -90 65.5 -143.5t173.5 -53.5q51 0 88 12.5t66 27t52.5 26.5t45.5 12q23 0 41.5 -12t31.5 -30.5t20.5 -39t7.5 -34.5q0 -27 -26 -56.5t-73 -55.5 t-113.5 -42t-148.5 -16q-109 0 -200 29.5t-156.5 85t-102 133t-36.5 171.5v174q0 82 34.5 157t95 131.5t142.5 89t176 32.5zM629 573q33 0 46 10.5t13 45.5q0 72 -53 117t-127 45q-70 0 -124 -43t-54 -117v-58h299zM313 1300q-20 10 -28.5 26.5t-8.5 35.5q0 35 24 67.5 t58 32.5q6 0 12.5 -1t14.5 -3l270 -131q35 -18 35 -63q0 -35 -23.5 -68t-58.5 -33q-8 0 -14 2t-14 6z" />
<glyph unicode="&#xe9;" horiz-adv-x="991" d="M420 1171q-8 -4 -14.5 -6t-14.5 -2q-35 0 -58.5 33t-23.5 68q0 45 35 63l270 131q8 2 14.5 3t12.5 1q35 0 58.5 -32.5t23.5 -67.5q0 -18 -8 -34.5t-29 -27.5zM514 985q84 0 161 -28.5t135 -79t92 -121t34 -156.5q0 -66 -16.5 -102.5t-44 -54t-61.5 -21.5t-69 -4h-415v-31 q0 -90 65.5 -143.5t173.5 -53.5q51 0 88 12.5t66 27t52.5 26.5t45.5 12q23 0 41.5 -12t31.5 -30.5t20.5 -39t7.5 -34.5q0 -27 -26 -56.5t-73 -55.5t-113.5 -42t-148.5 -16q-109 0 -200 29.5t-156.5 85t-102 133t-36.5 171.5v174q0 82 34.5 157t95 131.5t142.5 89t176 32.5z M629 573q33 0 46 10.5t13 45.5q0 72 -53 117t-127 45q-70 0 -124 -43t-54 -117v-58h299z" />
<glyph unicode="&#xea;" horiz-adv-x="991" d="M297 1186q-12 -6 -23 -6q-25 0 -41 24.5t-16 57.5q0 23 10.5 43t34.5 32l213 115q16 10 35 10q14 0 35 -10l213 -113q23 -14 33 -35.5t10 -43.5q0 -31 -16.5 -55.5t-41.5 -24.5q-12 0 -20 6l-213 114zM514 985q84 0 161 -28.5t135 -79t92 -121t34 -156.5 q0 -66 -16.5 -102.5t-44 -54t-61.5 -21.5t-69 -4h-415v-31q0 -90 65.5 -143.5t173.5 -53.5q51 0 88 12.5t66 27t52.5 26.5t45.5 12q23 0 41.5 -12t31.5 -30.5t20.5 -39t7.5 -34.5q0 -27 -26 -56.5t-73 -55.5t-113.5 -42t-148.5 -16q-109 0 -200 29.5t-156.5 85t-102 133 t-36.5 171.5v174q0 82 34.5 157t95 131.5t142.5 89t176 32.5zM629 573q33 0 46 10.5t13 45.5q0 72 -53 117t-127 45q-70 0 -124 -43t-54 -117v-58h299z" />
<glyph unicode="&#xeb;" horiz-adv-x="991" d="M354 1397q43 0 73 -32t30 -75t-30 -75.5t-73 -32.5t-73.5 32.5t-30.5 75.5t30.5 75t73.5 32zM662 1397q41 0 71.5 -32t30.5 -75t-31 -75.5t-71 -32.5q-45 0 -76 32.5t-31 75.5t31 75t76 32zM514 985q84 0 161 -28.5t135 -79t92 -121t34 -156.5q0 -66 -16.5 -102.5 t-44 -54t-61.5 -21.5t-69 -4h-415v-31q0 -90 65.5 -143.5t173.5 -53.5q51 0 88 12.5t66 27t52.5 26.5t45.5 12q23 0 41.5 -12t31.5 -30.5t20.5 -39t7.5 -34.5q0 -27 -26 -56.5t-73 -55.5t-113.5 -42t-148.5 -16q-109 0 -200 29.5t-156.5 85t-102 133t-36.5 171.5v174 q0 82 34.5 157t95 131.5t142.5 89t176 32.5zM629 573q33 0 46 10.5t13 45.5q0 72 -53 117t-127 45q-70 0 -124 -43t-54 -117v-58h299z" />
<glyph unicode="&#xec;" horiz-adv-x="468" d="M233 973q55 0 94.5 -22.5t39.5 -59.5v-807q0 -31 -39 -57.5t-95 -26.5q-57 0 -94 26.5t-37 57.5v807q0 37 37 59.5t94 22.5zM33 1300q-20 10 -28.5 26.5t-8.5 35.5q0 35 23.5 67.5t58.5 32.5q6 0 12 -1t14 -3l271 -131q35 -18 35 -63q0 -35 -24 -68t-58 -33q-8 0 -14.5 2 t-14.5 6z" />
<glyph unicode="&#xed;" horiz-adv-x="468" d="M172 1171q-8 -4 -14 -6t-15 -2q-35 0 -58.5 33t-23.5 68q0 45 35 63l271 131q8 2 14 3t12 1q35 0 58.5 -32.5t23.5 -67.5q0 -18 -8 -34.5t-29 -27.5zM233 973q55 0 94.5 -22.5t39.5 -59.5v-807q0 -31 -39 -57.5t-95 -26.5q-57 0 -94 26.5t-37 57.5v807q0 37 37 59.5 t94 22.5z" />
<glyph unicode="&#xee;" horiz-adv-x="468" d="M23 1186q-12 -6 -23 -6q-25 0 -41 24.5t-16 57.5q0 23 10 43t35 32l213 115q16 10 35 10q14 0 34 -10l213 -113q23 -14 33 -35.5t10 -43.5q0 -31 -16 -55.5t-41 -24.5q-12 0 -20 6l-213 114zM233 973q55 0 94.5 -22.5t39.5 -59.5v-807q0 -31 -39 -57.5t-95 -26.5 q-57 0 -94 26.5t-37 57.5v807q0 37 37 59.5t94 22.5z" />
<glyph unicode="&#xef;" horiz-adv-x="468" d="M88 1397q43 0 72.5 -32t29.5 -75t-29.5 -75.5t-72.5 -32.5t-73.5 32.5t-30.5 75.5t30.5 75t73.5 32zM395 1397q41 0 72 -32t31 -75t-31 -75.5t-72 -32.5q-45 0 -75.5 32.5t-30.5 75.5t30.5 75t75.5 32zM233 973q55 0 94.5 -22.5t39.5 -59.5v-807q0 -31 -39 -57.5 t-95 -26.5q-57 0 -94 26.5t-37 57.5v807q0 37 37 59.5t94 22.5z" />
<glyph unicode="&#xf0;" horiz-adv-x="1048" d="M819 1274q66 -127 102.5 -276.5t36.5 -284.5v-312q0 -84 -35.5 -159.5t-97 -133t-142.5 -92t-171 -34.5t-171 34.5t-142.5 93t-97 134t-35.5 157.5v168q0 86 28.5 161t77.5 132.5t114.5 90t141.5 32.5q92 0 164 -47t102 -113q-4 92 -29.5 172t-62.5 144l-108 -64 q-10 -8 -27 -8q-35 0 -64.5 35t-29.5 72q0 33 30 51l95 55q-16 18 -37 27.5t-39 13.5q-20 16 -37.5 36.5t-17.5 55.5q0 16 6 39t21.5 42.5t41 32.5t62.5 13q59 0 117.5 -31.5t109.5 -91.5l115 70q12 6 26 6q35 0 62.5 -34t27.5 -68q0 -37 -28 -54zM330 401q0 -37 14 -70.5 t39 -59t58.5 -42t70.5 -16.5q39 0 71.5 16.5t57.5 42t39 59.5t14 70v170q0 39 -15 73t-42 58.5t-59.5 38t-67.5 13.5q-39 0 -71.5 -15.5t-57.5 -42t-38 -59.5t-13 -68v-168z" />
<glyph unicode="&#xf1;" horiz-adv-x="1071" d="M418 1264q-33 0 -56.5 -8.5t-43 -17.5t-36 -16.5t-32.5 -7.5q-20 0 -33.5 10.5t-21 25t-10.5 28.5t-3 22q0 47 20.5 75t49.5 42.5t58.5 18.5t47.5 4q45 0 80 -9.5t69 -20.5t67.5 -20.5t74.5 -9.5q33 0 57.5 7.5t43 16.5t34 17.5t31.5 8.5q20 0 32.5 -10.5t21 -25 t11.5 -28.5t3 -23q0 -47 -20.5 -74.5t-49.5 -42t-58.5 -18.5t-45.5 -4q-51 0 -88 9.5t-70 20.5t-63.5 20.5t-69.5 9.5zM367 84q0 -31 -40 -57.5t-94 -26.5q-59 0 -95 26.5t-36 57.5v807q0 37 36 59.5t95 22.5q47 0 82 -22.5t35 -59.5v-62q29 59 100.5 107.5t174.5 48.5 q70 0 134 -32.5t112.5 -90t77 -132.5t28.5 -161v-485q0 -41 -42 -62.5t-91 -21.5q-47 0 -89 21.5t-42 62.5v485q0 35 -14.5 68t-38 59.5t-56.5 42t-69 15.5q-63 0 -115.5 -49.5t-52.5 -135.5v-485z" />
<glyph unicode="&#xf2;" horiz-adv-x="1019" d="M510 985q88 0 169 -32.5t142.5 -90t97 -132.5t35.5 -161v-168q0 -82 -35.5 -157.5t-97 -134t-142.5 -93t-169 -34.5q-90 0 -171 34.5t-141.5 92t-96 133t-35.5 159.5v168q0 82 34.5 158t95 133.5t141.5 91t173 33.5zM690 569q0 35 -14 68t-39 59.5t-57.5 42t-69.5 15.5 t-69.5 -15.5t-57.5 -42t-39 -59.5t-14 -68v-168q0 -37 14 -70.5t39 -59t57.5 -42t69.5 -16.5t69.5 16.5t57.5 42t39 59.5t14 70v168zM315 1300q-20 10 -28 26.5t-8 35.5q0 35 23.5 67.5t57.5 32.5q6 0 12.5 -1t14.5 -3l270 -131q35 -18 35 -63q0 -35 -23.5 -68t-58.5 -33 q-8 0 -14 2t-14 6z" />
<glyph unicode="&#xf3;" horiz-adv-x="1019" d="M420 1171q-8 -4 -14.5 -6t-14.5 -2q-35 0 -58.5 33t-23.5 68q0 45 35 63l270 131q8 2 14.5 3t12.5 1q35 0 58.5 -32.5t23.5 -67.5q0 -18 -8 -34.5t-29 -27.5zM510 985q88 0 169 -32.5t142.5 -90t97 -132.5t35.5 -161v-168q0 -82 -35.5 -157.5t-97 -134t-142.5 -93 t-169 -34.5q-90 0 -171 34.5t-141.5 92t-96 133t-35.5 159.5v168q0 82 34.5 158t95 133.5t141.5 91t173 33.5zM690 569q0 35 -14 68t-39 59.5t-57.5 42t-69.5 15.5t-69.5 -15.5t-57.5 -42t-39 -59.5t-14 -68v-168q0 -37 14 -70.5t39 -59t57.5 -42t69.5 -16.5t69.5 16.5 t57.5 42t39 59.5t14 70v168z" />
<glyph unicode="&#xf4;" horiz-adv-x="1019" d="M297 1186q-12 -6 -23 -6q-25 0 -41 24.5t-16 57.5q0 23 10.5 43t34.5 32l213 115q16 10 35 10q14 0 35 -10l213 -113q23 -14 33 -35.5t10 -43.5q0 -31 -16.5 -55.5t-41.5 -24.5q-12 0 -20 6l-213 114zM510 985q88 0 169 -32.5t142.5 -90t97 -132.5t35.5 -161v-168 q0 -82 -35.5 -157.5t-97 -134t-142.5 -93t-169 -34.5q-90 0 -171 34.5t-141.5 92t-96 133t-35.5 159.5v168q0 82 34.5 158t95 133.5t141.5 91t173 33.5zM690 569q0 35 -14 68t-39 59.5t-57.5 42t-69.5 15.5t-69.5 -15.5t-57.5 -42t-39 -59.5t-14 -68v-168q0 -37 14 -70.5 t39 -59t57.5 -42t69.5 -16.5t69.5 16.5t57.5 42t39 59.5t14 70v168z" />
<glyph unicode="&#xf5;" horiz-adv-x="1019" d="M510 985q88 0 169 -32.5t142.5 -90t97 -132.5t35.5 -161v-168q0 -82 -35.5 -157.5t-97 -134t-142.5 -93t-169 -34.5q-90 0 -171 34.5t-141.5 92t-96 133t-35.5 159.5v168q0 82 34.5 158t95 133.5t141.5 91t173 33.5zM690 569q0 35 -14 68t-39 59.5t-57.5 42t-69.5 15.5 t-69.5 -15.5t-57.5 -42t-39 -59.5t-14 -68v-168q0 -37 14 -70.5t39 -59t57.5 -42t69.5 -16.5t69.5 16.5t57.5 42t39 59.5t14 70v168zM397 1264q-33 0 -56.5 -8.5t-42.5 -17.5t-35.5 -16.5t-33.5 -7.5q-20 0 -33.5 10.5t-20.5 25t-10 28.5t-3 22q0 47 20.5 75t49 42.5 t58 18.5t48.5 4q45 0 80 -9.5t68.5 -20.5t67.5 -20.5t75 -9.5q33 0 57.5 7.5t43 16.5t33.5 17.5t32 8.5q20 0 32.5 -10.5t20.5 -25t11 -28.5t3 -23q0 -47 -20.5 -74.5t-49 -42t-58 -18.5t-46.5 -4q-51 0 -88 9.5t-69.5 20.5t-63.5 20.5t-70 9.5z" />
<glyph unicode="&#xf6;" horiz-adv-x="1019" d="M358 1397q43 0 73 -32t30 -75t-30 -75.5t-73 -32.5t-73.5 32.5t-30.5 75.5t30.5 75t73.5 32zM666 1397q41 0 71.5 -32t30.5 -75t-30.5 -75.5t-71.5 -32.5q-45 0 -76 32.5t-31 75.5t31 75t76 32zM510 985q88 0 169 -32.5t142.5 -90t97 -132.5t35.5 -161v-168 q0 -82 -35.5 -157.5t-97 -134t-142.5 -93t-169 -34.5q-90 0 -171 34.5t-141.5 92t-96 133t-35.5 159.5v168q0 82 34.5 158t95 133.5t141.5 91t173 33.5zM690 569q0 35 -14 68t-39 59.5t-57.5 42t-69.5 15.5t-69.5 -15.5t-57.5 -42t-39 -59.5t-14 -68v-168q0 -37 14 -70.5 t39 -59t57.5 -42t69.5 -16.5t69.5 16.5t57.5 42t39 59.5t14 70v168z" />
<glyph unicode="&#xf7;" horiz-adv-x="913" d="M45 487q0 45 24.5 75t61.5 30h649q35 0 61.5 -30t26.5 -75q0 -47 -26.5 -73.5t-61.5 -26.5h-649q-37 0 -61.5 26.5t-24.5 73.5zM451 262q47 0 85.5 -33.5t38.5 -87.5q0 -49 -38.5 -85t-85.5 -36q-51 0 -89 36t-38 85q0 53 38 87t89 34zM451 958q47 0 85.5 -35.5 t38.5 -84.5q0 -51 -38.5 -86t-85.5 -35q-51 0 -89 34.5t-38 86.5q0 49 38 84.5t89 35.5z" />
<glyph unicode="&#xf8;" horiz-adv-x="1019" d="M510 985q127 0 231 -63l70 98q16 25 41 24q25 0 43 -18t18 -41q0 -18 -14 -39l-68 -94q57 -57 90 -129t33 -154v-168q0 -82 -35.5 -157.5t-97 -134t-142.5 -93t-169 -34.5q-68 0 -130.5 19t-115.5 54l-71 -102q-12 -18 -35 -19q-20 0 -39 16.5t-19 39.5q0 8 4.5 16 t8.5 17l69 100q-53 57 -84.5 129t-31.5 149v168q0 82 34.5 158t95 133.5t141.5 91t173 33.5zM690 569q0 16 -4 31.5t-10 32.5l-273 -383q23 -16 49.5 -26.5t57.5 -10.5q37 0 69.5 16.5t57.5 42t39 59.5t14 70v168zM330 401q0 -33 8 -57l266 379q-47 31 -94 31 q-37 0 -69.5 -15.5t-57.5 -42t-39 -59.5t-14 -68v-168z" />
<glyph unicode="&#xf9;" d="M537 -18q-92 0 -173 33.5t-141.5 91t-95.5 133t-35 157.5v492q0 31 39 57.5t94 26.5q53 0 92 -26.5t39 -57.5v-492q0 -35 14.5 -67.5t39 -59t57.5 -42t70 -15.5t69.5 15.5t57 41t38 59t13.5 68.5v494q0 33 40 57.5t93 24.5q59 0 95 -24.5t36 -57.5v-494q0 -84 -35 -158.5 t-95.5 -132t-141 -91t-170.5 -33.5zM340 1300q-20 10 -28.5 26.5t-8.5 35.5q0 35 23.5 67.5t58.5 32.5q6 0 12 -1t15 -3l270 -131q35 -18 35 -63q0 -35 -23.5 -68t-58.5 -33q-8 0 -14.5 2t-14.5 6z" />
<glyph unicode="&#xfa;" d="M463 1171q-8 -4 -14.5 -6t-14.5 -2q-35 0 -58.5 33t-23.5 68q0 45 35 63l270 131q8 2 14.5 3t12.5 1q35 0 58.5 -32.5t23.5 -67.5q0 -18 -8 -34.5t-29 -27.5zM537 -18q-92 0 -173 33.5t-141.5 91t-95.5 133t-35 157.5v492q0 31 39 57.5t94 26.5q53 0 92 -26.5t39 -57.5 v-492q0 -35 14.5 -67.5t39 -59t57.5 -42t70 -15.5t69.5 15.5t57 41t38 59t13.5 68.5v494q0 33 40 57.5t93 24.5q59 0 95 -24.5t36 -57.5v-494q0 -84 -35 -158.5t-95.5 -132t-141 -91t-170.5 -33.5z" />
<glyph unicode="&#xfb;" d="M326 1186q-12 -6 -23 -6q-25 0 -41 24.5t-16 57.5q0 23 10 43t35 32l213 115q16 10 35 10q14 0 34 -10l213 -113q23 -14 33 -35.5t10 -43.5q0 -31 -16 -55.5t-41 -24.5q-12 0 -20 6l-213 114zM537 -18q-92 0 -173 33.5t-141.5 91t-95.5 133t-35 157.5v492q0 31 39 57.5 t94 26.5q53 0 92 -26.5t39 -57.5v-492q0 -35 14.5 -67.5t39 -59t57.5 -42t70 -15.5t69.5 15.5t57 41t38 59t13.5 68.5v494q0 33 40 57.5t93 24.5q59 0 95 -24.5t36 -57.5v-494q0 -84 -35 -158.5t-95.5 -132t-141 -91t-170.5 -33.5z" />
<glyph unicode="&#xfc;" d="M385 1397q43 0 72.5 -32t29.5 -75t-29.5 -75.5t-72.5 -32.5t-73.5 32.5t-30.5 75.5t30.5 75t73.5 32zM692 1397q41 0 72 -32t31 -75t-31 -75.5t-72 -32.5q-45 0 -75.5 32.5t-30.5 75.5t30.5 75t75.5 32zM537 -18q-92 0 -173 33.5t-141.5 91t-95.5 133t-35 157.5v492 q0 31 39 57.5t94 26.5q53 0 92 -26.5t39 -57.5v-492q0 -35 14.5 -67.5t39 -59t57.5 -42t70 -15.5t69.5 15.5t57 41t38 59t13.5 68.5v494q0 33 40 57.5t93 24.5q59 0 95 -24.5t36 -57.5v-494q0 -84 -35 -158.5t-95.5 -132t-141 -91t-170.5 -33.5z" />
<glyph unicode="&#xfd;" horiz-adv-x="974" d="M20 825q-8 20 -8 35q0 27 18.5 49.5t45 40t57.5 27.5t55 10q27 0 47.5 -10t28.5 -35l246 -612l199 612q8 25 27.5 35t41.5 10q25 0 55.5 -10t58.5 -27.5t47 -42t19 -51.5q0 -16 -6 -31l-299 -764q-37 -92 -70.5 -184t-88 -164.5t-139.5 -119t-222 -46.5q-51 0 -86 19.5 t-35 93.5q0 45 15.5 78t52.5 33q33 0 81 12t93 46t79 92.5t40 150.5zM471 1171q-8 -4 -14 -6t-15 -2q-35 0 -58.5 33t-23.5 68q0 45 35 63l271 131q8 2 14 3t12 1q35 0 58.5 -32.5t23.5 -67.5q0 -18 -8 -34.5t-29 -27.5z" />
<glyph unicode="&#xfe;" horiz-adv-x="1064" d="M231 1540q59 0 99.5 -22.5t40.5 -59.5v-629q33 59 100.5 107.5t159.5 48.5q76 0 143.5 -32.5t116.5 -90t77.5 -132.5t28.5 -161v-168q0 -82 -29.5 -157.5t-78.5 -134t-113.5 -93t-136.5 -34.5q-92 0 -166 49t-102 112v-512q0 -33 -40 -58.5t-95 -25.5q-57 0 -93.5 26 t-36.5 58v1827q0 37 36 59.5t89 22.5zM733 569q0 35 -14 68t-40 59.5t-59.5 42t-72.5 15.5q-33 0 -64.5 -12.5t-56.5 -37t-40 -58.5t-15 -77v-204q0 -16 13 -42t37.5 -50.5t57.5 -42t72 -17.5q37 0 69.5 16.5t57 43t40 60.5t15.5 68v168z" />
<glyph unicode="&#xff;" horiz-adv-x="974" d="M20 825q-8 20 -8 35q0 27 18.5 49.5t45 40t57.5 27.5t55 10q27 0 47.5 -10t28.5 -35l246 -612l199 612q8 25 27.5 35t41.5 10q25 0 55.5 -10t58.5 -27.5t47 -42t19 -51.5q0 -16 -6 -31l-299 -764q-37 -92 -70.5 -184t-88 -164.5t-139.5 -119t-222 -46.5q-51 0 -86 19.5 t-35 93.5q0 45 15.5 78t52.5 33q33 0 81 12t93 46t79 92.5t40 150.5zM356 1397q43 0 73 -32t30 -75t-30 -75.5t-73 -32.5t-73.5 32.5t-30.5 75.5t30.5 75t73.5 32zM664 1397q41 0 71.5 -32t30.5 -75t-30.5 -75.5t-71.5 -32.5q-45 0 -76 32.5t-31 75.5t31 75t76 32z" />
<glyph unicode="&#x100;" horiz-adv-x="1177" d="M186 0q-27 0 -56.5 8t-54 22.5t-41 35t-16.5 45.5q0 4 5 20l395 1288q14 47 63 68.5t107 21.5q59 0 108 -21.5t64 -68.5l395 -1288q4 -16 4 -20q0 -25 -16.5 -44.5t-41 -35t-54 -23.5t-56.5 -8q-35 0 -58.5 12.5t-31.5 40.5l-78 273h-469l-78 -273q-8 -29 -31.5 -41 t-58.5 -12zM766 535l-178 628l-178 -628h356zM295 1833q0 37 22.5 62.5t59.5 25.5h420q33 0 58.5 -25.5t25.5 -62.5q0 -39 -26 -62.5t-58 -23.5h-420q-37 0 -59.5 23.5t-22.5 62.5z" />
<glyph unicode="&#x101;" horiz-adv-x="964" d="M430 985q119 0 203 -33.5t137 -89t76.5 -127t23.5 -149.5v-502q0 -35 -36.5 -59.5t-92.5 -24.5q-51 0 -84.5 24.5t-33.5 59.5v59q-55 -63 -130 -112t-182 -49q-55 0 -103 16t-84 50t-57.5 85t-21.5 121q0 88 35 146.5t97.5 92t150.5 48t194 14.5h84v27q0 33 -9 66.5 t-30.5 60t-55.5 44t-85 17.5q-59 0 -96 -10t-61.5 -21.5t-41 -21.5t-34.5 -10q-45 0 -68 43t-23 88q0 31 31 58.5t79 47t105.5 30.5t112.5 11zM606 418h-31q-51 0 -99 -4t-85 -17.5t-59.5 -39t-22.5 -68.5q0 -57 31 -84t78 -27q31 0 64.5 16.5t61 44t45 63.5t17.5 73v43z M180 1335q0 37 22.5 62.5t59.5 25.5h420q33 0 58.5 -25.5t25.5 -62.5q0 -39 -25.5 -62.5t-58.5 -23.5h-420q-37 0 -59.5 23.5t-22.5 62.5z" />
<glyph unicode="&#x102;" horiz-adv-x="1177" d="M186 0q-27 0 -56.5 8t-54 22.5t-41 35t-16.5 45.5q0 4 5 20l395 1288q14 47 63 68.5t107 21.5q59 0 108 -21.5t64 -68.5l395 -1288q4 -16 4 -20q0 -25 -16.5 -44.5t-41 -35t-54 -23.5t-56.5 -8q-35 0 -58.5 12.5t-31.5 40.5l-78 273h-469l-78 -273q-8 -29 -31.5 -41 t-58.5 -12zM766 535l-178 628l-178 -628h356zM860 1974q0 -55 -22.5 -104t-61.5 -86t-88 -59.5t-100 -22.5q-53 0 -102.5 22.5t-87.5 59.5t-60.5 86t-22.5 104h144q0 -68 40 -110.5t89 -42.5q47 0 88 43t41 110h143z" />
<glyph unicode="&#x103;" horiz-adv-x="964" d="M430 985q119 0 203 -33.5t137 -89t76.5 -127t23.5 -149.5v-502q0 -35 -36.5 -59.5t-92.5 -24.5q-51 0 -84.5 24.5t-33.5 59.5v59q-55 -63 -130 -112t-182 -49q-55 0 -103 16t-84 50t-57.5 85t-21.5 121q0 88 35 146.5t97.5 92t150.5 48t194 14.5h84v27q0 33 -9 66.5 t-30.5 60t-55.5 44t-85 17.5q-59 0 -96 -10t-61.5 -21.5t-41 -21.5t-34.5 -10q-45 0 -68 43t-23 88q0 31 31 58.5t79 47t105.5 30.5t112.5 11zM606 418h-31q-51 0 -99 -4t-85 -17.5t-59.5 -39t-22.5 -68.5q0 -57 31 -84t78 -27q31 0 64.5 16.5t61 44t45 63.5t17.5 73v43z M739 1477q0 -55 -22.5 -104.5t-61.5 -86.5t-88 -59.5t-100 -22.5q-53 0 -102.5 22.5t-87 59.5t-60 86t-22.5 105h143q0 -68 40 -111t89 -43q47 0 88 43t41 111h143z" />
<glyph unicode="&#x104;" horiz-adv-x="1177" d="M1028 -324q27 0 37 -19t10 -40q0 -23 -11 -38t-48 -15q-119 0 -179.5 51t-60.5 133q0 72 38 144.5t108 125.5q-14 10 -21 35l-78 273h-469l-78 -273q-8 -29 -31.5 -41t-58.5 -12q-27 0 -56.5 8t-54 22.5t-41 35t-16.5 45.5q0 4 5 20l395 1288q14 47 63 68.5t107 21.5 q59 0 108 -21.5t64 -68.5l395 -1288q4 -16 4 -20q0 -33 -28.5 -57.5t-65.5 -39.5q-68 -43 -114 -109.5t-46 -131.5q0 -45 28.5 -71t94.5 -26zM766 535l-178 628l-178 -628h356z" />
<glyph unicode="&#x105;" horiz-adv-x="964" d="M778 -324q27 0 37 -19t10 -40q0 -23 -11 -38t-48 -15q-119 0 -179.5 51t-60.5 133q0 72 38 143.5t104 124.5q-45 27 -45 68v59q-55 -63 -130 -112t-182 -49q-55 0 -103 16t-84 50t-57.5 85t-21.5 121q0 88 35 146.5t97.5 92t150.5 48t194 14.5h84v27q0 33 -9 66.5 t-30.5 60t-55.5 44t-85 17.5q-59 0 -96 -10t-61.5 -21.5t-41 -21.5t-34.5 -10q-45 0 -68 43t-23 88q0 31 31 58.5t79 47t105.5 30.5t112.5 11q119 0 203 -33.5t137 -89t76.5 -127t23.5 -149.5v-502q0 -23 -15 -41t-40 -29q-68 -43 -114 -109.5t-46 -131.5q0 -45 28.5 -71 t94.5 -26zM606 418h-31q-51 0 -99 -4t-85 -17.5t-59.5 -39t-22.5 -68.5q0 -57 31 -84t78 -27q31 0 64.5 16.5t61 44t45 63.5t17.5 73v43z" />
<glyph unicode="&#x106;" horiz-adv-x="1126" d="M530 1669q-8 -4 -14 -6t-14 -2q-35 0 -58.5 32.5t-23.5 67.5q0 45 35 64l270 131q8 2 14 3t13 1q35 0 58.5 -33t23.5 -67q0 -18 -8.5 -35t-28.5 -27zM803 1061q-2 25 -8.5 58.5t-28 66.5t-62 55.5t-114.5 22.5q-104 0 -159.5 -57.5t-55.5 -178.5v-571q0 -121 56 -178.5 t163 -57.5q70 0 110.5 22.5t61 55.5t28 71t9.5 70q4 47 41 65.5t90 18.5q70 0 102.5 -26.5t32.5 -104.5q0 -92 -36 -167.5t-101.5 -128t-155.5 -81t-196 -28.5q-96 0 -182.5 25.5t-151 81t-101 144.5t-36.5 218v571q0 129 37.5 218t102 144.5t150.5 81t183 25.5 q106 0 196 -27.5t154.5 -78t100.5 -123t36 -160.5q0 -80 -32.5 -105.5t-100.5 -25.5q-57 0 -94 18.5t-39 65.5z" />
<glyph unicode="&#x107;" horiz-adv-x="888" d="M401 1171q-8 -4 -14 -6t-14 -2q-35 0 -58.5 33t-23.5 68q0 45 35 63l270 131q8 2 14 3t13 1q35 0 58.5 -32.5t23.5 -67.5q0 -18 -8.5 -34.5t-28.5 -27.5zM514 -18q-117 0 -201 31.5t-138 88t-79.5 133t-25.5 166.5v164q0 88 25.5 165t79.5 133.5t137 89t200 32.5 q72 0 132.5 -13.5t103.5 -36t67.5 -51t24.5 -59.5q0 -18 -7.5 -40.5t-21.5 -42t-32.5 -33t-43.5 -13.5q-16 0 -33.5 9.5t-40 19.5t-53 19.5t-76.5 9.5q-104 0 -151 -49.5t-47 -139.5v-164q0 -90 47 -139t154 -49q45 0 75.5 9t53 21.5t40 21.5t35.5 9q27 0 48.5 -12t36 -30.5 t21.5 -41t7 -40.5q0 -31 -25.5 -61t-70.5 -54.5t-107.5 -38.5t-134.5 -14z" />
<glyph unicode="&#x108;" horiz-adv-x="1126" d="M375 1683q-12 -6 -23 -6q-25 0 -41 24.5t-16 57.5q0 23 10 43.5t35 32.5l213 115q16 10 35 10q14 0 35 -10l213 -113q23 -14 33 -35.5t10 -44.5q0 -31 -16.5 -55.5t-41.5 -24.5q-12 0 -20 6l-213 115zM803 1061q-2 25 -8.5 58.5t-28 66.5t-62 55.5t-114.5 22.5 q-104 0 -159.5 -57.5t-55.5 -178.5v-571q0 -121 56 -178.5t163 -57.5q70 0 110.5 22.5t61 55.5t28 71t9.5 70q4 47 41 65.5t90 18.5q70 0 102.5 -26.5t32.5 -104.5q0 -92 -36 -167.5t-101.5 -128t-155.5 -81t-196 -28.5q-96 0 -182.5 25.5t-151 81t-101 144.5t-36.5 218v571 q0 129 37.5 218t102 144.5t150.5 81t183 25.5q106 0 196 -27.5t154.5 -78t100.5 -123t36 -160.5q0 -80 -32.5 -105.5t-100.5 -25.5q-57 0 -94 18.5t-39 65.5z" />
<glyph unicode="&#x109;" horiz-adv-x="888" d="M270 1186q-12 -6 -22 -6q-25 0 -41.5 24.5t-16.5 57.5q0 23 10.5 43t35.5 32l213 115q16 10 34 10q14 0 35 -10l213 -113q23 -14 33 -35.5t10 -43.5q0 -31 -16.5 -55.5t-40.5 -24.5q-12 0 -21 6l-213 114zM514 -18q-117 0 -201 31.5t-138 88t-79.5 133t-25.5 166.5v164 q0 88 25.5 165t79.5 133.5t137 89t200 32.5q72 0 132.5 -13.5t103.5 -36t67.5 -51t24.5 -59.5q0 -18 -7.5 -40.5t-21.5 -42t-32.5 -33t-43.5 -13.5q-16 0 -33.5 9.5t-40 19.5t-53 19.5t-76.5 9.5q-104 0 -151 -49.5t-47 -139.5v-164q0 -90 47 -139t154 -49q45 0 75.5 9 t53 21.5t40 21.5t35.5 9q27 0 48.5 -12t36 -30.5t21.5 -41t7 -40.5q0 -31 -25.5 -61t-70.5 -54.5t-107.5 -38.5t-134.5 -14z" />
<glyph unicode="&#x10a;" horiz-adv-x="1126" d="M803 1061q-2 25 -8.5 58.5t-28 66.5t-62 55.5t-114.5 22.5q-104 0 -159.5 -57.5t-55.5 -178.5v-571q0 -121 56 -178.5t163 -57.5q70 0 110.5 22.5t61 55.5t28 71t9.5 70q4 47 41 65.5t90 18.5q70 0 102.5 -26.5t32.5 -104.5q0 -92 -36 -167.5t-101.5 -128t-155.5 -81 t-196 -28.5q-96 0 -182.5 25.5t-151 81t-101 144.5t-36.5 218v571q0 129 37.5 218t102 144.5t150.5 81t183 25.5q106 0 196 -27.5t154.5 -78t100.5 -123t36 -160.5q0 -80 -32.5 -105.5t-100.5 -25.5q-57 0 -94 18.5t-39 65.5zM592 1894q43 0 72.5 -31.5t29.5 -74.5 t-29.5 -76t-72.5 -33t-74 33t-31 76t31 74.5t74 31.5z" />
<glyph unicode="&#x10b;" horiz-adv-x="888" d="M514 -18q-117 0 -201 31.5t-138 88t-79.5 133t-25.5 166.5v164q0 88 25.5 165t79.5 133.5t137 89t200 32.5q72 0 132.5 -13.5t103.5 -36t67.5 -51t24.5 -59.5q0 -18 -7.5 -40.5t-21.5 -42t-32.5 -33t-43.5 -13.5q-16 0 -33.5 9.5t-40 19.5t-53 19.5t-76.5 9.5 q-104 0 -151 -49.5t-47 -139.5v-164q0 -90 47 -139t154 -49q45 0 75.5 9t53 21.5t40 21.5t35.5 9q27 0 48.5 -12t36 -30.5t21.5 -41t7 -40.5q0 -31 -25.5 -61t-70.5 -54.5t-107.5 -38.5t-134.5 -14zM477 1397q43 0 73 -32t30 -75t-30 -75.5t-73 -32.5t-73.5 32.5t-30.5 75.5 t30.5 75t73.5 32z" />
<glyph unicode="&#x10c;" horiz-adv-x="1126" d="M586 1853l209 136q14 8 24 8q27 0 42.5 -25.5t15.5 -54.5q0 -51 -43 -78l-211 -135q-23 -12 -37 -12q-18 0 -37 12l-211 135q-45 27 -45 78q0 29 16.5 54.5t40.5 25.5q14 0 25 -8zM803 1061q-2 25 -8.5 58.5t-28 66.5t-62 55.5t-114.5 22.5q-104 0 -159.5 -57.5 t-55.5 -178.5v-571q0 -121 56 -178.5t163 -57.5q70 0 110.5 22.5t61 55.5t28 71t9.5 70q4 47 41 65.5t90 18.5q70 0 102.5 -26.5t32.5 -104.5q0 -92 -36 -167.5t-101.5 -128t-155.5 -81t-196 -28.5q-96 0 -182.5 25.5t-151 81t-101 144.5t-36.5 218v571q0 129 37.5 218 t102 144.5t150.5 81t183 25.5q106 0 196 -27.5t154.5 -78t100.5 -123t36 -160.5q0 -80 -32.5 -105.5t-100.5 -25.5q-57 0 -94 18.5t-39 65.5z" />
<glyph unicode="&#x10d;" horiz-adv-x="888" d="M473 1356l209 135q14 8 25 8q27 0 42 -25.5t15 -54.5q0 -51 -43 -78l-211 -135q-23 -12 -37 -12q-18 0 -37 12l-211 135q-45 27 -45 78q0 29 16.5 54.5t41.5 25.5q14 0 24 -8zM514 -18q-117 0 -201 31.5t-138 88t-79.5 133t-25.5 166.5v164q0 88 25.5 165t79.5 133.5 t137 89t200 32.5q72 0 132.5 -13.5t103.5 -36t67.5 -51t24.5 -59.5q0 -18 -7.5 -40.5t-21.5 -42t-32.5 -33t-43.5 -13.5q-16 0 -33.5 9.5t-40 19.5t-53 19.5t-76.5 9.5q-104 0 -151 -49.5t-47 -139.5v-164q0 -90 47 -139t154 -49q45 0 75.5 9t53 21.5t40 21.5t35.5 9 q27 0 48.5 -12t36 -30.5t21.5 -41t7 -40.5q0 -31 -25.5 -61t-70.5 -54.5t-107.5 -38.5t-134.5 -14z" />
<glyph unicode="&#x10e;" horiz-adv-x="1187" d="M563 1853l209 136q14 8 25 8q27 0 42 -25.5t15 -54.5q0 -51 -43 -78l-211 -135q-23 -12 -37 -12q-18 0 -37 12l-211 135q-45 27 -45 78q0 29 16.5 54.5t41.5 25.5q14 0 24 -8zM602 1497q100 0 188.5 -25.5t154 -81t102 -144.5t36.5 -218v-559q0 -129 -36.5 -218 t-102 -144.5t-154 -81t-188.5 -25.5h-362q-53 0 -85 24.5t-32 57.5v1333q0 33 31.5 57.5t85.5 24.5h362zM389 1264v-1031h213q102 0 158.5 57.5t56.5 178.5v559q0 121 -56 178.5t-159 57.5h-213z" />
<glyph unicode="&#x10f;" horiz-adv-x="1064" d="M1200 1518q57 0 98 -41t41 -97q0 -10 -3 -25.5t-15 -47t-34.5 -86t-59.5 -142.5q-10 -18 -24.5 -25t-31.5 -7q-29 0 -58.5 17t-29.5 52q0 14 9 29l47 108q-35 18 -55.5 51t-20.5 74q0 57 40 98.5t97 41.5zM829 1540q57 0 94.5 -22.5t37.5 -59.5v-1374q0 -31 -37 -57.5 t-95 -26.5q-49 0 -83.5 26.5t-34.5 57.5v59q-31 -63 -109 -112t-176 -49q-72 0 -136.5 34.5t-113.5 93t-78.5 134t-29.5 157.5v168q0 86 28.5 161t77.5 132.5t115.5 90t142.5 32.5q96 0 163 -48t101 -108v629q0 37 39 59.5t94 22.5zM332 401q0 -35 14 -68.5t39 -60t56.5 -43 t68.5 -16.5q39 0 72.5 17.5t59.5 42t40 50t14 42.5v204q0 43 -16 77t-43 58.5t-59.5 37t-65.5 12.5q-37 0 -69.5 -15.5t-57.5 -42t-39 -59.5t-14 -68v-168z" />
<glyph unicode="&#x110;" horiz-adv-x="1202" d="M616 1497q100 0 188.5 -25.5t154 -81t102.5 -144.5t37 -218v-559q0 -129 -37 -218t-102.5 -144.5t-153.5 -81t-189 -25.5h-362q-53 0 -85 24.5t-32 57.5v606h-84q-33 0 -50 28.5t-17 65.5t17 67t50 30h84v536q0 33 32 57.5t85 24.5h362zM403 1264v-385h158q35 0 52.5 -30 t17.5 -67t-17.5 -65.5t-52.5 -28.5h-158v-455h213q102 0 158.5 57.5t56.5 178.5v559q0 121 -56 178.5t-159 57.5h-213z" />
<glyph unicode="&#x111;" horiz-adv-x="1064" d="M829 1540q57 0 94.5 -22.5t37.5 -59.5v-133h59q35 0 52.5 -30.5t17.5 -65.5q0 -39 -17.5 -67.5t-52.5 -28.5h-59v-1049q0 -31 -37 -57.5t-95 -26.5q-49 0 -83.5 26.5t-34.5 57.5v59q-31 -63 -109 -112t-176 -49q-72 0 -136.5 34.5t-113.5 93t-78.5 134t-29.5 157.5v168 q0 86 28.5 161t77.5 132.5t115.5 90t142.5 32.5q96 0 163 -48t101 -108v304h-159q-35 0 -52.5 29.5t-17.5 66.5q0 35 17.5 65.5t52.5 30.5h159v133q0 37 39 59.5t94 22.5zM332 401q0 -35 14 -68.5t39 -60t56.5 -43t68.5 -16.5q39 0 72.5 17.5t59.5 42t40 50t14 42.5v204 q0 43 -16 77t-43 58.5t-59.5 37t-65.5 12.5q-37 0 -69.5 -15.5t-57.5 -42t-39 -59.5t-14 -68v-168z" />
<glyph unicode="&#x112;" horiz-adv-x="1085" d="M389 854h311q41 0 62.5 -33t21.5 -73q0 -35 -20.5 -69t-63.5 -34h-311v-412h580q41 0 62.5 -35.5t21.5 -82.5q0 -41 -20.5 -78t-63.5 -37h-729q-45 0 -81 21.5t-36 62.5v1329q0 41 36 62.5t81 21.5h729q43 0 63.5 -37t20.5 -78q0 -47 -21.5 -82.5t-62.5 -35.5h-580v-410z M301 1833q0 37 22.5 62.5t59.5 25.5h420q33 0 58.5 -25.5t25.5 -62.5q0 -39 -25.5 -62.5t-58.5 -23.5h-420q-37 0 -59.5 23.5t-22.5 62.5z" />
<glyph unicode="&#x113;" horiz-adv-x="991" d="M514 985q84 0 161 -28.5t135 -79t92 -121t34 -156.5q0 -66 -16.5 -102.5t-44 -54t-61.5 -21.5t-69 -4h-415v-31q0 -90 65.5 -143.5t173.5 -53.5q51 0 88 12.5t66 27t52.5 26.5t45.5 12q23 0 41.5 -12t31.5 -30.5t20.5 -39t7.5 -34.5q0 -27 -26 -56.5t-73 -55.5 t-113.5 -42t-148.5 -16q-109 0 -200 29.5t-156.5 85t-102 133t-36.5 171.5v174q0 82 34.5 157t95 131.5t142.5 89t176 32.5zM629 573q33 0 46 10.5t13 45.5q0 72 -53 117t-127 45q-70 0 -124 -43t-54 -117v-58h299zM219 1335q0 37 22.5 62.5t59.5 25.5h420q33 0 58.5 -25.5 t25.5 -62.5q0 -39 -25.5 -62.5t-58.5 -23.5h-420q-37 0 -59.5 23.5t-22.5 62.5z" />
<glyph unicode="&#x114;" horiz-adv-x="1085" d="M389 854h311q41 0 62.5 -33t21.5 -73q0 -35 -20.5 -69t-63.5 -34h-311v-412h580q41 0 62.5 -35.5t21.5 -82.5q0 -41 -20.5 -78t-63.5 -37h-729q-45 0 -81 21.5t-36 62.5v1329q0 41 36 62.5t81 21.5h729q43 0 63.5 -37t20.5 -78q0 -47 -21.5 -82.5t-62.5 -35.5h-580v-410z M858 1974q0 -55 -22.5 -104t-61.5 -86t-88 -59.5t-100 -22.5q-53 0 -102.5 22.5t-87.5 59.5t-60.5 86t-22.5 104h144q0 -68 40 -110.5t89 -42.5q47 0 88 43t41 110h143z" />
<glyph unicode="&#x115;" horiz-adv-x="991" d="M514 985q84 0 161 -28.5t135 -79t92 -121t34 -156.5q0 -66 -16.5 -102.5t-44 -54t-61.5 -21.5t-69 -4h-415v-31q0 -90 65.5 -143.5t173.5 -53.5q51 0 88 12.5t66 27t52.5 26.5t45.5 12q23 0 41.5 -12t31.5 -30.5t20.5 -39t7.5 -34.5q0 -27 -26 -56.5t-73 -55.5 t-113.5 -42t-148.5 -16q-109 0 -200 29.5t-156.5 85t-102 133t-36.5 171.5v174q0 82 34.5 157t95 131.5t142.5 89t176 32.5zM629 573q33 0 46 10.5t13 45.5q0 72 -53 117t-127 45q-70 0 -124 -43t-54 -117v-58h299zM782 1477q0 -55 -22.5 -104.5t-61.5 -86.5t-88 -59.5 t-100 -22.5q-53 0 -102.5 22.5t-87 59.5t-60 86t-22.5 105h143q0 -68 40 -111t89 -43q47 0 88 43t41 111h143z" />
<glyph unicode="&#x116;" horiz-adv-x="1085" d="M389 854h311q41 0 62.5 -33t21.5 -73q0 -35 -20.5 -69t-63.5 -34h-311v-412h580q41 0 62.5 -35.5t21.5 -82.5q0 -41 -20.5 -78t-63.5 -37h-729q-45 0 -81 21.5t-36 62.5v1329q0 41 36 62.5t81 21.5h729q43 0 63.5 -37t20.5 -78q0 -47 -21.5 -82.5t-62.5 -35.5h-580v-410z M610 1894q43 0 73 -31.5t30 -74.5t-30 -76t-73 -33t-73.5 33t-30.5 76t30.5 74.5t73.5 31.5z" />
<glyph unicode="&#x117;" horiz-adv-x="991" d="M514 985q84 0 161 -28.5t135 -79t92 -121t34 -156.5q0 -66 -16.5 -102.5t-44 -54t-61.5 -21.5t-69 -4h-415v-31q0 -90 65.5 -143.5t173.5 -53.5q51 0 88 12.5t66 27t52.5 26.5t45.5 12q23 0 41.5 -12t31.5 -30.5t20.5 -39t7.5 -34.5q0 -27 -26 -56.5t-73 -55.5 t-113.5 -42t-148.5 -16q-109 0 -200 29.5t-156.5 85t-102 133t-36.5 171.5v174q0 82 34.5 157t95 131.5t142.5 89t176 32.5zM629 573q33 0 46 10.5t13 45.5q0 72 -53 117t-127 45q-70 0 -124 -43t-54 -117v-58h299zM510 1397q43 0 72.5 -32t29.5 -75t-29.5 -75.5 t-72.5 -32.5t-73.5 32.5t-30.5 75.5t30.5 75t73.5 32z" />
<glyph unicode="&#x118;" horiz-adv-x="1085" d="M389 854h311q41 0 62.5 -33t21.5 -73q0 -35 -20.5 -69t-63.5 -34h-311v-412h580q41 0 62.5 -35.5t21.5 -82.5q0 -35 -13.5 -66t-42.5 -43q-63 -43 -104 -107.5t-41 -125.5q0 -45 28.5 -71t94.5 -26q27 0 37 -19t10 -40q0 -23 -11.5 -38t-47.5 -15q-119 0 -179.5 51 t-60.5 133q0 66 31.5 132.5t91.5 119.5h-606q-45 0 -81 21.5t-36 62.5v1329q0 41 36 62.5t81 21.5h729q43 0 63.5 -37t20.5 -78q0 -47 -21.5 -82.5t-62.5 -35.5h-580v-410z" />
<glyph unicode="&#x119;" horiz-adv-x="991" d="M514 985q84 0 161 -28.5t135 -79t92 -121t34 -156.5q0 -66 -16.5 -102.5t-44 -54t-61.5 -21.5t-69 -4h-415v-31q0 -90 65.5 -143.5t173.5 -53.5q51 0 88 12.5t66 27t52.5 26.5t45.5 12q23 0 41.5 -12t31.5 -30.5t20.5 -39t7.5 -34.5q0 -31 -35 -66t-96 -61 q-68 -43 -114 -110t-46 -132q0 -45 28.5 -70.5t94.5 -25.5q27 0 37 -19.5t10 -40.5q0 -23 -11.5 -38t-48.5 -15q-119 0 -179 51t-60 133q0 59 24.5 116.5t69.5 109.5q-8 -2 -16.5 -2h-18.5q-109 0 -200 29.5t-156.5 85t-102 133t-36.5 171.5v174q0 82 34.5 157t95 131.5 t142.5 89t176 32.5zM629 573q33 0 46 10.5t13 45.5q0 72 -53 117t-127 45q-70 0 -124 -43t-54 -117v-58h299z" />
<glyph unicode="&#x11a;" horiz-adv-x="1085" d="M586 1853l209 136q14 8 24 8q27 0 42.5 -25.5t15.5 -54.5q0 -51 -43 -78l-211 -135q-23 -12 -37 -12q-18 0 -37 12l-211 135q-45 27 -45 78q0 29 16.5 54.5t40.5 25.5q14 0 25 -8zM389 854h311q41 0 62.5 -33t21.5 -73q0 -35 -20.5 -69t-63.5 -34h-311v-412h580 q41 0 62.5 -35.5t21.5 -82.5q0 -41 -20.5 -78t-63.5 -37h-729q-45 0 -81 21.5t-36 62.5v1329q0 41 36 62.5t81 21.5h729q43 0 63.5 -37t20.5 -78q0 -47 -21.5 -82.5t-62.5 -35.5h-580v-410z" />
<glyph unicode="&#x11b;" horiz-adv-x="991" d="M514 1356l209 135q14 8 25 8q27 0 42 -25.5t15 -54.5q0 -51 -43 -78l-211 -135q-23 -12 -37 -12q-18 0 -37 12l-211 135q-45 27 -45 78q0 29 16.5 54.5t41.5 25.5q14 0 24 -8zM514 985q84 0 161 -28.5t135 -79t92 -121t34 -156.5q0 -66 -16.5 -102.5t-44 -54t-61.5 -21.5 t-69 -4h-415v-31q0 -90 65.5 -143.5t173.5 -53.5q51 0 88 12.5t66 27t52.5 26.5t45.5 12q23 0 41.5 -12t31.5 -30.5t20.5 -39t7.5 -34.5q0 -27 -26 -56.5t-73 -55.5t-113.5 -42t-148.5 -16q-109 0 -200 29.5t-156.5 85t-102 133t-36.5 171.5v174q0 82 34.5 157t95 131.5 t142.5 89t176 32.5zM629 573q33 0 46 10.5t13 45.5q0 72 -53 117t-127 45q-70 0 -124 -43t-54 -117v-58h299z" />
<glyph unicode="&#x11c;" horiz-adv-x="1155" d="M348 1683q-12 -6 -22 -6q-25 0 -41.5 24.5t-16.5 57.5q0 23 10.5 43.5t34.5 32.5l213 115q16 10 35 10q14 0 35 -10l213 -113q23 -14 33 -35.5t10 -44.5q0 -31 -16.5 -55.5t-40.5 -24.5q-12 0 -21 6l-213 115zM801 1061q-2 37 -11.5 72.5t-33 64.5t-63.5 47.5t-105 18.5 q-104 0 -159.5 -57.5t-55.5 -178.5v-571q0 -121 55 -178.5t158 -57.5q100 0 157.5 57.5t57.5 178.5v121h-166q-41 0 -61.5 31.5t-20.5 72.5q0 39 20.5 71.5t61.5 32.5h348q41 0 62.5 -25.5t21.5 -60.5v-243q0 -129 -37 -218t-102.5 -144.5t-153.5 -81t-188 -25.5 q-102 0 -189.5 25.5t-152 81t-101.5 144.5t-37 218v571q0 129 37 218t101.5 144.5t149.5 81t184 25.5q106 0 195 -26.5t154.5 -78t102.5 -124t37 -164.5q0 -78 -34 -102.5t-99 -24.5q-53 0 -92 18.5t-41 65.5z" />
<glyph unicode="&#x11d;" horiz-adv-x="962" d="M268 1186q-12 -6 -22 -6q-25 0 -41.5 24.5t-16.5 57.5q0 23 10.5 43t34.5 32l213 115q16 10 35 10q14 0 35 -10l213 -113q23 -14 33 -35.5t10 -43.5q0 -31 -16.5 -55.5t-40.5 -24.5q-12 0 -21 6l-213 114zM471 262q-76 0 -133 19q-25 -20 -25 -41q0 -33 46.5 -47.5 t114 -23.5t148 -21.5t148.5 -42t114 -85t46 -151.5q0 -86 -38 -146.5t-99.5 -99.5t-142.5 -57.5t-167 -18.5q-90 0 -172 19.5t-144.5 56.5t-99 90.5t-36.5 122.5q0 78 43 131t106 86q-39 18 -62.5 49t-23.5 82q0 57 29 93t76 67q-59 47 -93 113.5t-34 146.5v43 q0 74 28.5 136.5t80.5 107.5t126 69.5t164 24.5q68 0 127 -15.5t107 -43.5q35 82 65.5 110.5t58.5 28.5q51 0 78 -28.5t27 -53.5q0 -18 -9.5 -32.5t-23.5 -24.5q-20 -14 -47 -31.5t-49 -46.5q72 -84 72 -201v-43q0 -74 -30 -136t-84 -108.5t-129 -72t-163 -25.5zM621 647 q0 74 -38 126t-110 52t-108.5 -52t-36.5 -126v-41q0 -78 37.5 -131t109.5 -53q68 0 107 51t39 131v43zM674 -139q0 43 -25.5 68.5t-66.5 41t-91.5 21.5t-99.5 12q-49 -23 -79.5 -58.5t-30.5 -82.5q0 -70 58 -108t140 -38t138.5 39t56.5 105z" />
<glyph unicode="&#x11e;" horiz-adv-x="1155" d="M801 1061q-2 37 -11.5 72.5t-33 64.5t-63.5 47.5t-105 18.5q-104 0 -159.5 -57.5t-55.5 -178.5v-571q0 -121 55 -178.5t158 -57.5q100 0 157.5 57.5t57.5 178.5v121h-166q-41 0 -61.5 31.5t-20.5 72.5q0 39 20.5 71.5t61.5 32.5h348q41 0 62.5 -25.5t21.5 -60.5v-243 q0 -129 -37 -218t-102.5 -144.5t-153.5 -81t-188 -25.5q-102 0 -189.5 25.5t-152 81t-101.5 144.5t-37 218v571q0 129 37 218t101.5 144.5t149.5 81t184 25.5q106 0 195 -26.5t154.5 -78t102.5 -124t37 -164.5q0 -78 -34 -102.5t-99 -24.5q-53 0 -92 18.5t-41 65.5z M856 1974q0 -55 -22.5 -104t-61.5 -86t-88 -59.5t-100 -22.5q-53 0 -102.5 22.5t-87.5 59.5t-60.5 86t-22.5 104h144q0 -68 40 -110.5t89 -42.5q47 0 88 43t41 110h143z" />
<glyph unicode="&#x11f;" horiz-adv-x="962" d="M471 262q-76 0 -133 19q-25 -20 -25 -41q0 -33 46.5 -47.5t114 -23.5t148 -21.5t148.5 -42t114 -85t46 -151.5q0 -86 -38 -146.5t-99.5 -99.5t-142.5 -57.5t-167 -18.5q-90 0 -172 19.5t-144.5 56.5t-99 90.5t-36.5 122.5q0 78 43 131t106 86q-39 18 -62.5 49t-23.5 82 q0 57 29 93t76 67q-59 47 -93 113.5t-34 146.5v43q0 74 28.5 136.5t80.5 107.5t126 69.5t164 24.5q68 0 127 -15.5t107 -43.5q35 82 65.5 110.5t58.5 28.5q51 0 78 -28.5t27 -53.5q0 -18 -9.5 -32.5t-23.5 -24.5q-20 -14 -47 -31.5t-49 -46.5q72 -84 72 -201v-43 q0 -74 -30 -136t-84 -108.5t-129 -72t-163 -25.5zM621 647q0 74 -38 126t-110 52t-108.5 -52t-36.5 -126v-41q0 -78 37.5 -131t109.5 -53q68 0 107 51t39 131v43zM674 -139q0 43 -25.5 68.5t-66.5 41t-91.5 21.5t-99.5 12q-49 -23 -79.5 -58.5t-30.5 -82.5q0 -70 58 -108 t140 -38t138.5 39t56.5 105zM752 1477q0 -55 -22.5 -104.5t-61.5 -86.5t-88.5 -59.5t-100.5 -22.5q-53 0 -102 22.5t-87 59.5t-60.5 86t-22.5 105h143q0 -68 40 -111t89 -43q47 0 88 43t41 111h144z" />
<glyph unicode="&#x120;" horiz-adv-x="1155" d="M801 1061q-2 37 -11.5 72.5t-33 64.5t-63.5 47.5t-105 18.5q-104 0 -159.5 -57.5t-55.5 -178.5v-571q0 -121 55 -178.5t158 -57.5q100 0 157.5 57.5t57.5 178.5v121h-166q-41 0 -61.5 31.5t-20.5 72.5q0 39 20.5 71.5t61.5 32.5h348q41 0 62.5 -25.5t21.5 -60.5v-243 q0 -129 -37 -218t-102.5 -144.5t-153.5 -81t-188 -25.5q-102 0 -189.5 25.5t-152 81t-101.5 144.5t-37 218v571q0 129 37 218t101.5 144.5t149.5 81t184 25.5q106 0 195 -26.5t154.5 -78t102.5 -124t37 -164.5q0 -78 -34 -102.5t-99 -24.5q-53 0 -92 18.5t-41 65.5z M580 1894q43 0 72.5 -31.5t29.5 -74.5t-29.5 -76t-72.5 -33t-74 33t-31 76t31 74.5t74 31.5z" />
<glyph unicode="&#x121;" horiz-adv-x="962" d="M471 262q-76 0 -133 19q-25 -20 -25 -41q0 -33 46.5 -47.5t114 -23.5t148 -21.5t148.5 -42t114 -85t46 -151.5q0 -86 -38 -146.5t-99.5 -99.5t-142.5 -57.5t-167 -18.5q-90 0 -172 19.5t-144.5 56.5t-99 90.5t-36.5 122.5q0 78 43 131t106 86q-39 18 -62.5 49t-23.5 82 q0 57 29 93t76 67q-59 47 -93 113.5t-34 146.5v43q0 74 28.5 136.5t80.5 107.5t126 69.5t164 24.5q68 0 127 -15.5t107 -43.5q35 82 65.5 110.5t58.5 28.5q51 0 78 -28.5t27 -53.5q0 -18 -9.5 -32.5t-23.5 -24.5q-20 -14 -47 -31.5t-49 -46.5q72 -84 72 -201v-43 q0 -74 -30 -136t-84 -108.5t-129 -72t-163 -25.5zM621 647q0 74 -38 126t-110 52t-108.5 -52t-36.5 -126v-41q0 -78 37.5 -131t109.5 -53q68 0 107 51t39 131v43zM674 -139q0 43 -25.5 68.5t-66.5 41t-91.5 21.5t-99.5 12q-49 -23 -79.5 -58.5t-30.5 -82.5q0 -70 58 -108 t140 -38t138.5 39t56.5 105zM479 1397q43 0 73 -32t30 -75t-30 -75.5t-73 -32.5t-73.5 32.5t-30.5 75.5t30.5 75t73.5 32z" />
<glyph unicode="&#x122;" horiz-adv-x="1155" d="M487 -389q-8 -4 -14 -6t-14 -2q-35 0 -58.5 32.5t-23.5 67.5q0 43 35 61l270 132q14 6 27 6q35 0 58.5 -33t23.5 -68q0 -20 -8.5 -36.5t-28.5 -26.5zM801 1061q-2 37 -11.5 72.5t-33 64.5t-63.5 47.5t-105 18.5q-104 0 -159.5 -57.5t-55.5 -178.5v-571q0 -121 55 -178.5 t158 -57.5q100 0 157.5 57.5t57.5 178.5v121h-166q-41 0 -61.5 31.5t-20.5 72.5q0 39 20.5 71.5t61.5 32.5h348q41 0 62.5 -25.5t21.5 -60.5v-243q0 -129 -37 -218t-102.5 -144.5t-153.5 -81t-188 -25.5q-102 0 -189.5 25.5t-152 81t-101.5 144.5t-37 218v571q0 129 37 218 t101.5 144.5t149.5 81t184 25.5q106 0 195 -26.5t154.5 -78t102.5 -124t37 -164.5q0 -78 -34 -102.5t-99 -24.5q-53 0 -92 18.5t-41 65.5z" />
<glyph unicode="&#x123;" horiz-adv-x="962" d="M414 1171q-8 -4 -14.5 -6t-14.5 -2q-35 0 -58.5 33t-23.5 68q0 45 35 63l270 131q8 2 14.5 3t12.5 1q35 0 58.5 -32.5t23.5 -67.5q0 -18 -8.5 -34.5t-28.5 -27.5zM471 262q-76 0 -133 19q-25 -20 -25 -41q0 -33 46.5 -47.5t114 -23.5t148 -21.5t148.5 -42t114 -85 t46 -151.5q0 -86 -38 -146.5t-99.5 -99.5t-142.5 -57.5t-167 -18.5q-90 0 -172 19.5t-144.5 56.5t-99 90.5t-36.5 122.5q0 78 43 131t106 86q-39 18 -62.5 49t-23.5 82q0 57 29 93t76 67q-59 47 -93 113.5t-34 146.5v43q0 74 28.5 136.5t80.5 107.5t126 69.5t164 24.5 q68 0 127 -15.5t107 -43.5q35 82 65.5 110.5t58.5 28.5q51 0 78 -28.5t27 -53.5q0 -18 -9.5 -32.5t-23.5 -24.5q-20 -14 -47 -31.5t-49 -46.5q72 -84 72 -201v-43q0 -74 -30 -136t-84 -108.5t-129 -72t-163 -25.5zM621 647q0 74 -38 126t-110 52t-108.5 -52t-36.5 -126v-41 q0 -78 37.5 -131t109.5 -53q68 0 107 51t39 131v43zM674 -139q0 43 -25.5 68.5t-66.5 41t-91.5 21.5t-99.5 12q-49 -23 -79.5 -58.5t-30.5 -82.5q0 -70 58 -108t140 -38t138.5 39t56.5 105zM487 1577q-57 0 -98 41t-41 96q0 10 3 25.5t15.5 47.5t35 86t61.5 142 q8 18 23.5 25.5t29.5 7.5q29 0 58.5 -17.5t29.5 -52.5q0 -10 -6 -28l-49 -109q35 -18 55.5 -51t20.5 -74q0 -57 -40.5 -98t-97.5 -41z" />
<glyph unicode="&#x124;" horiz-adv-x="1239" d="M408 1683q-12 -6 -23 -6q-25 0 -41 24.5t-16 57.5q0 23 10 43.5t35 32.5l213 115q16 10 35 10q14 0 34 -10l213 -113q23 -14 33 -35.5t10 -44.5q0 -31 -16 -55.5t-41 -24.5q-12 0 -20 6l-213 115zM850 672h-461v-588q0 -41 -42 -62.5t-91 -21.5q-51 0 -92 21.5t-41 62.5 v1331q0 43 41 62.5t92 19.5q49 0 91 -19.5t42 -62.5v-534h461v534q0 43 41 62.5t92 19.5q49 0 91 -19.5t42 -62.5v-1331q0 -41 -42 -62.5t-91 -21.5q-51 0 -92 21.5t-41 62.5v588z" />
<glyph unicode="&#x125;" d="M18 1708q-12 -6 -22 -6q-25 0 -41 24.5t-16 57.5q0 23 10 43t35 33l213 114q16 10 34 11q14 0 35 -11l213 -112q23 -14 33 -36t10 -44q0 -31 -16.5 -55.5t-40.5 -24.5q-12 0 -21 6l-213 115zM369 84q0 -31 -40 -57.5t-93 -26.5q-59 0 -95.5 26.5t-36.5 57.5v1374 q0 37 36 59.5t96 22.5q53 0 93 -22.5t40 -59.5v-629q29 59 94 107.5t164 48.5q70 0 134 -32.5t112.5 -90t77 -132.5t28.5 -161v-485q0 -41 -42 -62.5t-91 -21.5q-47 0 -89 21.5t-42 62.5v485q0 35 -14.5 68t-39 59.5t-56.5 42t-68 15.5q-63 0 -115.5 -49.5t-52.5 -135.5 v-485z" />
<glyph unicode="&#x126;" horiz-adv-x="1249" d="M856 672h-461v-588q0 -41 -42 -62.5t-91 -21.5q-51 0 -92 21.5t-41 62.5v1010h-27q-33 0 -50 26.5t-17 59.5t17.5 60.5t49.5 27.5h27v147q0 43 41 62.5t92 19.5q49 0 91 -19.5t42 -62.5v-147h461v147q0 43 41 62.5t92 19.5q49 0 91 -19.5t42 -62.5v-147h23q33 0 50 -28 t17 -60q0 -35 -17 -60.5t-50 -25.5h-23v-1010q0 -41 -42 -62.5t-91 -21.5q-51 0 -92 21.5t-41 62.5v588zM856 881v213h-461v-213h461z" />
<glyph unicode="&#x127;" d="M-31 1223q0 37 22.5 62.5t59.5 25.5h53v147q0 37 36 59.5t96 22.5q53 0 93 -22.5t40 -59.5v-147h102q33 0 58.5 -25.5t25.5 -62.5q0 -39 -25.5 -62.5t-58.5 -23.5h-102v-308q29 59 94 107.5t164 48.5q70 0 134 -32.5t112.5 -90t77 -132.5t28.5 -161v-485q0 -41 -42 -62.5 t-91 -21.5q-47 0 -89 21.5t-42 62.5v485q0 35 -14.5 68t-39 59.5t-56.5 42t-68 15.5q-63 0 -115.5 -49.5t-52.5 -135.5v-485q0 -31 -40 -57.5t-93 -26.5q-59 0 -95.5 26.5t-36.5 57.5v1053h-53q-37 0 -59.5 23.5t-22.5 62.5z" />
<glyph unicode="&#x128;" horiz-adv-x="512" d="M123 1415q0 43 41 62.5t92 19.5q49 0 91 -19.5t42 -62.5v-1331q0 -41 -42 -62.5t-91 -21.5q-51 0 -92 21.5t-41 62.5v1331zM141 1761q-33 0 -56.5 -8t-42.5 -17.5t-35.5 -16.5t-33.5 -7q-20 0 -33.5 10.5t-20.5 24.5t-10 28.5t-3 22.5q0 47 20.5 75t49 42t58 18t48.5 4 q45 0 80 -9t68.5 -20.5t67.5 -20.5t75 -9q33 0 57.5 7t43 16.5t33.5 17.5t32 8q20 0 32.5 -10t20.5 -24.5t11 -29t3 -22.5q0 -47 -20.5 -74.5t-49 -42t-58 -18.5t-46.5 -4q-51 0 -88 9t-69.5 20.5t-63.5 20.5t-70 9z" />
<glyph unicode="&#x129;" horiz-adv-x="468" d="M233 973q55 0 94.5 -22.5t39.5 -59.5v-807q0 -31 -39 -57.5t-95 -26.5q-57 0 -94 26.5t-37 57.5v807q0 37 37 59.5t94 22.5zM121 1264q-33 0 -56.5 -8.5t-43 -17.5t-36 -16.5t-32.5 -7.5q-20 0 -33.5 10.5t-21 25t-10.5 28.5t-3 22q0 47 20.5 75t49.5 42.5t58.5 18.5 t47.5 4q45 0 80 -9.5t69 -20.5t67.5 -20.5t74.5 -9.5q33 0 57.5 7.5t43 16.5t34 17.5t31.5 8.5q20 0 32.5 -10.5t21 -25t11.5 -28.5t3 -23q0 -47 -20.5 -74.5t-49.5 -42t-58.5 -18.5t-45.5 -4q-51 0 -88 9.5t-70 20.5t-63.5 20.5t-69.5 9.5z" />
<glyph unicode="&#x12a;" horiz-adv-x="512" d="M123 1415q0 43 41 62.5t92 19.5q49 0 91 -19.5t42 -62.5v-1331q0 -41 -42 -62.5t-91 -21.5q-51 0 -92 21.5t-41 62.5v1331zM-39 1833q0 37 22.5 62.5t59.5 25.5h420q33 0 58.5 -25.5t25.5 -62.5q0 -39 -25.5 -62.5t-58.5 -23.5h-420q-37 0 -59.5 23.5t-22.5 62.5z" />
<glyph unicode="&#x12b;" horiz-adv-x="468" d="M233 973q55 0 94.5 -22.5t39.5 -59.5v-807q0 -31 -39 -57.5t-95 -26.5q-57 0 -94 26.5t-37 57.5v807q0 37 37 59.5t94 22.5zM-57 1335q0 37 22.5 62.5t59.5 25.5h419q33 0 58.5 -25.5t25.5 -62.5q0 -39 -25.5 -62.5t-58.5 -23.5h-419q-37 0 -59.5 23.5t-22.5 62.5z" />
<glyph unicode="&#x12c;" horiz-adv-x="512" d="M123 1415q0 43 41 62.5t92 19.5q49 0 91 -19.5t42 -62.5v-1331q0 -41 -42 -62.5t-91 -21.5q-51 0 -92 21.5t-41 62.5v1331zM528 1974q0 -55 -22.5 -104t-61 -86t-88 -59.5t-100.5 -22.5q-53 0 -102.5 22.5t-87 59.5t-60 86t-22.5 104h143q0 -68 40 -110.5t89 -42.5 q47 0 88 43t41 110h143z" />
<glyph unicode="&#x12d;" horiz-adv-x="468" d="M233 973q55 0 94.5 -22.5t39.5 -59.5v-807q0 -31 -39 -57.5t-95 -26.5q-57 0 -94 26.5t-37 57.5v807q0 37 37 59.5t94 22.5zM508 1477q0 -55 -22.5 -104.5t-61.5 -86.5t-88 -59.5t-100 -22.5q-53 0 -102.5 22.5t-87.5 59.5t-60.5 86t-22.5 105h143q0 -68 40 -111t90 -43 q47 0 88 43t41 111h143z" />
<glyph unicode="&#x12e;" horiz-adv-x="512" d="M299 -322q27 0 37 -19t10 -40q0 -23 -11 -38t-48 -15q-119 0 -179.5 51t-60.5 133q0 72 35 140.5t98 121.5q-25 10 -41 27.5t-16 44.5v1331q0 43 41 62.5t92 19.5q49 0 91 -19.5t42 -62.5v-1331q0 -27 -17.5 -44t-41.5 -28q-66 -41 -110 -107.5t-44 -129.5 q0 -45 28.5 -71t94.5 -26z" />
<glyph unicode="&#x12f;" horiz-adv-x="468" d="M272 -324q27 0 37 -19t10 -40q0 -23 -11 -38t-48 -15q-119 0 -179.5 51t-60.5 133q0 72 37 142.5t103 123.5q-57 27 -58 70v807q0 37 37 59.5t94 22.5q55 0 94.5 -22.5t39.5 -59.5v-807q0 -20 -16.5 -38.5t-41.5 -31.5q-68 -43 -113.5 -109.5t-45.5 -131.5q0 -45 28 -71 t94 -26zM233 1448q59 0 101.5 -38t42.5 -91q0 -51 -42 -90t-102 -39q-61 0 -103 39t-42 90q0 53 42 91t103 38z" />
<glyph unicode="&#x130;" horiz-adv-x="512" d="M123 1415q0 43 41 62.5t92 19.5q49 0 91 -19.5t42 -62.5v-1331q0 -41 -42 -62.5t-91 -21.5q-51 0 -92 21.5t-41 62.5v1331zM258 1894q43 0 72.5 -31.5t29.5 -74.5t-29.5 -76t-72.5 -33t-73.5 33t-30.5 76t30.5 74.5t73.5 31.5z" />
<glyph unicode="&#x131;" horiz-adv-x="468" d="M233 973q55 0 94.5 -22.5t39.5 -59.5v-807q0 -31 -39 -57.5t-95 -26.5q-57 0 -94 26.5t-37 57.5v807q0 37 37 59.5t94 22.5z" />
<glyph unicode="&#x132;" horiz-adv-x="1599" d="M123 1415q0 43 41 62.5t92 19.5q49 0 91 -19.5t42 -62.5v-1331q0 -41 -42 -62.5t-91 -21.5q-51 0 -92 21.5t-41 62.5v1331zM1008 1264q-41 0 -62.5 35.5t-21.5 82.5q0 41 19.5 78t64.5 37h358q45 0 81 -21.5t36 -62.5v-956q0 -129 -37 -218t-101.5 -144.5t-150.5 -81 t-182 -25.5q-106 0 -196.5 27.5t-155 81t-101.5 128t-37 170.5q0 78 33 103.5t100 25.5q53 0 91 -17.5t42 -66.5q2 -39 11.5 -77.5t33 -70.5t64.5 -51.5t102 -19.5q104 0 161 57.5t57 178.5v807h-209z" />
<glyph unicode="&#x133;" horiz-adv-x="897" d="M233 973q55 0 94.5 -22.5t39.5 -59.5v-807q0 -31 -39 -57.5t-95 -26.5q-57 0 -94 26.5t-37 57.5v807q0 37 37 59.5t94 22.5zM233 1448q59 0 101.5 -38t42.5 -91q0 -51 -42 -90t-102 -39q-61 0 -103 39t-42 90q0 53 42 91t103 38zM659 1448q59 0 101.5 -38t42.5 -91 q0 -51 -42 -90t-102 -39q-61 0 -103 39t-42 90q0 53 42 91t103 38zM657 973q57 0 96.5 -22.5t39.5 -59.5v-957q0 -86 -19.5 -156.5t-58.5 -121.5t-97.5 -80t-134.5 -29q-41 0 -67.5 9.5t-42 25t-21.5 34.5t-6 40q0 53 30 84t70 31q55 0 68.5 46t13.5 117v957q0 37 37 59.5 t92 22.5z" />
<glyph unicode="&#x134;" horiz-adv-x="1103" d="M342 1683q-12 -6 -23 -6q-25 0 -41 24.5t-16 57.5q0 23 10.5 43.5t34.5 32.5l213 115q16 10 35 10q14 0 35 -10l213 -113q23 -14 33 -35.5t10 -44.5q0 -31 -16.5 -55.5t-41.5 -24.5q-12 0 -20 6l-213 115zM512 1264q-41 0 -62.5 35.5t-21.5 82.5q0 41 19.5 78t64.5 37 h358q45 0 81 -21.5t36 -62.5v-956q0 -129 -37 -218t-101.5 -144.5t-150.5 -81t-182 -25.5q-106 0 -196.5 27.5t-155 81t-101 128t-36.5 170.5q0 78 32.5 103.5t100.5 25.5q53 0 91 -17.5t42 -66.5q2 -39 11 -77.5t32.5 -70.5t64.5 -51.5t103 -19.5q104 0 160.5 57.5 t56.5 178.5v807h-209z" />
<glyph unicode="&#x135;" horiz-adv-x="473" d="M233 973q57 0 96.5 -22.5t39.5 -59.5v-957q0 -86 -19.5 -156.5t-58.5 -121.5t-97.5 -80t-134.5 -29q-41 0 -67.5 9.5t-42 25t-21.5 34.5t-6 40q0 53 30 84t71 31q55 0 68 46t13 117v957q0 37 37 59.5t92 22.5zM25 1186q-12 -6 -23 -6q-25 0 -41 24.5t-16 57.5q0 23 10 43 t35 32l213 115q16 10 35 10q14 0 34 -10l213 -113q23 -14 33 -35.5t10 -43.5q0 -31 -16 -55.5t-41 -24.5q-12 0 -20 6l-213 114z" />
<glyph unicode="&#x136;" horiz-adv-x="1130" d="M477 -389q-8 -4 -14 -6t-14 -2q-35 0 -58.5 32.5t-23.5 67.5q0 43 34 61l271 132q14 6 26 6q35 0 58.5 -33t23.5 -68q0 -20 -8 -36.5t-29 -26.5zM123 1415q0 43 41 62.5t92 19.5q49 0 91 -19.5t42 -62.5v-559l442 602q29 39 74 39q25 0 52.5 -12t50 -31.5t37 -44.5 t14.5 -49q0 -10 -3 -23.5t-14 -27.5l-366 -459l446 -680q14 -20 15 -47q0 -25 -14.5 -48.5t-37 -43t-51 -30.5t-57.5 -11q-27 0 -51.5 11t-40.5 40l-385 584l-111 -140v-401q0 -41 -42 -62.5t-91 -21.5q-51 0 -92 21.5t-41 62.5v1331z" />
<glyph unicode="&#x137;" horiz-adv-x="1007" d="M406 -389q-8 -4 -14.5 -6t-14.5 -2q-35 0 -58.5 32.5t-23.5 67.5q0 43 35 61l270 132q14 6 27 6q35 0 58.5 -33t23.5 -68q0 -20 -8.5 -36.5t-28.5 -26.5zM672 588l301 -430q14 -20 14 -43t-14.5 -46.5t-37 -42t-48 -30.5t-49.5 -12q-41 0 -66 34l-276 408l-127 -117v-225 q0 -31 -40 -57.5t-96 -26.5q-57 0 -93 26.5t-36 57.5v1374q0 37 36 59.5t93 22.5q55 0 95.5 -22.5t40.5 -59.5v-858l385 363q25 20 53 20q20 0 43.5 -11t42 -29.5t31 -41t12.5 -45.5q0 -27 -23 -49z" />
<glyph unicode="&#x138;" horiz-adv-x="1005" d="M670 588l301 -430q14 -20 14 -43t-14.5 -46.5t-37 -42t-48 -30.5t-49.5 -12q-41 0 -66 34l-276 408l-127 -117v-225q0 -31 -40 -57.5t-96 -26.5q-57 0 -93 26.5t-36 57.5v807q0 37 36 59.5t93 22.5q55 0 95.5 -22.5t40.5 -59.5v-291l385 363q25 20 53 20q20 0 43.5 -11 t42 -29.5t31 -41t12.5 -45.5q0 -27 -23 -49z" />
<glyph unicode="&#x139;" horiz-adv-x="991" d="M430 1669q-8 -4 -14 -6t-15 -2q-35 0 -58.5 32.5t-23.5 67.5q0 45 35 64l271 131q8 2 14 3t12 1q35 0 58.5 -33t23.5 -67q0 -18 -8 -35t-29 -27zM240 0q-45 0 -81 21.5t-36 62.5v1331q0 43 41 62.5t92 19.5q49 0 91 -19.5t42 -62.5v-1182h500q41 0 60.5 -35.5t19.5 -80.5 q0 -43 -19.5 -80t-60.5 -37h-649z" />
<glyph unicode="&#x13a;" horiz-adv-x="505" d="M205 1634q-8 -4 -14.5 -6t-14.5 -2q-35 0 -58.5 33t-23.5 67q0 45 35 64l270 131q8 2 14.5 3t12.5 1q35 0 58.5 -32.5t23.5 -67.5q0 -18 -8 -34.5t-29 -27.5zM252 1540q53 0 93 -22.5t40 -59.5v-1374q0 -31 -40 -57.5t-93 -26.5q-59 0 -95 26.5t-36 57.5v1374 q0 37 36 59.5t95 22.5z" />
<glyph unicode="&#x13b;" horiz-adv-x="991" d="M432 -389q-8 -4 -14 -6t-15 -2q-35 0 -58 32.5t-23 67.5q0 43 34 61l271 132q14 6 26 6q35 0 58.5 -33t23.5 -68q0 -20 -8 -36.5t-29 -26.5zM240 0q-45 0 -81 21.5t-36 62.5v1331q0 43 41 62.5t92 19.5q49 0 91 -19.5t42 -62.5v-1182h500q41 0 60.5 -35.5t19.5 -80.5 q0 -43 -19.5 -80t-60.5 -37h-649z" />
<glyph unicode="&#x13c;" horiz-adv-x="505" d="M158 -389q-8 -4 -14.5 -6t-14.5 -2q-35 0 -58.5 32.5t-23.5 67.5q0 43 35 61l270 132q14 6 27 6q35 0 58.5 -33t23.5 -68q0 -20 -8.5 -36.5t-28.5 -26.5zM252 1540q53 0 93 -22.5t40 -59.5v-1374q0 -31 -40 -57.5t-93 -26.5q-59 0 -95 26.5t-36 57.5v1374q0 37 36 59.5 t95 22.5z" />
<glyph unicode="&#x13d;" horiz-adv-x="993" d="M766 1518q57 0 98 -41t41 -97q0 -10 -3 -25.5t-15.5 -47t-35 -86t-58.5 -142.5q-10 -18 -24.5 -25t-31.5 -7q-29 0 -58.5 17t-29.5 52q0 14 8 29l48 108q-35 18 -55.5 51t-20.5 74q0 57 40 98.5t97 41.5zM240 0q-45 0 -81 21.5t-36 62.5v1331q0 43 41 62.5t92 19.5 q49 0 91 -19.5t42 -62.5v-1182h500q41 0 60.5 -35.5t19.5 -80.5q0 -43 -19.5 -80t-60.5 -37h-649z" />
<glyph unicode="&#x13e;" horiz-adv-x="505" d="M631 1518q57 0 98 -41t41 -97q0 -10 -3 -25.5t-15.5 -47t-35 -86t-59.5 -142.5q-10 -18 -24.5 -25t-30.5 -7q-29 0 -58.5 17t-29.5 52q0 14 8 29l47 108q-35 18 -55 51t-20 74q0 57 40 98.5t97 41.5zM252 1540q53 0 93 -22.5t40 -59.5v-1374q0 -31 -40 -57.5t-93 -26.5 q-59 0 -95 26.5t-36 57.5v1374q0 37 36 59.5t95 22.5z" />
<glyph unicode="&#x13f;" horiz-adv-x="993" d="M240 0q-45 0 -81 21.5t-36 62.5v1331q0 43 41 62.5t92 19.5q49 0 91 -19.5t42 -62.5v-1182h500q41 0 60.5 -35.5t19.5 -80.5q0 -43 -19.5 -80t-60.5 -37h-649zM754 991q61 0 103 -38t42 -91t-42 -92t-103 -39t-104.5 39t-43.5 92t43.5 91t104.5 38z" />
<glyph unicode="&#x140;" horiz-adv-x="757" d="M252 1540q53 0 93 -22.5t40 -59.5v-1374q0 -31 -40 -57.5t-93 -26.5q-59 0 -95 26.5t-36 57.5v1374q0 37 36 59.5t95 22.5zM612 743q61 0 103.5 -37.5t42.5 -91.5q0 -53 -42 -92t-104 -39q-61 0 -104 39t-43 92t43 91t104 38z" />
<glyph unicode="&#x141;" horiz-adv-x="1003" d="M252 0q-45 0 -81 21.5t-36 62.5v455l-33 -17q-12 -6 -24 -6q-37 0 -64.5 39t-27.5 80q0 18 8 35.5t24 25.5l117 58v661q0 43 41 62.5t92 19.5q49 0 91 -19.5t42 -62.5v-532l123 61q8 4 25 4q18 0 35.5 -11t30 -28.5t20.5 -38t8 -39.5q0 -45 -35 -61l-207 -102v-435h500 q41 0 60.5 -35.5t19.5 -80.5q0 -43 -19.5 -80t-60.5 -37h-649z" />
<glyph unicode="&#x142;" horiz-adv-x="653" d="M324 1540q53 0 93 -22.5t40 -59.5v-565l61 31q12 6 23 6q39 0 66.5 -40t27.5 -79q0 -45 -35 -61l-143 -72v-594q0 -31 -40 -57.5t-93 -26.5q-59 0 -95 26.5t-36 57.5v465l-56 -27q-12 -6 -24 -6q-37 0 -65 39t-28 80q0 18 8.5 35.5t24.5 25.5l140 68v694q0 37 36 59.5 t95 22.5z" />
<glyph unicode="&#x143;" horiz-adv-x="1239" d="M500 1669q-8 -4 -14.5 -6t-14.5 -2q-35 0 -58.5 32.5t-23.5 67.5q0 45 35 64l270 131q8 2 14.5 3t12.5 1q35 0 58.5 -33t23.5 -67q0 -18 -8.5 -35t-28.5 -27zM983 0q-47 0 -87 18.5t-67 65.5l-440 823v-823q0 -41 -42 -62.5t-91 -21.5q-51 0 -92 21.5t-41 62.5v1329 q0 43 41 63.5t92 20.5q37 0 63.5 -5t48 -20.5t42 -43t45.5 -72.5l395 -764v823q0 43 41 62.5t92 19.5q49 0 91 -19.5t42 -62.5v-1331q0 -41 -42 -62.5t-91 -21.5z" />
<glyph unicode="&#x144;" horiz-adv-x="1071" d="M453 1171q-8 -4 -14.5 -6t-14.5 -2q-35 0 -58.5 33t-23.5 68q0 45 35 63l270 131q8 2 14.5 3t12.5 1q35 0 58.5 -32.5t23.5 -67.5q0 -18 -8.5 -34.5t-28.5 -27.5zM367 84q0 -31 -40 -57.5t-94 -26.5q-59 0 -95 26.5t-36 57.5v807q0 37 36 59.5t95 22.5q47 0 82 -22.5 t35 -59.5v-62q29 59 100.5 107.5t174.5 48.5q70 0 134 -32.5t112.5 -90t77 -132.5t28.5 -161v-485q0 -41 -42 -62.5t-91 -21.5q-47 0 -89 21.5t-42 62.5v485q0 35 -14.5 68t-38 59.5t-56.5 42t-69 15.5q-63 0 -115.5 -49.5t-52.5 -135.5v-485z" />
<glyph unicode="&#x145;" horiz-adv-x="1239" d="M522 -389q-8 -4 -14 -6t-14 -2q-35 0 -58.5 32.5t-23.5 67.5q0 43 34 61l271 132q14 6 26 6q35 0 58.5 -33t23.5 -68q0 -20 -8 -36.5t-29 -26.5zM983 0q-47 0 -87 18.5t-67 65.5l-440 823v-823q0 -41 -42 -62.5t-91 -21.5q-51 0 -92 21.5t-41 62.5v1329q0 43 41 63.5 t92 20.5q37 0 63.5 -5t48 -20.5t42 -43t45.5 -72.5l395 -764v823q0 43 41 62.5t92 19.5q49 0 91 -19.5t42 -62.5v-1331q0 -41 -42 -62.5t-91 -21.5z" />
<glyph unicode="&#x146;" horiz-adv-x="1071" d="M434 -389q-8 -4 -14 -6t-14 -2q-35 0 -58.5 32.5t-23.5 67.5q0 43 34 61l271 132q14 6 26 6q35 0 58.5 -33t23.5 -68q0 -20 -8 -36.5t-29 -26.5zM367 84q0 -31 -40 -57.5t-94 -26.5q-59 0 -95 26.5t-36 57.5v807q0 37 36 59.5t95 22.5q47 0 82 -22.5t35 -59.5v-62 q29 59 100.5 107.5t174.5 48.5q70 0 134 -32.5t112.5 -90t77 -132.5t28.5 -161v-485q0 -41 -42 -62.5t-91 -21.5q-47 0 -89 21.5t-42 62.5v485q0 35 -14.5 68t-38 59.5t-56.5 42t-69 15.5q-63 0 -115.5 -49.5t-52.5 -135.5v-485z" />
<glyph unicode="&#x147;" horiz-adv-x="1239" d="M621 1853l208 136q14 8 25 8q27 0 42 -25.5t15 -54.5q0 -51 -43 -78l-211 -135q-23 -12 -36 -12q-18 0 -37 12l-211 135q-45 27 -45 78q0 29 16 54.5t41 25.5q14 0 25 -8zM983 0q-47 0 -87 18.5t-67 65.5l-440 823v-823q0 -41 -42 -62.5t-91 -21.5q-51 0 -92 21.5 t-41 62.5v1329q0 43 41 63.5t92 20.5q37 0 63.5 -5t48 -20.5t42 -43t45.5 -72.5l395 -764v823q0 43 41 62.5t92 19.5q49 0 91 -19.5t42 -62.5v-1331q0 -41 -42 -62.5t-91 -21.5z" />
<glyph unicode="&#x148;" horiz-adv-x="1071" d="M528 1356l209 135q14 8 25 8q27 0 42 -25.5t15 -54.5q0 -51 -43 -78l-211 -135q-23 -12 -37 -12q-18 0 -36 12l-211 135q-45 27 -45 78q0 29 16 54.5t41 25.5q14 0 24 -8zM367 84q0 -31 -40 -57.5t-94 -26.5q-59 0 -95 26.5t-36 57.5v807q0 37 36 59.5t95 22.5 q47 0 82 -22.5t35 -59.5v-62q29 59 100.5 107.5t174.5 48.5q70 0 134 -32.5t112.5 -90t77 -132.5t28.5 -161v-485q0 -41 -42 -62.5t-91 -21.5q-47 0 -89 21.5t-42 62.5v485q0 35 -14.5 68t-38 59.5t-56.5 42t-69 15.5q-63 0 -115.5 -49.5t-52.5 -135.5v-485z" />
<glyph unicode="&#x14a;" horiz-adv-x="1241" d="M770 -229q53 0 66.5 46t13.5 117v78q0 20 -5 35.5t-16 36.5l-440 823v-823q0 -41 -42 -62.5t-91 -21.5q-51 0 -92 21.5t-41 62.5v1329q0 43 41 63.5t92 20.5q37 0 63.5 -5t48 -20.5t42 -43t45.5 -72.5l395 -764v823q0 43 41 62.5t92 19.5q49 0 91 -19.5t42 -62.5v-1481 q0 -86 -19.5 -156.5t-58.5 -121.5t-97 -80t-134 -29q-41 0 -67.5 9.5t-42 25t-21.5 34.5t-6 40q0 53 29.5 84t70.5 31z" />
<glyph unicode="&#x14b;" d="M625 985q70 0 134 -32.5t112.5 -90t77 -132.5t28.5 -161v-635q0 -86 -19.5 -156.5t-58.5 -121.5t-97.5 -80t-133.5 -29q-41 0 -68 9.5t-42 25t-21.5 34.5t-6.5 40q0 53 30 84t71 31q53 0 67.5 46t14.5 117v635q0 35 -14.5 68t-38 59.5t-56.5 42t-69 15.5 q-63 0 -115.5 -49.5t-52.5 -135.5v-485q0 -31 -40 -57.5t-94 -26.5q-59 0 -95 26.5t-36 57.5v807q0 37 36 59.5t95 22.5q47 0 82 -22.5t35 -59.5v-62q29 59 101 107.5t174 48.5z" />
<glyph unicode="&#x14c;" horiz-adv-x="1171" d="M293 1833q0 37 22.5 62.5t59.5 25.5h420q33 0 58.5 -25.5t25.5 -62.5q0 -39 -26 -62.5t-58 -23.5h-420q-37 0 -59.5 23.5t-22.5 62.5zM586 -12q-102 0 -189.5 25.5t-152 81t-101.5 144.5t-37 218v571q0 129 37 218t101.5 144.5t151.5 81t190 25.5q100 0 188 -25.5 t153.5 -81t102.5 -144.5t37 -218v-571q0 -129 -37 -218t-102.5 -144.5t-153.5 -81t-188 -25.5zM801 1028q0 123 -57.5 179.5t-157.5 56.5q-102 0 -157.5 -56.5t-55.5 -179.5v-571q0 -123 55 -179.5t158 -56.5q100 0 157.5 56.5t57.5 179.5v571z" />
<glyph unicode="&#x14d;" horiz-adv-x="1019" d="M217 1335q0 37 22.5 62.5t59.5 25.5h420q33 0 58.5 -25.5t25.5 -62.5q0 -39 -25.5 -62.5t-58.5 -23.5h-420q-37 0 -59.5 23.5t-22.5 62.5zM510 985q88 0 169 -32.5t142.5 -90t97 -132.5t35.5 -161v-168q0 -82 -35.5 -157.5t-97 -134t-142.5 -93t-169 -34.5 q-90 0 -171 34.5t-141.5 92t-96 133t-35.5 159.5v168q0 82 34.5 158t95 133.5t141.5 91t173 33.5zM690 569q0 35 -14 68t-39 59.5t-57.5 42t-69.5 15.5t-69.5 -15.5t-57.5 -42t-39 -59.5t-14 -68v-168q0 -37 14 -70.5t39 -59t57.5 -42t69.5 -16.5t69.5 16.5t57.5 42t39 59.5 t14 70v168z" />
<glyph unicode="&#x14e;" horiz-adv-x="1171" d="M586 -12q-102 0 -189.5 25.5t-152 81t-101.5 144.5t-37 218v571q0 129 37 218t101.5 144.5t151.5 81t190 25.5q100 0 188 -25.5t153.5 -81t102.5 -144.5t37 -218v-571q0 -129 -37 -218t-102.5 -144.5t-153.5 -81t-188 -25.5zM801 1028q0 123 -57.5 179.5t-157.5 56.5 q-102 0 -157.5 -56.5t-55.5 -179.5v-571q0 -123 55 -179.5t158 -56.5q100 0 157.5 56.5t57.5 179.5v571zM856 1974q0 -55 -22.5 -104t-61.5 -86t-88 -59.5t-100 -22.5q-53 0 -102.5 22.5t-87.5 59.5t-60.5 86t-22.5 104h144q0 -68 40 -110.5t89 -42.5q47 0 88 43t41 110h143 z" />
<glyph unicode="&#x14f;" horiz-adv-x="1019" d="M510 985q88 0 169 -32.5t142.5 -90t97 -132.5t35.5 -161v-168q0 -82 -35.5 -157.5t-97 -134t-142.5 -93t-169 -34.5q-90 0 -171 34.5t-141.5 92t-96 133t-35.5 159.5v168q0 82 34.5 158t95 133.5t141.5 91t173 33.5zM690 569q0 35 -14 68t-39 59.5t-57.5 42t-69.5 15.5 t-69.5 -15.5t-57.5 -42t-39 -59.5t-14 -68v-168q0 -37 14 -70.5t39 -59t57.5 -42t69.5 -16.5t69.5 16.5t57.5 42t39 59.5t14 70v168zM784 1477q0 -55 -22.5 -104.5t-61 -86.5t-88 -59.5t-100.5 -22.5q-53 0 -102.5 22.5t-87 59.5t-60 86t-22.5 105h143q0 -68 40 -111t89 -43 q47 0 88 43t41 111h143z" />
<glyph unicode="&#x150;" horiz-adv-x="1171" d="M455 1675q-16 -18 -39 -18q-31 0 -56.5 24.5t-25.5 53.5q0 18 14 32l172 181q14 16 39 16q29 0 53.5 -25.5t24.5 -52.5q0 -20 -14 -35zM776 1675q-16 -18 -39 -18q-31 0 -56.5 24.5t-25.5 53.5q0 18 15 32l172 181q16 16 39 16q29 0 53 -25.5t24 -52.5q0 -20 -14 -35z M586 -12q-102 0 -189.5 25.5t-152 81t-101.5 144.5t-37 218v571q0 129 37 218t101.5 144.5t151.5 81t190 25.5q100 0 188 -25.5t153.5 -81t102.5 -144.5t37 -218v-571q0 -129 -37 -218t-102.5 -144.5t-153.5 -81t-188 -25.5zM801 1028q0 123 -57.5 179.5t-157.5 56.5 q-102 0 -157.5 -56.5t-55.5 -179.5v-571q0 -123 55 -179.5t158 -56.5q100 0 157.5 56.5t57.5 179.5v571z" />
<glyph unicode="&#x151;" horiz-adv-x="1019" d="M379 1182q-16 -18 -39 -19q-31 0 -56.5 24.5t-25.5 53.5q0 18 14 33l172 180q14 16 39 16q29 0 53.5 -25.5t24.5 -51.5q0 -20 -14 -35zM700 1182q-16 -18 -38 -19q-31 0 -56.5 24.5t-25.5 53.5q0 18 14 33l172 180q16 16 39 16q29 0 53.5 -25.5t24.5 -51.5q0 -20 -15 -35 zM510 985q88 0 169 -32.5t142.5 -90t97 -132.5t35.5 -161v-168q0 -82 -35.5 -157.5t-97 -134t-142.5 -93t-169 -34.5q-90 0 -171 34.5t-141.5 92t-96 133t-35.5 159.5v168q0 82 34.5 158t95 133.5t141.5 91t173 33.5zM690 569q0 35 -14 68t-39 59.5t-57.5 42t-69.5 15.5 t-69.5 -15.5t-57.5 -42t-39 -59.5t-14 -68v-168q0 -37 14 -70.5t39 -59t57.5 -42t69.5 -16.5t69.5 16.5t57.5 42t39 59.5t14 70v168z" />
<glyph unicode="&#x152;" horiz-adv-x="1697" d="M539 -12q-94 0 -173 25.5t-136.5 81t-89 144.5t-31.5 218v571q0 129 31.5 218t89 144.5t136 81t173.5 25.5q86 0 171 -37t128 -114v67q0 41 35.5 62.5t80.5 21.5h629q43 0 62.5 -37t19.5 -78q0 -47 -20.5 -82.5t-61.5 -35.5h-514v-410h246q41 0 61.5 -33t20.5 -73 q0 -35 -19.5 -69t-62.5 -34h-246v-412h514q41 0 61.5 -35.5t20.5 -82.5q0 -41 -19.5 -78t-62.5 -37h-629q-45 0 -80.5 21.5t-35.5 62.5v55q-43 -78 -128 -114.5t-171 -36.5zM803 1028q0 123 -57.5 179.5t-157.5 56.5q-102 0 -157.5 -56.5t-55.5 -179.5v-571 q0 -123 55 -179.5t158 -56.5q100 0 157.5 56.5t57.5 179.5v571z" />
<glyph unicode="&#x153;" horiz-adv-x="1615" d="M510 985q98 0 182 -44t142 -118q57 74 133.5 118t169.5 44q86 0 162.5 -28.5t135 -79t92.5 -121t34 -154.5q0 -66 -16.5 -102.5t-44 -55t-62.5 -22.5t-70 -4h-414v-31q0 -90 65.5 -143.5t174.5 -53.5q51 0 88 12.5t65.5 27t51 26.5t47.5 12q23 0 41 -12t30.5 -30.5 t19.5 -39t7 -36.5q0 -25 -25.5 -54.5t-72.5 -55.5t-113.5 -42t-148.5 -16q-111 0 -201 42t-149 119q-59 -74 -142.5 -117.5t-181.5 -43.5q-90 0 -171 34.5t-141.5 92t-96 133t-35.5 159.5v168q0 82 34.5 158t95 133.5t141.5 91t173 33.5zM690 569q0 35 -14 68t-39 59.5 t-57.5 42t-69.5 15.5t-69.5 -15.5t-57.5 -42t-39 -59.5t-14 -68v-168q0 -37 14 -70.5t39 -59t57.5 -42t69.5 -16.5t69.5 16.5t57.5 42t39 59.5t14 70v168zM1253 573q33 0 46.5 10.5t13.5 45.5q0 72 -53.5 117t-126.5 45q-70 0 -124.5 -43t-54.5 -115v-60h299z" />
<glyph unicode="&#x154;" horiz-adv-x="1167" d="M555 1669q-8 -4 -14 -6t-15 -2q-35 0 -58.5 32.5t-23.5 67.5q0 45 35 64l271 131q8 2 14 3t12 1q35 0 58.5 -33t23.5 -67q0 -18 -8 -35t-29 -27zM123 1415q0 33 23.5 57.5t62.5 24.5h405q100 0 188.5 -21.5t155 -70.5t104.5 -131t38 -205q0 -176 -77 -275.5t-192 -134.5 l269 -497q6 -8 8 -17.5t2 -15.5q0 -25 -15.5 -50.5t-39 -45t-53 -31.5t-58.5 -12t-52.5 16.5t-39.5 46.5l-291 565h-172v-534q0 -41 -41 -62.5t-92 -21.5q-49 0 -91 21.5t-42 62.5v1331zM389 1264v-437h225q100 0 160 48.5t60 168.5q0 121 -59.5 170.5t-160.5 49.5h-225z " />
<glyph unicode="&#x155;" horiz-adv-x="772" d="M330 1171q-8 -4 -14.5 -6t-14.5 -2q-35 0 -58.5 33t-23.5 68q0 45 35 63l270 131q8 2 14.5 3t12.5 1q35 0 58.5 -32.5t23.5 -67.5q0 -18 -8.5 -34.5t-28.5 -27.5zM602 754q-45 0 -87 -21.5t-74.5 -60.5t-53 -95.5t-20.5 -125.5v-367q0 -31 -40 -57.5t-96 -26.5 q-57 0 -93 26.5t-36 57.5v807q0 37 36 59.5t93 22.5q49 0 84 -22.5t35 -59.5v-84q14 33 40 64.5t58.5 57t71.5 41t82 15.5h64q37 0 66.5 -33.5t29.5 -81.5q0 -47 -30 -81.5t-66 -34.5h-64z" />
<glyph unicode="&#x156;" horiz-adv-x="1167" d="M481 -389q-8 -4 -14 -6t-14 -2q-35 0 -58.5 32.5t-23.5 67.5q0 43 35 61l270 132q14 6 26 6q35 0 58.5 -33t23.5 -68q0 -20 -8 -36.5t-28 -26.5zM123 1415q0 33 23.5 57.5t62.5 24.5h405q100 0 188.5 -21.5t155 -70.5t104.5 -131t38 -205q0 -176 -77 -275.5t-192 -134.5 l269 -497q6 -8 8 -17.5t2 -15.5q0 -25 -15.5 -50.5t-39 -45t-53 -31.5t-58.5 -12t-52.5 16.5t-39.5 46.5l-291 565h-172v-534q0 -41 -41 -62.5t-92 -21.5q-49 0 -91 21.5t-42 62.5v1331zM389 1264v-437h225q100 0 160 48.5t60 168.5q0 121 -59.5 170.5t-160.5 49.5h-225z " />
<glyph unicode="&#x157;" horiz-adv-x="772" d="M125 -389q-8 -4 -14.5 -6t-14.5 -2q-35 0 -58.5 32.5t-23.5 67.5q0 43 35 61l270 132q14 6 27 6q35 0 58.5 -33t23.5 -68q0 -20 -8 -36.5t-29 -26.5zM602 754q-45 0 -87 -21.5t-74.5 -60.5t-53 -95.5t-20.5 -125.5v-367q0 -31 -40 -57.5t-96 -26.5q-57 0 -93 26.5 t-36 57.5v807q0 37 36 59.5t93 22.5q49 0 84 -22.5t35 -59.5v-84q14 33 40 64.5t58.5 57t71.5 41t82 15.5h64q37 0 66.5 -33.5t29.5 -81.5q0 -47 -30 -81.5t-66 -34.5h-64z" />
<glyph unicode="&#x158;" horiz-adv-x="1167" d="M563 1853l209 136q14 8 25 8q27 0 42 -25.5t15 -54.5q0 -51 -43 -78l-211 -135q-23 -12 -37 -12q-18 0 -37 12l-211 135q-45 27 -45 78q0 29 16.5 54.5t41.5 25.5q14 0 24 -8zM123 1415q0 33 23.5 57.5t62.5 24.5h405q100 0 188.5 -21.5t155 -70.5t104.5 -131t38 -205 q0 -176 -77 -275.5t-192 -134.5l269 -497q6 -8 8 -17.5t2 -15.5q0 -25 -15.5 -50.5t-39 -45t-53 -31.5t-58.5 -12t-52.5 16.5t-39.5 46.5l-291 565h-172v-534q0 -41 -41 -62.5t-92 -21.5q-49 0 -91 21.5t-42 62.5v1331zM389 1264v-437h225q100 0 160 48.5t60 168.5 q0 121 -59.5 170.5t-160.5 49.5h-225z" />
<glyph unicode="&#x159;" horiz-adv-x="772" d="M395 1356l209 135q14 8 25 8q27 0 42 -25.5t15 -54.5q0 -51 -43 -78l-211 -135q-23 -12 -37 -12q-18 0 -37 12l-211 135q-45 27 -45 78q0 29 16.5 54.5t41.5 25.5q14 0 24 -8zM602 754q-45 0 -87 -21.5t-74.5 -60.5t-53 -95.5t-20.5 -125.5v-367q0 -31 -40 -57.5 t-96 -26.5q-57 0 -93 26.5t-36 57.5v807q0 37 36 59.5t93 22.5q49 0 84 -22.5t35 -59.5v-84q14 33 40 64.5t58.5 57t71.5 41t82 15.5h64q37 0 66.5 -33.5t29.5 -81.5q0 -47 -30 -81.5t-66 -34.5h-64z" />
<glyph unicode="&#x15a;" horiz-adv-x="1069" d="M471 1669q-8 -4 -14 -6t-15 -2q-35 0 -58.5 32.5t-23.5 67.5q0 45 35 64l271 131q8 2 14 3t12 1q35 0 58.5 -33t23.5 -67q0 -18 -8 -35t-29 -27zM514 221q92 0 160.5 43t68.5 135q0 76 -49 124t-121.5 86t-157.5 73t-158 87t-122 130t-49 199q0 115 45 192.5t115.5 125.5 t160 69.5t177.5 21.5q45 0 111.5 -6t128 -24.5t105.5 -50t44 -83.5q0 -18 -6 -41.5t-19.5 -46t-34 -38t-47.5 -15.5q-25 0 -47 12.5t-53 26.5t-75 26.5t-107 12.5q-111 0 -171.5 -42t-60.5 -116q0 -63 49.5 -103t122 -73t157.5 -68.5t157.5 -92t122 -141.5t49.5 -218 q0 -111 -37 -193.5t-101.5 -138t-153.5 -84t-196 -28.5q-100 0 -187 22.5t-150.5 59t-99.5 81.5t-36 91q0 20 9.5 45.5t25.5 47t36.5 36t45.5 14.5q31 0 60.5 -24.5t67.5 -54.5t90 -54.5t130 -24.5z" />
<glyph unicode="&#x15b;" horiz-adv-x="847" d="M346 1171q-8 -4 -14 -6t-15 -2q-35 0 -58 33t-23 68q0 45 34 63l271 131q8 2 14 3t12 1q35 0 58.5 -32.5t23.5 -67.5q0 -18 -8 -34.5t-29 -27.5zM412 182q90 0 119.5 29t29.5 59q0 45 -36 70t-90 41t-116.5 33.5t-117 47.5t-90 81t-35.5 137q0 55 18.5 109.5t61.5 97.5 t113.5 70.5t172.5 27.5q61 0 121 -10t105 -27.5t72.5 -42t27.5 -53.5q0 -14 -6 -35.5t-18.5 -42t-31 -35t-40.5 -14.5q-18 0 -40 9t-49.5 20.5t-60.5 20.5t-76 9q-78 0 -110.5 -30.5t-32.5 -61.5q0 -37 37 -57.5t91 -35.5t117.5 -32.5t118 -50.5t91.5 -89t37 -146 q0 -137 -97.5 -218t-279.5 -81q-78 0 -145.5 14t-118 38.5t-79 56.5t-28.5 67q0 16 6 36.5t18.5 38t29 29.5t34.5 12q23 0 44.5 -14t52 -31.5t72.5 -32t108 -14.5z" />
<glyph unicode="&#x15c;" horiz-adv-x="1069" d="M317 1683q-12 -6 -22 -6q-25 0 -41 24.5t-16 57.5q0 23 10 43.5t35 32.5l213 115q16 10 34 10q14 0 35 -10l213 -113q23 -14 33 -35.5t10 -44.5q0 -31 -16.5 -55.5t-40.5 -24.5q-12 0 -21 6l-213 115zM514 221q92 0 160.5 43t68.5 135q0 76 -49 124t-121.5 86t-157.5 73 t-158 87t-122 130t-49 199q0 115 45 192.5t115.5 125.5t160 69.5t177.5 21.5q45 0 111.5 -6t128 -24.5t105.5 -50t44 -83.5q0 -18 -6 -41.5t-19.5 -46t-34 -38t-47.5 -15.5q-25 0 -47 12.5t-53 26.5t-75 26.5t-107 12.5q-111 0 -171.5 -42t-60.5 -116q0 -63 49.5 -103 t122 -73t157.5 -68.5t157.5 -92t122 -141.5t49.5 -218q0 -111 -37 -193.5t-101.5 -138t-153.5 -84t-196 -28.5q-100 0 -187 22.5t-150.5 59t-99.5 81.5t-36 91q0 20 9.5 45.5t25.5 47t36.5 36t45.5 14.5q31 0 60.5 -24.5t67.5 -54.5t90 -54.5t130 -24.5z" />
<glyph unicode="&#x15d;" horiz-adv-x="847" d="M207 1186q-12 -6 -23 -6q-25 0 -41 24.5t-16 57.5q0 23 10 43t35 32l213 115q16 10 35 10q14 0 35 -10l213 -113q23 -14 33 -35.5t10 -43.5q0 -31 -16.5 -55.5t-41.5 -24.5q-12 0 -20 6l-213 114zM412 182q90 0 119.5 29t29.5 59q0 45 -36 70t-90 41t-116.5 33.5 t-117 47.5t-90 81t-35.5 137q0 55 18.5 109.5t61.5 97.5t113.5 70.5t172.5 27.5q61 0 121 -10t105 -27.5t72.5 -42t27.5 -53.5q0 -14 -6 -35.5t-18.5 -42t-31 -35t-40.5 -14.5q-18 0 -40 9t-49.5 20.5t-60.5 20.5t-76 9q-78 0 -110.5 -30.5t-32.5 -61.5q0 -37 37 -57.5 t91 -35.5t117.5 -32.5t118 -50.5t91.5 -89t37 -146q0 -137 -97.5 -218t-279.5 -81q-78 0 -145.5 14t-118 38.5t-79 56.5t-28.5 67q0 16 6 36.5t18.5 38t29 29.5t34.5 12q23 0 44.5 -14t52 -31.5t72.5 -32t108 -14.5z" />
<glyph unicode="&#x15e;" horiz-adv-x="1069" d="M514 221q92 0 160.5 43t68.5 135q0 76 -49 124t-121.5 86t-157.5 73t-158 87t-122 130t-49 199q0 115 45 192.5t115.5 125.5t160 69.5t177.5 21.5q45 0 111.5 -6t128 -24.5t105.5 -50t44 -83.5q0 -18 -6 -41.5t-19.5 -46t-34 -38t-47.5 -15.5q-25 0 -47 12.5t-53 26.5 t-75 26.5t-107 12.5q-111 0 -171.5 -42t-60.5 -116q0 -63 49.5 -103t122 -73t157.5 -68.5t157.5 -92t122 -141.5t49.5 -218q0 -195 -107.5 -304.5t-279.5 -131.5l-29 -94q104 -4 153.5 -50.5t49.5 -107.5q0 -27 -10.5 -58.5t-36 -58.5t-66.5 -45t-102 -18q-27 0 -57.5 3 t-56.5 11t-43 18.5t-17 26.5q0 6 3 18.5t8 25.5t14 22.5t22 9.5q16 0 41.5 -14.5t76.5 -14.5q96 0 97 68q0 66 -99 75l-112 11l47 164q-98 2 -181 25.5t-144.5 59t-96.5 81t-35 88.5q0 20 9.5 45.5t25.5 47t36.5 36t45.5 14.5q31 0 60.5 -24.5t67.5 -54.5t90 -54.5 t130 -24.5z" />
<glyph unicode="&#x15f;" horiz-adv-x="847" d="M412 182q90 0 119.5 29t29.5 59q0 45 -36 70t-90 41t-116.5 33.5t-117 47.5t-90 81t-35.5 137q0 55 18.5 109.5t61.5 97.5t113.5 70.5t172.5 27.5q61 0 121 -10t105 -27.5t72.5 -42t27.5 -53.5q0 -14 -6 -35.5t-18.5 -42t-31 -35t-40.5 -14.5q-18 0 -40 9t-49.5 20.5 t-60.5 20.5t-76 9q-78 0 -110.5 -30.5t-32.5 -61.5q0 -37 37 -57.5t91 -35.5t117.5 -32.5t118 -50.5t91.5 -89t37 -146q0 -123 -77 -201t-222 -94l-29 -90q104 -4 153.5 -50.5t49.5 -107.5q0 -27 -10.5 -58.5t-36 -58.5t-66.5 -45t-102 -18q-27 0 -57.5 3t-56.5 11t-43 18.5 t-17 26.5q0 6 3 18.5t8 25.5t14 22.5t22 9.5q16 0 41.5 -14.5t76.5 -14.5q96 0 97 68q0 66 -99 75l-112 11l47 166q-72 4 -132.5 19t-105.5 40t-69.5 54.5t-24.5 60.5q0 16 6 36.5t18.5 38t29 29.5t34.5 12q23 0 44.5 -14t52 -31.5t72.5 -32t108 -14.5z" />
<glyph unicode="&#x160;" horiz-adv-x="1069" d="M530 1853l209 136q14 8 25 8q27 0 42 -25.5t15 -54.5q0 -51 -43 -78l-211 -135q-23 -12 -37 -12q-18 0 -36 12l-211 135q-45 27 -45 78q0 29 16 54.5t41 25.5q14 0 24 -8zM514 221q92 0 160.5 43t68.5 135q0 76 -49 124t-121.5 86t-157.5 73t-158 87t-122 130t-49 199 q0 115 45 192.5t115.5 125.5t160 69.5t177.5 21.5q45 0 111.5 -6t128 -24.5t105.5 -50t44 -83.5q0 -18 -6 -41.5t-19.5 -46t-34 -38t-47.5 -15.5q-25 0 -47 12.5t-53 26.5t-75 26.5t-107 12.5q-111 0 -171.5 -42t-60.5 -116q0 -63 49.5 -103t122 -73t157.5 -68.5t157.5 -92 t122 -141.5t49.5 -218q0 -111 -37 -193.5t-101.5 -138t-153.5 -84t-196 -28.5q-100 0 -187 22.5t-150.5 59t-99.5 81.5t-36 91q0 20 9.5 45.5t25.5 47t36.5 36t45.5 14.5q31 0 60.5 -24.5t67.5 -54.5t90 -54.5t130 -24.5z" />
<glyph unicode="&#x161;" horiz-adv-x="847" d="M426 1356l209 135q14 8 24 8q27 0 42.5 -25.5t15.5 -54.5q0 -51 -43 -78l-211 -135q-23 -12 -37 -12q-18 0 -37 12l-211 135q-45 27 -45 78q0 29 16.5 54.5t40.5 25.5q14 0 25 -8zM412 182q90 0 119.5 29t29.5 59q0 45 -36 70t-90 41t-116.5 33.5t-117 47.5t-90 81 t-35.5 137q0 55 18.5 109.5t61.5 97.5t113.5 70.5t172.5 27.5q61 0 121 -10t105 -27.5t72.5 -42t27.5 -53.5q0 -14 -6 -35.5t-18.5 -42t-31 -35t-40.5 -14.5q-18 0 -40 9t-49.5 20.5t-60.5 20.5t-76 9q-78 0 -110.5 -30.5t-32.5 -61.5q0 -37 37 -57.5t91 -35.5t117.5 -32.5 t118 -50.5t91.5 -89t37 -146q0 -137 -97.5 -218t-279.5 -81q-78 0 -145.5 14t-118 38.5t-79 56.5t-28.5 67q0 16 6 36.5t18.5 38t29 29.5t34.5 12q23 0 44.5 -14t52 -31.5t72.5 -32t108 -14.5z" />
<glyph unicode="&#x162;" horiz-adv-x="1081" d="M440 -389q-8 -4 -14 -6t-14 -2q-35 0 -58.5 32.5t-23.5 67.5q0 43 35 61l270 132q14 6 27 6q35 0 58 -33t23 -68q0 -20 -8 -36.5t-28 -26.5zM975 1497q43 0 63.5 -38t20.5 -81q0 -47 -21.5 -84t-62.5 -37h-299v-1173q0 -41 -42 -62.5t-91 -21.5q-51 0 -92 21.5t-41 62.5 v1173h-301q-41 0 -62.5 36t-21.5 85q0 43 20.5 81t63.5 38h866z" />
<glyph unicode="&#x163;" horiz-adv-x="710" d="M248 -389q-8 -4 -14.5 -6t-14.5 -2q-35 0 -58.5 32.5t-23.5 67.5q0 43 35 61l270 132q14 6 27 6q35 0 58.5 -33t23.5 -68q0 -20 -8 -36.5t-29 -26.5zM365 332q0 -59 24.5 -84t89.5 -25h80q57 0 85 -34.5t28 -75.5q0 -43 -28 -78t-85 -35h-80q-186 0 -282.5 79t-96.5 253 v993q0 37 42 59.5t89 22.5q51 0 92.5 -22.5t41.5 -59.5v-352h241q33 0 50.5 -31t17.5 -65q0 -37 -17.5 -67t-50.5 -30h-241v-448z" />
<glyph unicode="&#x164;" horiz-adv-x="1081" d="M541 1853l209 136q14 8 24 8q27 0 42 -25.5t15 -54.5q0 -51 -43 -78l-210 -135q-23 -12 -37 -12q-18 0 -37 12l-211 135q-45 27 -45 78q0 29 16.5 54.5t40.5 25.5q14 0 25 -8zM975 1497q43 0 63.5 -38t20.5 -81q0 -47 -21.5 -84t-62.5 -37h-299v-1173q0 -41 -42 -62.5 t-91 -21.5q-51 0 -92 21.5t-41 62.5v1173h-301q-41 0 -62.5 36t-21.5 85q0 43 20.5 81t63.5 38h866z" />
<glyph unicode="&#x165;" horiz-adv-x="710" d="M588 1561q57 0 98 -41t41 -97q0 -10 -3 -25.5t-15.5 -47t-35 -86t-59.5 -142.5q-10 -18 -24.5 -25t-30.5 -7q-29 0 -58.5 17t-29.5 52q0 14 8 29l47 108q-35 18 -55 51t-20 74q0 57 40 98.5t97 41.5zM365 332q0 -59 24.5 -84t89.5 -25h80q57 0 85 -34.5t28 -75.5 q0 -43 -28 -78t-85 -35h-80q-186 0 -282.5 79t-96.5 253v993q0 37 42 59.5t89 22.5q51 0 92.5 -22.5t41.5 -59.5v-352h241q33 0 50.5 -31t17.5 -65q0 -37 -17.5 -67t-50.5 -30h-241v-448z" />
<glyph unicode="&#x166;" horiz-adv-x="1081" d="M975 1497q43 0 63.5 -38t20.5 -81q0 -47 -21.5 -84t-62.5 -37h-299v-413h172q35 0 52.5 -31t17.5 -65q0 -37 -17.5 -67t-52.5 -30h-172v-567q0 -41 -42 -62.5t-91 -21.5q-51 0 -92 21.5t-41 62.5v567h-177q-35 0 -51 30t-16 67q0 35 16.5 65.5t50.5 30.5h177v413h-301 q-41 0 -62.5 36t-21.5 85q0 43 20.5 81t63.5 38h866z" />
<glyph unicode="&#x167;" horiz-adv-x="712" d="M365 631h241q33 0 50.5 -31t17.5 -65q0 -39 -17.5 -68t-50.5 -29h-241v-106q0 -59 24.5 -84t89.5 -25h80q57 0 85 -34.5t28 -75.5q0 -43 -28 -78t-85 -35h-80q-186 0 -282.5 79t-96.5 253v993q0 37 42 59.5t89 22.5q51 0 92.5 -22.5t41.5 -59.5v-352h241q33 0 50.5 -31 t17.5 -65q0 -37 -17.5 -67t-50.5 -30h-241v-149z" />
<glyph unicode="&#x168;" horiz-adv-x="1216" d="M834 1415q0 43 40.5 62.5t92.5 19.5q49 0 91 -19.5t42 -62.5v-958q0 -129 -38 -218t-104.5 -144.5t-156.5 -81t-193 -25.5q-104 0 -193 25.5t-155.5 81t-104.5 144.5t-38 218v958q0 43 41 62.5t92 19.5q49 0 91 -19.5t42 -62.5v-958q0 -121 59.5 -178.5t165.5 -57.5 t166 57.5t60 178.5v958zM483 1761q-33 0 -56.5 -8t-42.5 -17.5t-35.5 -16.5t-33.5 -7q-20 0 -33.5 10.5t-20.5 24.5t-10 28.5t-3 22.5q0 47 20.5 75t49 42t58.5 18t48 4q45 0 80 -9t68.5 -20.5t67.5 -20.5t75 -9q33 0 57.5 7t43 16.5t33.5 17.5t32 8q20 0 32.5 -10 t20.5 -24.5t11 -29t3 -22.5q0 -47 -20.5 -74.5t-49 -42t-58 -18.5t-46.5 -4q-51 0 -88 9t-69.5 20.5t-63.5 20.5t-70 9z" />
<glyph unicode="&#x169;" d="M537 -18q-92 0 -173 33.5t-141.5 91t-95.5 133t-35 157.5v492q0 31 39 57.5t94 26.5q53 0 92 -26.5t39 -57.5v-492q0 -35 14.5 -67.5t39 -59t57.5 -42t70 -15.5t69.5 15.5t57 41t38 59t13.5 68.5v494q0 33 40 57.5t93 24.5q59 0 95 -24.5t36 -57.5v-494q0 -84 -35 -158.5 t-95.5 -132t-141 -91t-170.5 -33.5zM422 1264q-33 0 -56.5 -8.5t-43 -17.5t-36 -16.5t-32.5 -7.5q-20 0 -33.5 10.5t-20.5 25t-10.5 28.5t-3.5 22q0 47 20.5 75t49.5 42.5t58.5 18.5t47.5 4q45 0 80 -9.5t69 -20.5t67.5 -20.5t74.5 -9.5q33 0 57.5 7.5t43 16.5t34 17.5 t31.5 8.5q20 0 32.5 -10.5t21 -25t11.5 -28.5t3 -23q0 -47 -20.5 -74.5t-49.5 -42t-58.5 -18.5t-45.5 -4q-51 0 -88 9.5t-70 20.5t-63.5 20.5t-69.5 9.5z" />
<glyph unicode="&#x16a;" horiz-adv-x="1216" d="M834 1415q0 43 40.5 62.5t92.5 19.5q49 0 91 -19.5t42 -62.5v-958q0 -129 -38 -218t-104.5 -144.5t-156.5 -81t-193 -25.5q-104 0 -193 25.5t-155.5 81t-104.5 144.5t-38 218v958q0 43 41 62.5t92 19.5q49 0 91 -19.5t42 -62.5v-958q0 -121 59.5 -178.5t165.5 -57.5 t166 57.5t60 178.5v958zM311 1833q0 37 22.5 62.5t59.5 25.5h420q33 0 58.5 -25.5t25.5 -62.5q0 -39 -25.5 -62.5t-58.5 -23.5h-420q-37 0 -59.5 23.5t-22.5 62.5z" />
<glyph unicode="&#x16b;" d="M537 -18q-92 0 -173 33.5t-141.5 91t-95.5 133t-35 157.5v492q0 31 39 57.5t94 26.5q53 0 92 -26.5t39 -57.5v-492q0 -35 14.5 -67.5t39 -59t57.5 -42t70 -15.5t69.5 15.5t57 41t38 59t13.5 68.5v494q0 33 40 57.5t93 24.5q59 0 95 -24.5t36 -57.5v-494q0 -84 -35 -158.5 t-95.5 -132t-141 -91t-170.5 -33.5zM248 1335q0 37 22.5 62.5t59.5 25.5h420q33 0 58.5 -25.5t25.5 -62.5q0 -39 -26 -62.5t-58 -23.5h-420q-37 0 -59.5 23.5t-22.5 62.5z" />
<glyph unicode="&#x16c;" horiz-adv-x="1216" d="M834 1415q0 43 40.5 62.5t92.5 19.5q49 0 91 -19.5t42 -62.5v-958q0 -129 -38 -218t-104.5 -144.5t-156.5 -81t-193 -25.5q-104 0 -193 25.5t-155.5 81t-104.5 144.5t-38 218v958q0 43 41 62.5t92 19.5q49 0 91 -19.5t42 -62.5v-958q0 -121 59.5 -178.5t165.5 -57.5 t166 57.5t60 178.5v958zM874 1974q0 -55 -22.5 -104t-61 -86t-88 -59.5t-100.5 -22.5q-53 0 -102 22.5t-87 59.5t-60.5 86t-22.5 104h143q0 -68 40 -110.5t89 -42.5q47 0 88 43t41 110h143z" />
<glyph unicode="&#x16d;" d="M537 -18q-92 0 -173 33.5t-141.5 91t-95.5 133t-35 157.5v492q0 31 39 57.5t94 26.5q53 0 92 -26.5t39 -57.5v-492q0 -35 14.5 -67.5t39 -59t57.5 -42t70 -15.5t69.5 15.5t57 41t38 59t13.5 68.5v494q0 33 40 57.5t93 24.5q59 0 95 -24.5t36 -57.5v-494q0 -84 -35 -158.5 t-95.5 -132t-141 -91t-170.5 -33.5zM811 1477q0 -55 -22.5 -104.5t-61.5 -86.5t-88 -59.5t-100 -22.5q-53 0 -102.5 22.5t-87.5 59.5t-60.5 86t-22.5 105h144q0 -68 39.5 -111t89.5 -43q47 0 88 43t41 111h143z" />
<glyph unicode="&#x16e;" horiz-adv-x="1216" d="M604 2073q41 0 78 -16.5t64.5 -45.5t44 -65.5t16.5 -75.5q0 -41 -16.5 -78t-45 -65.5t-65.5 -46t-76 -17.5q-41 0 -76.5 17.5t-62.5 46t-43 65.5t-16 78q0 39 15 75.5t41.5 64.5t63.5 45.5t78 17.5zM696 1868q0 35 -25.5 63.5t-64.5 28.5q-41 0 -68.5 -28.5t-27.5 -63.5 t27.5 -67t68.5 -32q39 0 64.5 31t25.5 68zM834 1415q0 43 40.5 62.5t92.5 19.5q49 0 91 -19.5t42 -62.5v-958q0 -129 -38 -218t-104.5 -144.5t-156.5 -81t-193 -25.5q-104 0 -193 25.5t-155.5 81t-104.5 144.5t-38 218v958q0 43 41 62.5t92 19.5q49 0 91 -19.5t42 -62.5 v-958q0 -121 59.5 -178.5t165.5 -57.5t166 57.5t60 178.5v958z" />
<glyph unicode="&#x16f;" d="M532 1575q41 0 78 -16.5t64.5 -45t44 -65.5t16.5 -76q0 -41 -16.5 -78t-45 -65.5t-65.5 -46t-76 -17.5q-41 0 -76.5 17.5t-62 46t-43 65.5t-16.5 78q0 39 15.5 76t42 64.5t63 45t77.5 17.5zM625 1370q0 35 -26 63.5t-64 28.5q-41 0 -69 -28.5t-28 -63.5t28 -66.5 t69 -31.5q39 0 64.5 30.5t25.5 67.5zM537 -18q-92 0 -173 33.5t-141.5 91t-95.5 133t-35 157.5v492q0 31 39 57.5t94 26.5q53 0 92 -26.5t39 -57.5v-492q0 -35 14.5 -67.5t39 -59t57.5 -42t70 -15.5t69.5 15.5t57 41t38 59t13.5 68.5v494q0 33 40 57.5t93 24.5 q59 0 95 -24.5t36 -57.5v-494q0 -84 -35 -158.5t-95.5 -132t-141 -91t-170.5 -33.5z" />
<glyph unicode="&#x170;" horiz-adv-x="1216" d="M834 1415q0 43 40.5 62.5t92.5 19.5q49 0 91 -19.5t42 -62.5v-958q0 -129 -38 -218t-104.5 -144.5t-156.5 -81t-193 -25.5q-104 0 -193 25.5t-155.5 81t-104.5 144.5t-38 218v958q0 43 41 62.5t92 19.5q49 0 91 -19.5t42 -62.5v-958q0 -121 59.5 -178.5t165.5 -57.5 t166 57.5t60 178.5v958zM473 1675q-16 -18 -39 -18q-31 0 -56.5 24.5t-25.5 53.5q0 18 15 32l172 181q14 16 39 16q29 0 53 -25.5t24 -52.5q0 -20 -14 -35zM795 1675q-16 -18 -39 -18q-31 0 -56.5 24.5t-25.5 53.5q0 18 14 32l172 181q16 16 39 16q29 0 53.5 -25.5 t24.5 -52.5q0 -20 -14 -35z" />
<glyph unicode="&#x171;" d="M537 -18q-92 0 -173 33.5t-141.5 91t-95.5 133t-35 157.5v492q0 31 39 57.5t94 26.5q53 0 92 -26.5t39 -57.5v-492q0 -35 14.5 -67.5t39 -59t57.5 -42t70 -15.5t69.5 15.5t57 41t38 59t13.5 68.5v494q0 33 40 57.5t93 24.5q59 0 95 -24.5t36 -57.5v-494q0 -84 -35 -158.5 t-95.5 -132t-141 -91t-170.5 -33.5zM401 1178q-16 -18 -39 -19q-31 0 -56 24.5t-25 53.5q0 18 14 33l172 180q14 16 39 16q29 0 53.5 -25.5t24.5 -51.5q0 -20 -15 -35zM723 1178q-16 -18 -39 -19q-31 0 -56.5 24.5t-25.5 53.5q0 18 14 33l172 180q16 16 39 16 q29 0 53.5 -25.5t24.5 -51.5q0 -20 -14 -35z" />
<glyph unicode="&#x172;" horiz-adv-x="1216" d="M834 1415q0 43 40.5 62.5t92.5 19.5q49 0 91 -19.5t42 -62.5v-958q0 -190 -82 -297t-211 -146q-68 -43 -114 -109.5t-46 -131.5q0 -45 29 -71t94 -26q27 0 37 -19t10 -40q0 -23 -11 -38t-48 -15q-119 0 -179.5 51t-60.5 133q0 63 28.5 124.5t80.5 115.5h-19 q-104 0 -193 25.5t-155.5 81t-104.5 144.5t-38 218v958q0 43 41 62.5t92 19.5q49 0 91 -19.5t42 -62.5v-958q0 -121 59.5 -178.5t165.5 -57.5t166 57.5t60 178.5v958z" />
<glyph unicode="&#x173;" d="M668 -324q27 0 37 -19t10 -40q0 -23 -11.5 -38t-48.5 -15q-119 0 -179 51t-60 133q0 61 26.5 121.5t75.5 112.5q-88 4 -166 38.5t-135 92t-91 131t-34 153.5v492q0 31 39 57.5t94 26.5q53 0 92 -26.5t39 -57.5v-492q0 -35 14.5 -67.5t39 -59t57.5 -42t70 -15.5t69.5 15.5 t57 41t38 59t13.5 68.5v494q0 33 40 57.5t93 24.5q59 0 95 -24.5t36 -57.5v-494q0 -63 -20.5 -121.5t-57.5 -108.5t-87 -89t-109 -64q-68 -43 -114 -109.5t-46 -131.5q0 -45 28.5 -71t94.5 -26z" />
<glyph unicode="&#x174;" horiz-adv-x="1808" d="M692 1683q-12 -6 -22 -6q-25 0 -41.5 24.5t-16.5 57.5q0 23 10.5 43.5t34.5 32.5l213 115q16 10 35 10q14 0 35 -10l213 -113q23 -14 33 -35.5t10 -44.5q0 -31 -16.5 -55.5t-40.5 -24.5q-12 0 -21 6l-213 115zM1380 78q-16 -47 -65 -68.5t-109 -21.5q-57 0 -108 21.5 t-62 68.5l-131 553l-133 -553q-10 -47 -61.5 -68.5t-108.5 -21.5q-59 0 -109.5 21.5t-64.5 68.5l-405 1288q-4 12 -5 25q0 23 16.5 42t41 33.5t54.5 22.5t58 8q31 0 55.5 -12t32.5 -41l324 -1110l174 713q10 39 48 56t83 17q43 0 81 -17.5t48 -55.5l174 -713l324 1110 q8 29 32.5 41t55.5 12q29 0 58.5 -8t54 -22.5t41 -34t16.5 -41.5q0 -12 -4 -25z" />
<glyph unicode="&#x175;" horiz-adv-x="1419" d="M500 1186q-12 -6 -23 -6q-25 0 -41 24.5t-16 57.5q0 23 10 43t35 32l213 115q16 10 35 10q14 0 35 -10l213 -113q23 -14 33 -35.5t10 -43.5q0 -31 -16.5 -55.5t-41.5 -24.5q-12 0 -20 6l-213 114zM1081 25q-10 -27 -39.5 -37.5t-64.5 -10.5q-39 0 -68.5 12.5t-40.5 35.5 l-157 446l-156 -444q-10 -25 -42 -37.5t-71 -12.5q-33 0 -62.5 10.5t-39.5 39.5l-315 809q-10 20 -11 38q0 25 17.5 44.5t43 34t55.5 22.5t56 8q27 0 47.5 -10t28.5 -33l205 -582l154 506q10 35 34.5 44.5t55.5 9.5q29 0 54.5 -9.5t35.5 -44.5l151 -508l207 584q16 43 76 43 q25 0 54.5 -8t55 -22.5t43 -35t17.5 -45.5q0 -23 -8 -36z" />
<glyph unicode="&#x176;" horiz-adv-x="1175" d="M455 600q0 16 -6 27l-424 733q-6 14 -7 26q0 25 17.5 45.5t44 35t57.5 22.5t58 8q33 0 50 -12t31 -41l312 -592l313 592q14 27 30.5 40t49.5 13q27 0 57.5 -8t57 -22.5t44 -35t17.5 -45.5q0 -4 -1 -11t-5 -15l-422 -733q-8 -12 -8 -27v-516q0 -41 -41 -62.5t-92 -21.5 q-49 0 -91 21.5t-42 62.5v516zM377 1683q-12 -6 -23 -6q-25 0 -41 24.5t-16 57.5q0 23 10 43.5t35 32.5l213 115q16 10 35 10q14 0 35 -10l213 -113q23 -14 33 -35.5t10 -44.5q0 -31 -16.5 -55.5t-41.5 -24.5q-12 0 -20 6l-213 115z" />
<glyph unicode="&#x177;" horiz-adv-x="974" d="M20 825q-8 20 -8 35q0 27 18.5 49.5t45 40t57.5 27.5t55 10q27 0 47.5 -10t28.5 -35l246 -612l199 612q8 25 27.5 35t41.5 10q25 0 55.5 -10t58.5 -27.5t47 -42t19 -51.5q0 -16 -6 -31l-299 -764q-37 -92 -70.5 -184t-88 -164.5t-139.5 -119t-222 -46.5q-51 0 -86 19.5 t-35 93.5q0 45 15.5 78t52.5 33q33 0 81 12t93 46t79 92.5t40 150.5zM299 1186q-12 -6 -23 -6q-25 0 -41 24.5t-16 57.5q0 23 10.5 43t34.5 32l213 115q16 10 35 10q14 0 35 -10l213 -113q23 -14 33 -35.5t10 -43.5q0 -31 -16.5 -55.5t-41.5 -24.5q-12 0 -20 6l-213 114z " />
<glyph unicode="&#x178;" horiz-adv-x="1175" d="M455 600q0 16 -6 27l-424 733q-6 14 -7 26q0 25 17.5 45.5t44 35t57.5 22.5t58 8q33 0 50 -12t31 -41l312 -592l313 592q14 27 30.5 40t49.5 13q27 0 57.5 -8t57 -22.5t44 -35t17.5 -45.5q0 -4 -1 -11t-5 -15l-422 -733q-8 -12 -8 -27v-516q0 -41 -41 -62.5t-92 -21.5 q-49 0 -91 21.5t-42 62.5v516zM436 1894q43 0 73 -31.5t30 -74.5t-30 -76t-73 -33t-73.5 33t-30.5 76t30.5 74.5t73.5 31.5zM743 1894q41 0 72 -31.5t31 -74.5t-31 -76t-72 -33q-45 0 -75.5 33t-30.5 76t30.5 74.5t75.5 31.5z" />
<glyph unicode="&#x179;" horiz-adv-x="1069" d="M487 1669q-8 -4 -14 -6t-14 -2q-35 0 -58.5 32.5t-23.5 67.5q0 45 35 64l270 131q8 2 14 3t13 1q35 0 58.5 -33t23.5 -67q0 -18 -8.5 -35t-28.5 -27zM369 233h589q41 0 62.5 -37.5t21.5 -78.5t-21.5 -79t-62.5 -38h-849q-41 0 -60.5 20.5t-19.5 53.5q0 45 28 92l609 1098 h-519q-41 0 -61 34.5t-20 81.5q0 43 19 80t62 37h779q41 0 60.5 -20.5t19.5 -51.5q0 -45 -31 -96z" />
<glyph unicode="&#x17a;" horiz-adv-x="894" d="M426 1171q-8 -4 -14 -6t-15 -2q-35 0 -58.5 33t-23.5 68q0 45 35 63l271 131q8 2 14 3t12 1q35 0 58.5 -32.5t23.5 -67.5q0 -18 -8 -34.5t-29 -27.5zM780 215q33 0 55.5 -30.5t22.5 -78.5q0 -43 -21.5 -74.5t-56.5 -31.5h-647q-49 0 -69.5 29.5t-20.5 64.5 q0 31 14.5 58.5t30.5 48.5l404 557h-355q-33 0 -55.5 30.5t-22.5 77.5q0 43 21.5 75t56.5 32h602q35 0 60.5 -21.5t25.5 -68.5q0 -57 -41 -111l-405 -557h401z" />
<glyph unicode="&#x17b;" horiz-adv-x="1069" d="M369 233h589q41 0 62.5 -37.5t21.5 -78.5t-21.5 -79t-62.5 -38h-849q-41 0 -60.5 20.5t-19.5 53.5q0 45 28 92l609 1098h-519q-41 0 -61 34.5t-20 81.5q0 43 19 80t62 37h779q41 0 60.5 -20.5t19.5 -51.5q0 -45 -31 -96zM555 1894q43 0 72.5 -31.5t29.5 -74.5t-29.5 -76 t-72.5 -33t-73.5 33t-30.5 76t30.5 74.5t73.5 31.5z" />
<glyph unicode="&#x17c;" horiz-adv-x="894" d="M780 215q33 0 55.5 -30.5t22.5 -78.5q0 -43 -21.5 -74.5t-56.5 -31.5h-647q-49 0 -69.5 29.5t-20.5 64.5q0 31 14.5 58.5t30.5 48.5l404 557h-355q-33 0 -55.5 30.5t-22.5 77.5q0 43 21.5 75t56.5 32h602q35 0 60.5 -21.5t25.5 -68.5q0 -57 -41 -111l-405 -557h401z M453 1397q43 0 72.5 -32t29.5 -75t-29.5 -75.5t-72.5 -32.5t-74 32.5t-31 75.5t31 75t74 32z" />
<glyph unicode="&#x17d;" horiz-adv-x="1069" d="M541 1853l209 136q14 8 24 8q27 0 42 -25.5t15 -54.5q0 -51 -43 -78l-210 -135q-23 -12 -37 -12q-18 0 -37 12l-211 135q-45 27 -45 78q0 29 16.5 54.5t40.5 25.5q14 0 25 -8zM369 233h589q41 0 62.5 -37.5t21.5 -78.5t-21.5 -79t-62.5 -38h-849q-41 0 -60.5 20.5 t-19.5 53.5q0 45 28 92l609 1098h-519q-41 0 -61 34.5t-20 81.5q0 43 19 80t62 37h779q41 0 60.5 -20.5t19.5 -51.5q0 -45 -31 -96z" />
<glyph unicode="&#x17e;" horiz-adv-x="894" d="M453 1356l209 135q14 8 24 8q27 0 42 -25.5t15 -54.5q0 -51 -43 -78l-211 -135q-23 -12 -36 -12q-18 0 -37 12l-211 135q-45 27 -45 78q0 29 16.5 54.5t40.5 25.5q14 0 25 -8zM780 215q33 0 55.5 -30.5t22.5 -78.5q0 -43 -21.5 -74.5t-56.5 -31.5h-647q-49 0 -69.5 29.5 t-20.5 64.5q0 31 14.5 58.5t30.5 48.5l404 557h-355q-33 0 -55.5 30.5t-22.5 77.5q0 43 21.5 75t56.5 32h602q35 0 60.5 -21.5t25.5 -68.5q0 -57 -41 -111l-405 -557h401z" />
<glyph unicode="&#x192;" horiz-adv-x="790" d="M455 911h254q35 0 51 -29.5t16 -64.5q0 -39 -17.5 -68.5t-51.5 -29.5h-281l-78 -565q-12 -86 -38.5 -164t-71.5 -138.5t-107.5 -96.5t-146.5 -36h-52q-39 0 -59 35t-20 82q0 53 25.5 91t64.5 38h45q41 0 66.5 56.5t35.5 132.5l137 1007q12 86 52 161t101.5 130t137.5 88 t160 33h106q35 0 56.5 -32t21.5 -79q0 -53 -26.5 -87t-61.5 -34h-100q-78 0 -124 -50t-58 -130z" />
<glyph unicode="&#x1fc;" horiz-adv-x="1611" d="M856 1663q-8 -4 -14 -6t-15 -2q-35 0 -58.5 32.5t-23.5 67.5q0 45 35 64l271 131q8 2 14 3t12 1q35 0 58.5 -33t23.5 -68q0 -18 -8 -34.5t-29 -26.5zM1028 854h244q41 0 62.5 -33t21.5 -73q0 -35 -20.5 -69t-63.5 -34h-244v-412h467q41 0 62.5 -35.5t21.5 -82.5 q0 -41 -19.5 -78t-64.5 -37h-616q-45 0 -81 21.5t-36 62.5v561h-393v-551q0 -20 -4.5 -37.5t-18.5 -30t-40.5 -19.5t-69.5 -7q-66 0 -92.5 26.5t-26.5 67.5v934q0 129 36.5 218t99 144.5t147.5 81t184 25.5h911q45 0 64.5 -37t19.5 -78q0 -47 -21.5 -82.5t-62.5 -35.5h-467 v-410zM369 854h393v410h-178q-102 0 -158.5 -57.5t-56.5 -178.5v-174z" />
<glyph unicode="&#x1fd;" horiz-adv-x="1531" d="M690 1171q-8 -4 -14 -6t-14 -2q-35 0 -58.5 33t-23.5 68q0 45 34 63l271 131q8 2 14 3t12 1q35 0 58.5 -32.5t23.5 -67.5q0 -18 -8 -34.5t-29 -27.5zM1053 985q82 0 158.5 -26.5t135 -77t94.5 -123t36 -164.5q0 -61 -15.5 -96t-41 -53.5t-61.5 -22.5t-75 -4h-414v-31 q0 -90 67 -143.5t171 -53.5q51 0 88 12.5t66.5 27t53 26.5t46.5 12t41 -12t30.5 -29.5t19.5 -38t7 -36.5q0 -29 -27.5 -59t-75.5 -54.5t-114.5 -40.5t-146.5 -16q-121 0 -218.5 51t-160.5 145q-72 -92 -167 -144t-192 -52q-63 0 -119.5 16t-99.5 50t-68.5 84t-25.5 120 q0 88 35 147.5t97.5 93t150.5 48t194 14.5h82v29q0 33 -9 66.5t-30.5 60t-55.5 44t-85 17.5q-59 0 -95 -10t-60.5 -22.5t-41 -22.5t-34.5 -10q-45 0 -69 43t-24 90q0 31 31 57.5t79 46t106.5 30.5t113.5 11q115 0 193.5 -44t126.5 -116q57 72 134 116t169 44zM1169 573 q35 0 47.5 11.5t12.5 42.5q0 74 -53.5 119t-126.5 45q-72 0 -125.5 -43t-53.5 -117v-58h299zM604 418h-31q-51 0 -99 -4t-85 -17.5t-58.5 -40t-21.5 -69.5q0 -55 31 -82t78 -27q33 0 65.5 16.5t59 44t44 63.5t17.5 73v43z" />
<glyph unicode="&#x1fe;" horiz-adv-x="1173" d="M948 1579q37 0 70 -25.5t33 -66.5q0 -20 -9 -37l-59 -119q41 -55 62.5 -130t21.5 -173v-571q0 -129 -37 -218t-102.5 -144.5t-153.5 -81t-188 -25.5q-68 0 -129.5 10t-114.5 35l-35 -70q-10 -23 -32.5 -34t-47.5 -11q-45 0 -71.5 28.5t-26.5 61.5q0 18 10 35l54 107 q-41 55 -64 130.5t-23 176.5v571q0 129 37 218t101.5 144.5t151.5 81t190 25.5q68 0 130 -11t115 -36l43 86q10 23 30.5 33t43.5 10zM373 516l348 709q-51 39 -135 39q-102 0 -157.5 -56.5t-55.5 -179.5v-512zM801 961l-348 -705q49 -35 133 -35q100 0 157.5 56.5 t57.5 179.5v504zM528 1669q-8 -4 -14 -6t-14 -2q-35 0 -58.5 32.5t-23.5 67.5q0 45 35 64l270 131q8 2 14 3t13 1q35 0 58 -33t23 -67q0 -18 -8 -35t-28 -27z" />
<glyph unicode="&#x1ff;" horiz-adv-x="1019" d="M510 985q127 0 231 -63l70 98q16 25 41 24q25 0 43 -18t18 -41q0 -18 -14 -39l-68 -94q57 -57 90 -129t33 -154v-168q0 -82 -35.5 -157.5t-97 -134t-142.5 -93t-169 -34.5q-68 0 -130.5 19t-115.5 54l-71 -102q-12 -18 -35 -19q-20 0 -39 16.5t-19 39.5q0 8 4.5 16 t8.5 17l69 100q-53 57 -84.5 129t-31.5 149v168q0 82 34.5 158t95 133.5t141.5 91t173 33.5zM489 1171q-8 -4 -14 -6t-14 -2q-35 0 -58.5 33t-23.5 68q0 45 35 63l270 131q8 2 14.5 3t12.5 1q35 0 58.5 -32.5t23.5 -67.5q0 -18 -8.5 -34.5t-28.5 -27.5zM690 569 q0 16 -4 31.5t-10 32.5l-273 -383q23 -16 49.5 -26.5t57.5 -10.5q37 0 69.5 16.5t57.5 42t39 59.5t14 70v168zM330 401q0 -33 8 -57l266 379q-47 31 -94 31q-37 0 -69.5 -15.5t-57.5 -42t-39 -59.5t-14 -68v-168z" />
<glyph unicode="&#x218;" horiz-adv-x="1069" d="M457 -389q-8 -4 -14.5 -6t-14.5 -2q-35 0 -58.5 32.5t-23.5 67.5q0 43 35 61l270 132q14 6 27 6q35 0 58.5 -33t23.5 -68q0 -20 -8.5 -36.5t-28.5 -26.5zM514 221q92 0 160.5 43t68.5 135q0 76 -49 124t-121.5 86t-157.5 73t-158 87t-122 130t-49 199q0 115 45 192.5 t115.5 125.5t160 69.5t177.5 21.5q45 0 111.5 -6t128 -24.5t105.5 -50t44 -83.5q0 -18 -6 -41.5t-19.5 -46t-34 -38t-47.5 -15.5q-25 0 -47 12.5t-53 26.5t-75 26.5t-107 12.5q-111 0 -171.5 -42t-60.5 -116q0 -63 49.5 -103t122 -73t157.5 -68.5t157.5 -92t122 -141.5 t49.5 -218q0 -111 -37 -193.5t-101.5 -138t-153.5 -84t-196 -28.5q-100 0 -187 22.5t-150.5 59t-99.5 81.5t-36 91q0 20 9.5 45.5t25.5 47t36.5 36t45.5 14.5q31 0 60.5 -24.5t67.5 -54.5t90 -54.5t130 -24.5z" />
<glyph unicode="&#x219;" horiz-adv-x="847" d="M334 -389q-8 -4 -14.5 -6t-14.5 -2q-35 0 -58.5 32.5t-23.5 67.5q0 43 35 61l270 132q14 6 27 6q35 0 58.5 -33t23.5 -68q0 -20 -8 -36.5t-29 -26.5zM412 182q90 0 119.5 29t29.5 59q0 45 -36 70t-90 41t-116.5 33.5t-117 47.5t-90 81t-35.5 137q0 55 18.5 109.5 t61.5 97.5t113.5 70.5t172.5 27.5q61 0 121 -10t105 -27.5t72.5 -42t27.5 -53.5q0 -14 -6 -35.5t-18.5 -42t-31 -35t-40.5 -14.5q-18 0 -40 9t-49.5 20.5t-60.5 20.5t-76 9q-78 0 -110.5 -30.5t-32.5 -61.5q0 -37 37 -57.5t91 -35.5t117.5 -32.5t118 -50.5t91.5 -89t37 -146 q0 -137 -97.5 -218t-279.5 -81q-78 0 -145.5 14t-118 38.5t-79 56.5t-28.5 67q0 16 6 36.5t18.5 38t29 29.5t34.5 12q23 0 44.5 -14t52 -31.5t72.5 -32t108 -14.5z" />
<glyph unicode="&#x237;" horiz-adv-x="473" d="M233 973q57 0 96.5 -22.5t39.5 -59.5v-957q0 -86 -19.5 -156.5t-58.5 -121.5t-97.5 -80t-134.5 -29q-41 0 -67.5 9.5t-42 25t-21.5 34.5t-6 40q0 53 30 84t71 31q55 0 68 46t13 117v957q0 37 37 59.5t92 22.5z" />
<glyph unicode="&#x259;" horiz-adv-x="991" d="M479 -18q-86 0 -162.5 28.5t-135 78.5t-92.5 121t-34 157q0 66 17.5 102.5t45 54t61.5 21.5t69 4h416v31q0 90 -67 143t-173 53q-51 0 -89 -12t-66.5 -26.5t-52 -27t-46.5 -12.5t-41 12.5t-30.5 31t-19.5 38t-7 35.5q0 27 25.5 56.5t71.5 55t112.5 42t150.5 16.5 q109 0 199 -29.5t155.5 -85t102.5 -133.5t37 -172v-174q0 -84 -35 -157.5t-95.5 -130t-142.5 -89t-174 -32.5zM365 393q-35 0 -48.5 -10t-13.5 -45q0 -72 53.5 -117t126.5 -45q72 0 126.5 43t54.5 117v57h-299z" />
<glyph unicode="&#x2c6;" horiz-adv-x="583" d="M80 1186q-12 -6 -23 -6q-25 0 -41 24.5t-16 57.5q0 23 10 43t35 32l213 115q16 10 35 10q14 0 35 -10l213 -113q23 -14 33 -35.5t10 -43.5q0 -31 -16.5 -55.5t-41.5 -24.5q-12 0 -20 6l-213 114z" />
<glyph unicode="&#x2c7;" horiz-adv-x="591" d="M297 1356l209 135q14 8 24 8q27 0 42.5 -25.5t15.5 -54.5q0 -51 -43 -78l-211 -135q-23 -12 -37 -12q-18 0 -37 12l-211 135q-45 27 -45 78q0 29 16.5 54.5t40.5 25.5q14 0 25 -8z" />
<glyph unicode="&#x2d8;" horiz-adv-x="544" d="M545 1477q0 -55 -22.5 -104.5t-61.5 -86.5t-88 -59.5t-101 -22.5q-53 0 -102 22.5t-87 59.5t-60.5 86t-22.5 105h143q0 -68 40 -111t89 -43q47 0 88 43t41 111h144z" />
<glyph unicode="&#x2d9;" horiz-adv-x="391" d="M205 1397q43 0 72.5 -32t29.5 -75t-29.5 -75.5t-72.5 -32.5t-74 32.5t-31 75.5t31 75t74 32z" />
<glyph unicode="&#x2da;" horiz-adv-x="401" d="M199 1575q41 0 77.5 -16.5t64.5 -45t44 -65.5t16 -76q0 -41 -16 -78t-45 -65.5t-65.5 -46t-75.5 -17.5q-41 0 -77 17.5t-62.5 46t-43 65.5t-16.5 78q0 39 15.5 76t42 64.5t63.5 45t78 17.5zM291 1370q0 35 -25.5 63.5t-64.5 28.5q-41 0 -69 -28.5t-28 -63.5t28 -66.5 t69 -31.5q39 0 64.5 30.5t25.5 67.5z" />
<glyph unicode="&#x2db;" horiz-adv-x="299" d="M252 -324q27 0 37 -19t10 -40q0 -23 -11.5 -38t-47.5 -15q-119 0 -179.5 51t-60.5 133q0 86 51 168t142 137l96 -39q-68 -43 -114 -109.5t-46 -131.5q0 -45 28.5 -71t94.5 -26z" />
<glyph unicode="&#x2dc;" horiz-adv-x="700" d="M236 1264q-33 0 -56.5 -8.5t-43 -17.5t-36 -16.5t-32.5 -7.5q-20 0 -34 10.5t-21 25t-10 28.5t-3 22q0 47 20.5 75t49 42.5t58.5 18.5t48 4q45 0 80 -9.5t68.5 -20.5t67.5 -20.5t75 -9.5q33 0 57.5 7.5t43 16.5t33.5 17.5t32 8.5q20 0 32.5 -10.5t20.5 -25t11 -28.5 t3 -23q0 -47 -20.5 -74.5t-49 -42t-58 -18.5t-46.5 -4q-51 0 -88 9.5t-69.5 20.5t-63 20.5t-69.5 9.5z" />
<glyph unicode="&#x2dd;" horiz-adv-x="624" d="M121 1178q-16 -18 -39 -19q-31 0 -56.5 24.5t-25.5 53.5q0 18 14 33l172 180q14 16 39 16q29 0 53.5 -25.5t24.5 -51.5q0 -20 -14 -35zM442 1178q-16 -18 -39 -19q-31 0 -56 24.5t-25 53.5q0 18 14 33l172 180q16 16 39 16q29 0 53.5 -25.5t24.5 -51.5q0 -20 -15 -35z " />
<glyph unicode="&#x3c0;" horiz-adv-x="1105" d="M887 973q45 0 81 -21.5t36 -62.5v-807q0 -43 -41 -62.5t-93 -19.5q-49 0 -91 19.5t-42 62.5v657h-370v-657q0 -43 -41 -62.5t-93 -19.5q-49 0 -90 19.5t-41 62.5v807q0 41 36 62.5t81 21.5h668z" />
<glyph unicode="&#x1e80;" horiz-adv-x="1808" d="M1380 78q-16 -47 -65 -68.5t-109 -21.5q-57 0 -108 21.5t-62 68.5l-131 553l-133 -553q-10 -47 -61.5 -68.5t-108.5 -21.5q-59 0 -109.5 21.5t-64.5 68.5l-405 1288q-4 12 -5 25q0 23 16.5 42t41 33.5t54.5 22.5t58 8q31 0 55.5 -12t32.5 -41l324 -1110l174 713 q10 39 48 56t83 17q43 0 81 -17.5t48 -55.5l174 -713l324 1110q8 29 32.5 41t55.5 12q29 0 58.5 -8t54 -22.5t41 -34t16.5 -41.5q0 -12 -4 -25zM702 1798q-20 10 -28 26.5t-8 35.5q0 35 23.5 67.5t58.5 32.5q6 0 12 -1t14 -3l270 -131q35 -18 35 -64q0 -35 -23.5 -67.5 t-58.5 -32.5q-8 0 -14 2t-14 6z" />
<glyph unicode="&#x1e81;" horiz-adv-x="1419" d="M1081 25q-10 -27 -39.5 -37.5t-64.5 -10.5q-39 0 -68.5 12.5t-40.5 35.5l-157 446l-156 -444q-10 -25 -42 -37.5t-71 -12.5q-33 0 -62.5 10.5t-39.5 39.5l-315 809q-10 20 -11 38q0 25 17.5 44.5t43 34t55.5 22.5t56 8q27 0 47.5 -10t28.5 -33l205 -582l154 506 q10 35 34.5 44.5t55.5 9.5q29 0 54.5 -9.5t35.5 -44.5l151 -508l207 584q16 43 76 43q25 0 54.5 -8t55 -22.5t43 -35t17.5 -45.5q0 -23 -8 -36zM492 1300q-20 10 -28.5 26.5t-8.5 35.5q0 35 23.5 67.5t58.5 32.5q6 0 12 -1t14 -3l271 -131q35 -18 34 -63q0 -35 -23.5 -68 t-58.5 -33q-8 0 -14 2t-14 6z" />
<glyph unicode="&#x1e82;" horiz-adv-x="1808" d="M842 1669q-8 -4 -14.5 -6t-14.5 -2q-35 0 -58.5 32.5t-23.5 67.5q0 45 35 64l270 131q8 2 14.5 3t12.5 1q35 0 58.5 -33t23.5 -67q0 -18 -8.5 -35t-28.5 -27zM1380 78q-16 -47 -65 -68.5t-109 -21.5q-57 0 -108 21.5t-62 68.5l-131 553l-133 -553q-10 -47 -61.5 -68.5 t-108.5 -21.5q-59 0 -109.5 21.5t-64.5 68.5l-405 1288q-4 12 -5 25q0 23 16.5 42t41 33.5t54.5 22.5t58 8q31 0 55.5 -12t32.5 -41l324 -1110l174 713q10 39 48 56t83 17q43 0 81 -17.5t48 -55.5l174 -713l324 1110q8 29 32.5 41t55.5 12q29 0 58.5 -8t54 -22.5t41 -34 t16.5 -41.5q0 -12 -4 -25z" />
<glyph unicode="&#x1e83;" horiz-adv-x="1419" d="M662 1171q-8 -4 -14.5 -6t-14.5 -2q-35 0 -58.5 33t-23.5 68q0 45 35 63l270 131q8 2 14.5 3t12.5 1q35 0 58.5 -32.5t23.5 -67.5q0 -18 -8.5 -34.5t-28.5 -27.5zM1081 25q-10 -27 -39.5 -37.5t-64.5 -10.5q-39 0 -68.5 12.5t-40.5 35.5l-157 446l-156 -444 q-10 -25 -42 -37.5t-71 -12.5q-33 0 -62.5 10.5t-39.5 39.5l-315 809q-10 20 -11 38q0 25 17.5 44.5t43 34t55.5 22.5t56 8q27 0 47.5 -10t28.5 -33l205 -582l154 506q10 35 34.5 44.5t55.5 9.5q29 0 54.5 -9.5t35.5 -44.5l151 -508l207 584q16 43 76 43q25 0 54.5 -8 t55 -22.5t43 -35t17.5 -45.5q0 -23 -8 -36z" />
<glyph unicode="&#x1e84;" horiz-adv-x="1808" d="M752 1894q43 0 72.5 -31.5t29.5 -74.5t-29.5 -76t-72.5 -33t-74 33t-31 76t31 74.5t74 31.5zM1059 1894q41 0 71.5 -31.5t30.5 -74.5t-30.5 -76t-71.5 -33q-45 0 -76 33t-31 76t31 74.5t76 31.5zM1380 78q-16 -47 -65 -68.5t-109 -21.5q-57 0 -108 21.5t-62 68.5 l-131 553l-133 -553q-10 -47 -61.5 -68.5t-108.5 -21.5q-59 0 -109.5 21.5t-64.5 68.5l-405 1288q-4 12 -5 25q0 23 16.5 42t41 33.5t54.5 22.5t58 8q31 0 55.5 -12t32.5 -41l324 -1110l174 713q10 39 48 56t83 17q43 0 81 -17.5t48 -55.5l174 -713l324 1110q8 29 32.5 41 t55.5 12q29 0 58.5 -8t54 -22.5t41 -34t16.5 -41.5q0 -12 -4 -25z" />
<glyph unicode="&#x1e85;" horiz-adv-x="1419" d="M559 1397q43 0 73 -32t30 -75t-30 -75.5t-73 -32.5t-73.5 32.5t-30.5 75.5t30.5 75t73.5 32zM866 1397q41 0 72 -32t31 -75t-31 -75.5t-72 -32.5q-45 0 -75.5 32.5t-30.5 75.5t30.5 75t75.5 32zM1081 25q-10 -27 -39.5 -37.5t-64.5 -10.5q-39 0 -68.5 12.5t-40.5 35.5 l-157 446l-156 -444q-10 -25 -42 -37.5t-71 -12.5q-33 0 -62.5 10.5t-39.5 39.5l-315 809q-10 20 -11 38q0 25 17.5 44.5t43 34t55.5 22.5t56 8q27 0 47.5 -10t28.5 -33l205 -582l154 506q10 35 34.5 44.5t55.5 9.5q29 0 54.5 -9.5t35.5 -44.5l151 -508l207 584q16 43 76 43 q25 0 54.5 -8t55 -22.5t43 -35t17.5 -45.5q0 -23 -8 -36z" />
<glyph unicode="&#x1ef2;" horiz-adv-x="1175" d="M455 600q0 16 -6 27l-424 733q-6 14 -7 26q0 25 17.5 45.5t44 35t57.5 22.5t58 8q33 0 50 -12t31 -41l312 -592l313 592q14 27 30.5 40t49.5 13q27 0 57.5 -8t57 -22.5t44 -35t17.5 -45.5q0 -4 -1 -11t-5 -15l-422 -733q-8 -12 -8 -27v-516q0 -41 -41 -62.5t-92 -21.5 q-49 0 -91 21.5t-42 62.5v516zM385 1798q-20 10 -28.5 26.5t-8.5 35.5q0 35 23.5 67.5t58.5 32.5q6 0 12.5 -1t14.5 -3l270 -131q35 -18 35 -64q0 -35 -23.5 -67.5t-58.5 -32.5q-8 0 -14.5 2t-14.5 6z" />
<glyph unicode="&#x1ef3;" horiz-adv-x="974" d="M20 825q-8 20 -8 35q0 27 18.5 49.5t45 40t57.5 27.5t55 10q27 0 47.5 -10t28.5 -35l246 -612l199 612q8 25 27.5 35t41.5 10q25 0 55.5 -10t58.5 -27.5t47 -42t19 -51.5q0 -16 -6 -31l-299 -764q-37 -92 -70.5 -184t-88 -164.5t-139.5 -119t-222 -46.5q-51 0 -86 19.5 t-35 93.5q0 45 15.5 78t52.5 33q33 0 81 12t93 46t79 92.5t40 150.5zM268 1300q-20 10 -28.5 26.5t-8.5 35.5q0 35 24 67.5t58 32.5q6 0 12.5 -1t14.5 -3l270 -131q35 -18 35 -63q0 -35 -23.5 -68t-58.5 -33q-8 0 -14 2t-14 6z" />
<glyph unicode="&#x2000;" horiz-adv-x="1036" />
<glyph unicode="&#x2001;" horiz-adv-x="2073" />
<glyph unicode="&#x2002;" horiz-adv-x="1036" />
<glyph unicode="&#x2003;" horiz-adv-x="2073" />
<glyph unicode="&#x2004;" horiz-adv-x="691" />
<glyph unicode="&#x2005;" horiz-adv-x="518" />
<glyph unicode="&#x2006;" horiz-adv-x="345" />
<glyph unicode="&#x2007;" horiz-adv-x="345" />
<glyph unicode="&#x2008;" horiz-adv-x="259" />
<glyph unicode="&#x2009;" horiz-adv-x="414" />
<glyph unicode="&#x200a;" horiz-adv-x="115" />
<glyph unicode="&#x2010;" horiz-adv-x="845" d="M74 492q0 47 22.5 78.5t59.5 31.5h532q33 0 59.5 -31.5t26.5 -78.5q0 -49 -26.5 -79t-59.5 -30h-532q-37 0 -59.5 30t-22.5 79z" />
<glyph unicode="&#x2011;" horiz-adv-x="845" d="M74 492q0 47 22.5 78.5t59.5 31.5h532q33 0 59.5 -31.5t26.5 -78.5q0 -49 -26.5 -79t-59.5 -30h-532q-37 0 -59.5 30t-22.5 79z" />
<glyph unicode="&#x2012;" horiz-adv-x="845" d="M74 492q0 47 22.5 78.5t59.5 31.5h532q33 0 59.5 -31.5t26.5 -78.5q0 -49 -26.5 -79t-59.5 -30h-532q-37 0 -59.5 30t-22.5 79z" />
<glyph unicode="&#x2013;" horiz-adv-x="968" d="M74 492q0 47 22.5 78.5t59.5 31.5h655q33 0 59.5 -31.5t26.5 -78.5q0 -49 -26.5 -79t-59.5 -30h-655q-37 0 -59.5 30t-22.5 79z" />
<glyph unicode="&#x2014;" horiz-adv-x="1544" d="M74 492q0 47 22.5 78.5t59.5 31.5h1230q33 0 58.5 -31.5t25.5 -78.5q0 -49 -25.5 -79t-58.5 -30h-1230q-37 0 -59.5 30t-22.5 79z" />
<glyph unicode="&#x2018;" horiz-adv-x="376" d="M184 1047q-57 0 -98 40.5t-41 96.5q0 10 3 25.5t15.5 47t35 86t61.5 142.5q8 18 23.5 25.5t29.5 7.5q29 0 58.5 -17.5t29.5 -52.5q0 -10 -6 -29l-49 -108q35 -18 55.5 -51t20.5 -74q0 -57 -40.5 -98t-97.5 -41z" />
<glyph unicode="&#x2019;" horiz-adv-x="374" d="M195 1518q57 0 98 -41t41 -97q0 -10 -3 -25.5t-15.5 -47t-35 -86t-61.5 -142.5q-8 -18 -22.5 -25t-30.5 -7q-29 0 -58.5 17t-29.5 52q0 14 8 29l47 108q-35 18 -55.5 51t-20.5 74q0 57 40.5 98.5t97.5 41.5z" />
<glyph unicode="&#x201a;" horiz-adv-x="395" d="M197 266q57 0 98 -41t41 -96q0 -10 -3 -25.5t-15.5 -47t-35 -85t-61.5 -141.5q-8 -20 -23.5 -27.5t-29.5 -7.5q-29 0 -58.5 18.5t-29.5 51.5q0 12 6 29l49 108q-35 18 -55.5 51t-20.5 74q0 57 40.5 98t97.5 41z" />
<glyph unicode="&#x201c;" horiz-adv-x="757" d="M184 1047q-57 0 -98 40.5t-41 96.5q0 10 3 25.5t15.5 47t35 86t61.5 142.5q8 18 23.5 25.5t29.5 7.5q29 0 58.5 -17.5t29.5 -52.5q0 -10 -6 -29l-49 -108q35 -18 55.5 -51t20.5 -74q0 -57 -40.5 -98t-97.5 -41zM565 1047q-57 0 -98 40.5t-41 96.5q0 10 3 25.5t15.5 47 t35 86t61.5 142.5q8 18 22.5 25.5t30.5 7.5q29 0 58.5 -17.5t29.5 -52.5q0 -12 -8 -29l-47 -108q35 -18 55 -51t20 -74q0 -57 -40 -98t-97 -41z" />
<glyph unicode="&#x201d;" horiz-adv-x="755" d="M575 1518q57 0 98.5 -41t41.5 -97q0 -10 -3 -25.5t-15.5 -47t-35 -86t-61.5 -142.5q-8 -18 -23.5 -25t-29.5 -7q-29 0 -58.5 17t-29.5 52q0 12 6 29l49 108q-35 18 -55.5 51t-20.5 74q0 57 40 98.5t97 41.5zM195 1518q57 0 98 -41t41 -97q0 -10 -3 -25.5t-15.5 -47 t-35 -86t-61.5 -142.5q-8 -18 -22.5 -25t-30.5 -7q-29 0 -58.5 17t-29.5 52q0 14 8 29l47 108q-35 18 -55.5 51t-20.5 74q0 57 40.5 98.5t97.5 41.5z" />
<glyph unicode="&#x201e;" horiz-adv-x="776" d="M578 266q57 0 98 -41t41 -96q0 -10 -3 -25.5t-15.5 -47t-35 -85t-61.5 -141.5q-10 -20 -24.5 -27.5t-30.5 -7.5q-29 0 -57.5 18.5t-28.5 51.5q0 6 1 13t5 16l49 108q-35 18 -56.5 51t-21.5 74q0 57 40.5 98t99.5 41zM197 266q57 0 98 -41t41 -96q0 -10 -3 -25.5 t-15.5 -47t-35 -85t-61.5 -141.5q-8 -20 -23.5 -27.5t-29.5 -7.5q-29 0 -58.5 18.5t-29.5 51.5q0 12 6 29l49 108q-35 18 -55.5 51t-20.5 74q0 57 40.5 98t97.5 41z" />
<glyph unicode="&#x2020;" horiz-adv-x="903" d="M41 930q0 43 22.5 73.5t59.5 30.5l194 -12v393q0 33 39 57.5t95 24.5q51 0 92 -24.5t41 -57.5v-393l194 12q33 0 59.5 -30.5t26.5 -73.5q0 -47 -26.5 -75t-59.5 -28l-194 13v-785q0 -39 -41 -68.5t-92 -29.5q-55 0 -94.5 29.5t-39.5 68.5v785l-194 -13q-37 0 -59.5 28 t-22.5 75z" />
<glyph unicode="&#x2021;" horiz-adv-x="919" d="M49 494q0 43 22.5 73.5t59.5 30.5l195 -12v254l-195 -13q-37 0 -59.5 28t-22.5 75q0 43 22.5 73.5t59.5 30.5l195 -12v393q0 33 38.5 57.5t94.5 24.5q49 0 91 -24.5t42 -57.5v-393l194 12q33 0 58.5 -30.5t25.5 -73.5q0 -47 -25.5 -75t-58.5 -28l-194 13v-254l194 12 q33 0 58.5 -30.5t25.5 -73.5q0 -47 -25.5 -75t-58.5 -28l-194 12v-348q0 -39 -42 -68.5t-91 -29.5q-55 0 -94 29.5t-39 68.5v348l-195 -12q-37 0 -59.5 28t-22.5 75z" />
<glyph unicode="&#x2022;" horiz-adv-x="673" d="M338 872q53 0 102 -21.5t86 -56t58.5 -81.5t21.5 -99q0 -53 -21.5 -100t-58.5 -82t-86 -56.5t-102 -21.5q-55 0 -104.5 21.5t-86 56.5t-58 82t-21.5 100q0 51 21.5 98.5t58 82t86 56t104.5 21.5z" />
<glyph unicode="&#x2026;" horiz-adv-x="1177" d="M197 266q55 0 96 -41t41 -98q0 -55 -41 -97t-96 -42q-59 0 -99.5 42t-40.5 97q0 57 40.5 98t99.5 41zM592 266q55 0 96 -41t41 -98q0 -55 -41 -97t-96 -42q-59 0 -99 42t-40 97q0 57 40 98t99 41zM983 266q55 0 96 -41t41 -98q0 -55 -41 -97t-96 -42q-59 0 -99 42t-40 97 q0 57 40 98t99 41z" />
<glyph unicode="&#x202f;" horiz-adv-x="414" />
<glyph unicode="&#x2030;" horiz-adv-x="2301" d="M344 672q-61 0 -115.5 14t-93.5 46t-61.5 82t-22.5 122v297q0 72 22.5 122t61.5 81.5t93.5 46t115.5 14.5t114.5 -14.5t92.5 -46t61.5 -81.5t22.5 -122v-297q0 -72 -22.5 -122t-61.5 -82t-92.5 -46t-114.5 -14zM461 1233q0 57 -32 83.5t-85 26.5t-84 -26.5t-31 -83.5 v-297q0 -57 31 -84t84 -27t85 27t32 84v297zM1268 -6q-61 0 -115.5 14.5t-93.5 45t-61.5 80.5t-22.5 124v297q0 72 22.5 122t61.5 82t93 46t116 14q61 0 114.5 -14t92 -46t61.5 -82t23 -122v-297q0 -74 -23 -124t-61.5 -80.5t-92 -45t-114.5 -14.5zM1384 555q0 57 -31.5 84 t-84.5 27t-84 -27t-31 -84v-297q0 -57 30.5 -84t84.5 -27q53 0 84.5 27t31.5 84v297zM1960 -6q-61 0 -115.5 14.5t-93.5 45t-61.5 80.5t-22.5 124v297q0 72 22.5 122t61.5 82t93 46t116 14q61 0 114.5 -14t92.5 -46t61.5 -82t22.5 -122v-297q0 -74 -22.5 -124t-61.5 -80.5 t-92.5 -45t-114.5 -14.5zM2077 555q0 57 -32 84t-85 27t-84 -27t-31 -84v-297q0 -57 31 -84t84 -27t85 27t32 84v297zM1169 1579q35 0 69 -25.5t34 -66.5q0 -20 -8 -37l-738 -1487q-10 -23 -31.5 -34t-48.5 -11q-43 0 -69.5 28.5t-26.5 61.5q0 14 8 35l738 1493q10 23 30 33 t43 10z" />
<glyph unicode="&#x2039;" horiz-adv-x="557" d="M479 311q6 -12 6 -26q0 -20 -13 -44t-36.5 -43.5t-53.5 -32.5t-63 -13q-55 0 -73 34l-150 279q-20 39 -33.5 58.5t-13.5 41.5q0 25 13.5 45.5t33.5 59.5l150 278q18 35 76 35q33 0 62.5 -13.5t52 -32.5t35.5 -43t13 -44q0 -16 -6 -25l-137 -258z" />
<glyph unicode="&#x203a;" horiz-adv-x="557" d="M215 567l-137 258q-6 8 -6 25q0 20 13 44t35.5 43t52.5 32.5t63 13.5q57 0 73 -35l152 -278q20 -39 33.5 -59.5t13.5 -45.5q0 -23 -13.5 -42t-33.5 -58l-152 -279q-16 -35 -73 -34q-33 0 -63 13t-52.5 32.5t-35.5 43t-13 44.5q0 14 6 26z" />
<glyph unicode="&#x2044;" horiz-adv-x="380" d="M549 1579q35 0 68.5 -25.5t33.5 -66.5q0 -20 -8 -37l-737 -1487q-10 -23 -31.5 -34t-48.5 -11q-43 0 -69.5 28.5t-26.5 61.5q0 14 8 35l737 1493q10 23 30.5 33t43.5 10z" />
<glyph unicode="&#x205f;" horiz-adv-x="518" />
<glyph unicode="&#x2070;" horiz-adv-x="714" d="M358 672q-61 0 -115.5 14t-93 46t-61 82t-22.5 122v297q0 72 22.5 122t61 81.5t93 46t115.5 14.5t114.5 -14.5t92.5 -46t61.5 -81.5t22.5 -122v-297q0 -72 -22.5 -122t-61.5 -82t-92.5 -46t-114.5 -14zM475 1233q0 57 -31.5 83.5t-85.5 26.5q-53 0 -83.5 -26.5 t-30.5 -83.5v-297q0 -57 30.5 -84t83.5 -27t85 27t32 84v297z" />
<glyph unicode="&#x2074;" horiz-adv-x="649" d="M352 852h-286q-25 0 -41.5 15.5t-16.5 43.5q0 16 8 33l283 508q14 25 33.5 35t40.5 10q12 0 26.5 -4t28.5 -13.5t23.5 -21.5t9.5 -26q0 -10 -6 -23l-222 -395h119v76q0 29 28 41t60 12q35 0 62.5 -12.5t27.5 -40.5v-76h54q29 0 41 -25.5t12 -56.5q0 -29 -16.5 -54.5 t-36.5 -25.5h-54v-119q0 -29 -27.5 -42t-62.5 -13q-33 0 -60.5 13.5t-27.5 41.5v119z" />
<glyph unicode="&#x2075;" horiz-adv-x="661" d="M328 1196q61 0 114.5 -13.5t92 -42t61 -74.5t22.5 -114v-22q0 -70 -22.5 -119t-61 -80t-92 -45t-112.5 -14q-72 0 -127.5 17.5t-92 47t-55 66.5t-18.5 76q0 47 22.5 63t63.5 16q59 0 74.5 -18t15.5 -47q0 -33 29.5 -50.5t81.5 -17.5q55 0 86.5 24.5t31.5 80.5v22 q0 53 -30.5 80t-83.5 27h-183q-41 0 -54 19.5t-13 49.5v18.5t2 20.5l29 277q6 53 34 53h379q29 0 41 -23.5t12 -52.5t-12 -53.5t-41 -24.5h-266l-14 -147h86z" />
<glyph unicode="&#x2076;" horiz-adv-x="704" d="M397 1182q51 0 97.5 -11.5t80 -39t54 -72.5t20.5 -113v-12q0 -72 -22.5 -122t-61.5 -81t-92 -45t-115 -14q-63 0 -116.5 14t-92 46t-61 82t-22.5 122v297q0 72 23.5 122t63.5 81.5t95 46t119 14.5q76 0 130 -20.5t87.5 -51t49 -67.5t15.5 -70q0 -41 -19.5 -56t-62.5 -15 q-35 0 -63.5 11t-28.5 52q0 33 -32.5 48t-80.5 15q-119 0 -118 -110v-100q29 31 68.5 40t84.5 9zM244 924q0 -111 114 -111q115 0 115 111v10q0 61 -29.5 87t-87.5 26q-53 0 -82.5 -24t-29.5 -79v-20z" />
<glyph unicode="&#x2077;" horiz-adv-x="643" d="M616 1303q0 -23 -10 -52.5t-24 -54.5l-293 -500q-12 -25 -51 -24q-41 0 -76 25.5t-35 62.5q0 16 6 28l307 478v77h-231v-73q0 -23 -26.5 -38t-61.5 -15q-37 0 -62.5 15t-25.5 38v174q0 20 24.5 36.5t53.5 16.5h428q27 0 52 -16.5t25 -36.5v-141z" />
<glyph unicode="&#x2078;" horiz-adv-x="684" d="M342 1497q117 0 189.5 -47t72.5 -152q0 -72 -32.5 -113.5t-86.5 -58.5q68 -23 108 -72.5t40 -135.5v-15q0 -61 -22.5 -105t-61.5 -72t-92.5 -41t-114.5 -13t-114.5 13t-93.5 41t-62.5 72t-22.5 105v15q0 86 41 136t107 72q-53 16 -86 58.5t-33 113.5q0 104 73.5 151.5 t190.5 47.5zM457 948q0 55 -31 81t-84 26q-55 0 -86 -25.5t-31 -81.5v-24q0 -57 32 -85t85 -28q115 0 115 113v24zM342 1358q-94 0 -94 -82q0 -43 24.5 -61.5t69.5 -18.5t68.5 18.5t23.5 61.5q0 82 -92 82z" />
<glyph unicode="&#x2079;" horiz-adv-x="704" d="M307 987q-51 0 -97 11.5t-80 39t-54.5 72.5t-20.5 113v12q0 72 22.5 122t61.5 80.5t92.5 45t114.5 14.5t114.5 -14.5t93.5 -46t62.5 -81.5t22.5 -122v-297q0 -72 -23.5 -122t-63.5 -82t-96.5 -46t-119.5 -14q-74 0 -127 20.5t-87 51t-50.5 67.5t-16.5 72q0 41 20.5 55 t61.5 14q37 0 64.5 -11t27.5 -52q0 -33 33 -48.5t80 -15.5q57 0 89 27t32 84v100q-29 -29 -69 -39t-87 -10zM463 1245q0 59 -31 85t-86 26q-53 0 -84 -25.5t-31 -85.5v-12q0 -59 31 -85t86 -26q51 0 83 23.5t32 79.5v20z" />
<glyph unicode="&#x2080;" horiz-adv-x="714" d="M358 -6q-61 0 -115.5 14.5t-93 45t-61 80.5t-22.5 124v297q0 72 22.5 122t61 82t93 46t115.5 14t114.5 -14t92.5 -46t61.5 -82t22.5 -122v-297q0 -74 -22.5 -124t-61.5 -80.5t-92.5 -45t-114.5 -14.5zM475 555q0 57 -31.5 84t-85.5 27q-53 0 -83.5 -27t-30.5 -84v-297 q0 -57 30.5 -84t83.5 -27t85 27t32 84v297z" />
<glyph unicode="&#x2081;" horiz-adv-x="393" d="M135 623l-35 -21q-16 -6 -30 -6q-25 0 -40.5 21.5t-15.5 46.5q0 41 31 59l156 90q14 8 32 8q29 0 54.5 -14t25.5 -41v-713q0 -27 -27.5 -40t-60.5 -13q-35 0 -62.5 13.5t-27.5 39.5v570z" />
<glyph unicode="&#x2082;" horiz-adv-x="659" d="M63 604q0 51 23 91t60.5 68t86 42t99.5 14q53 0 103 -15.5t89 -45t62.5 -72.5t23.5 -100q0 -59 -27.5 -105.5t-69.5 -84.5t-91 -68.5t-91 -57t-70 -50t-28 -48.5v-18h324q23 0 38 -22.5t15 -53.5t-15 -54.5t-38 -23.5h-430q-25 0 -51.5 14.5t-26.5 38.5v111q0 43 28.5 81 t72 72.5t92.5 67.5t92 64.5t71.5 64.5t28.5 68q0 27 -23.5 52t-76.5 25q-41 0 -68.5 -18t-27.5 -66q0 -23 -26 -43t-69 -20q-35 0 -57.5 19.5t-22.5 72.5z" />
<glyph unicode="&#x2083;" horiz-adv-x="673" d="M330 147q66 0 92.5 23t26.5 76v22q0 55 -35 71.5t-88 16.5q-31 0 -42.5 20.5t-11.5 47.5q0 25 11.5 46.5t42.5 23.5q18 0 36.5 3t33 12t22.5 27.5t8 51.5q0 49 -27.5 64.5t-68.5 15.5q-51 0 -75 -12.5t-24 -45.5q0 -29 -16 -45t-65 -16q-59 0 -75 13t-16 54q0 33 13.5 70 t44 65.5t83 48t130.5 19.5q57 0 105 -10t83 -33.5t55.5 -62.5t20.5 -97q0 -61 -23.5 -112t-70.5 -72q55 -18 89 -57t34 -107v-22q0 -68 -24 -116t-63.5 -79t-95 -44t-116.5 -13q-76 0 -130.5 20.5t-88 51t-49 67.5t-15.5 72q0 39 17.5 51t64.5 12q55 0 72.5 -12t17.5 -45 q0 -37 35 -50.5t82 -13.5z" />
<glyph unicode="&#x2084;" horiz-adv-x="649" d="M352 172h-286q-25 0 -41.5 15.5t-16.5 45.5q0 16 8 33l283 508q14 23 33.5 34t40.5 11q12 0 26.5 -5t28.5 -13t23.5 -20.5t9.5 -26.5t-6 -23l-222 -397h119v78q0 29 28 41t60 12q35 0 62.5 -12.5t27.5 -40.5v-78h54q29 0 41 -24.5t12 -55.5t-16.5 -56.5t-36.5 -25.5h-54 v-119q0 -27 -27.5 -40t-62.5 -13q-33 0 -60.5 13.5t-27.5 39.5v119z" />
<glyph unicode="&#x2085;" horiz-adv-x="661" d="M328 518q61 0 114.5 -13t92 -42t61 -76t22.5 -115v-20q0 -72 -22.5 -121t-61 -80t-92 -44t-112.5 -13q-72 0 -127.5 17.5t-92 47t-55 66.5t-18.5 76q0 47 22.5 63.5t63.5 16.5q59 0 74.5 -19.5t15.5 -48.5q0 -33 29.5 -49.5t81.5 -16.5q55 0 86.5 25t31.5 80v20 q0 55 -30.5 82t-83.5 27h-183q-41 0 -54 19.5t-13 50.5v18t2 20l29 275q6 55 34 55h379q29 0 41 -23.5t12 -52.5t-12 -53t-41 -24h-266l-14 -148h86z" />
<glyph unicode="&#x2086;" horiz-adv-x="704" d="M397 504q51 0 97.5 -11.5t80 -39t54 -72.5t20.5 -113v-12q0 -72 -22.5 -122t-61.5 -80.5t-92 -45t-115 -14.5q-63 0 -116.5 14.5t-92 46t-61 81.5t-22.5 122v297q0 72 23.5 122t63.5 82t95 46t119 14q76 0 130 -20.5t87.5 -51t49 -67.5t15.5 -72q0 -41 -19.5 -56 t-62.5 -15q-35 0 -63.5 12t-28.5 53q0 33 -32.5 48.5t-80.5 15.5q-119 0 -118 -111v-100q29 29 68.5 39t84.5 10zM244 246q0 -59 29.5 -85t84.5 -26q115 0 115 109v12q0 61 -29.5 87t-87.5 26q-53 0 -82.5 -23.5t-29.5 -79.5v-20z" />
<glyph unicode="&#x2087;" horiz-adv-x="643" d="M616 625q0 -23 -10 -53.5t-24 -53.5l-293 -502q-12 -23 -51 -22q-41 0 -76 24.5t-35 63.5q0 16 6 29l307 477v78h-231v-74q0 -23 -26.5 -39t-61.5 -16q-37 0 -62.5 16t-25.5 39v172q0 20 24.5 37.5t53.5 17.5h428q27 0 52 -17.5t25 -37.5v-139z" />
<glyph unicode="&#x2088;" horiz-adv-x="686" d="M344 819q117 0 189.5 -47t72.5 -154q0 -70 -32.5 -111.5t-86.5 -57.5q68 -23 108 -74t40 -137v-15q0 -61 -22.5 -105t-61.5 -72t-92 -40t-115 -12q-61 0 -114.5 12t-93.5 40t-62.5 72t-22.5 105v15q0 86 41 137t107 74q-53 16 -86 58t-33 111q0 106 73.5 153.5 t190.5 47.5zM459 270q0 53 -31 79t-84 26q-55 0 -86 -25.5t-31 -79.5v-24q0 -59 32 -86t85 -27q115 0 115 113v24zM344 678q-94 0 -94 -82q0 -43 24.5 -61.5t69.5 -18.5t68.5 18.5t23.5 61.5q0 82 -92 82z" />
<glyph unicode="&#x2089;" horiz-adv-x="704" d="M307 309q-51 0 -97 11.5t-80 39t-54.5 72.5t-20.5 113v12q0 72 22.5 122t61.5 81t92.5 45t114.5 14t114.5 -14t93.5 -46t62.5 -82t22.5 -122v-297q0 -74 -23.5 -124t-63.5 -80.5t-96.5 -45t-119.5 -14.5q-74 0 -127 19.5t-87 50t-50.5 67.5t-16.5 72q0 41 20.5 56 t61.5 15q37 0 64.5 -12t27.5 -51q0 -33 33 -48.5t80 -15.5q57 0 89 27t32 84v100q-29 -31 -69 -40t-87 -9zM463 565q0 59 -31 86t-86 27q-53 0 -84 -26.5t-31 -86.5v-10q0 -59 31 -85t86 -26q51 0 83 24t32 79v18z" />
<glyph unicode="&#x20ac;" horiz-adv-x="1261" d="M494 428q0 -27 8 -62.5t32.5 -67.5t67.5 -54.5t111 -22.5q61 0 102 19.5t64.5 51.5t33 70.5t9.5 77.5q0 43 31.5 60.5t101.5 17.5q72 0 102.5 -23.5t30.5 -99.5q0 -94 -37 -169.5t-101.5 -128t-154.5 -81t-195 -28.5q-113 0 -200.5 31.5t-148 90t-92.5 139.5t-32 179v35 h-94q-37 0 -60.5 25.5t-23.5 66.5t23.5 68.5t60.5 27.5h94v144h-94q-37 0 -60.5 25.5t-23.5 66.5t23.5 68.5t60.5 27.5h94v45q0 129 37 218t101.5 144.5t150.5 81t184 25.5q104 0 194.5 -26.5t155 -78t101.5 -124t37 -164.5q0 -74 -32 -97.5t-101 -23.5q-72 0 -102.5 18.5 t-30.5 59.5q0 31 -8.5 65.5t-32 65.5t-64.5 51.5t-106 20.5q-104 0 -160.5 -57.5t-56.5 -178.5v-45h192q33 0 59.5 -27.5t26.5 -68.5t-26.5 -66.5t-59.5 -25.5h-192v-144h192q33 0 59.5 -27.5t26.5 -66.5q0 -41 -26.5 -67.5t-59.5 -26.5h-192v-35z" />
<glyph unicode="&#x2122;" horiz-adv-x="1378" d="M569 1573q25 0 35 -21.5t10 -46.5q0 -27 -11 -47t-34 -20h-147v-416q0 -25 -22.5 -37t-49.5 -12q-29 0 -52.5 12t-23.5 37v416h-147q-23 0 -34 20.5t-11 46.5q0 25 10 46.5t35 21.5h442zM1008 1040q-16 -31 -50 -30q-14 0 -25 6t-22 24l-110 242v-260q0 -25 -22.5 -37 t-51.5 -12q-27 0 -49.5 12t-22.5 37v477q0 41 22.5 57.5t49.5 16.5q41 0 63.5 -13.5t49.5 -66.5l121 -250l120 250q27 53 49.5 66.5t63.5 13.5q29 0 50.5 -16.5t21.5 -57.5v-477q0 -25 -22.5 -37t-49.5 -12q-29 0 -51.5 12t-22.5 37v252z" />
<glyph unicode="&#x2126;" horiz-adv-x="1175" d="M653 487q147 31 148 226v315q0 123 -56.5 179.5t-156.5 56.5q-102 0 -158.5 -56.5t-56.5 -179.5v-315q0 -102 38 -161.5t109 -64.5v-487h-354q-37 0 -59.5 34t-22.5 83q0 53 23.5 83.5t58.5 30.5h203v37q-117 43 -188.5 149.5t-71.5 295.5v315q0 129 36.5 218t101 144.5 t151.5 81t190 25.5q100 0 188 -25.5t152.5 -81t101.5 -144.5t37 -218v-315q0 -188 -73.5 -296t-188.5 -149v-37h203q35 0 59.5 -30.5t24.5 -83.5q0 -49 -24 -83t-60 -34h-355v487z" />
<glyph unicode="&#x212e;" horiz-adv-x="1140" d="M588 985q96 0 184 -28.5t154.5 -79t106.5 -121t40 -156.5q0 -59 -16.5 -92t-44 -49.5t-62.5 -20.5t-69 -4h-473v-31q0 -55 9 -100t33.5 -76.5t68.5 -49t114 -17.5q98 0 158.5 17.5t97.5 36.5t56.5 36.5t37.5 17.5q14 0 28.5 -12t23.5 -30.5t15.5 -39t6.5 -34.5 q0 -27 -30 -56.5t-85 -55.5t-133 -42t-174 -16q-123 0 -226.5 33.5t-178 95t-115.5 147.5t-41 191v79q0 92 40 175t109.5 145.5t164 99.5t200.5 37zM698 557q33 0 46.5 10.5t13.5 44.5q0 119 -45 167t-129 48q-82 0 -129 -46t-47 -167v-57h290z" />
<glyph unicode="&#x2153;" horiz-adv-x="1372" d="M1028 147q66 0 92.5 23t26.5 76v22q0 55 -35 71.5t-88 16.5q-31 0 -42 20.5t-11 47.5q0 25 11 46.5t42 23.5q18 0 36.5 3t33 12t22.5 27.5t8 51.5q0 49 -27.5 64.5t-68.5 15.5q-51 0 -74.5 -12.5t-23.5 -45.5q0 -29 -16.5 -45t-65.5 -16q-59 0 -74.5 13t-15.5 54 q0 33 13 70t44 65.5t83 48t130 19.5q57 0 105.5 -10t83 -33.5t55 -62.5t20.5 -97q0 -61 -23.5 -112t-70.5 -72q55 -18 89 -57t34 -107v-22q0 -68 -23.5 -116t-63.5 -79t-95.5 -44t-116.5 -13q-76 0 -130 20.5t-88 51t-49.5 67.5t-15.5 72q0 39 17.5 51t64.5 12 q55 0 72.5 -12t17.5 -45q0 -37 35 -50.5t82 -13.5zM166 1303l-35 -21q-14 -8 -31 -8q-25 0 -40 21.5t-15 45.5q0 43 31 62l155 90q8 4 15.5 6t17.5 2q29 0 54.5 -15.5t25.5 -41.5v-711q0 -29 -27.5 -42t-60.5 -13q-35 0 -62.5 13.5t-27.5 41.5v570zM940 1579 q35 0 68.5 -25.5t33.5 -66.5q0 -20 -8 -37l-737 -1487q-10 -23 -31.5 -34t-48.5 -11q-43 0 -69.5 28.5t-26.5 61.5q0 14 8 35l737 1493q10 23 30.5 33t43.5 10z" />
<glyph unicode="&#x2154;" horiz-adv-x="1601" d="M1262 147q66 0 92 23t26 76v22q0 55 -34.5 71.5t-88.5 16.5q-31 0 -42 20.5t-11 47.5q0 25 11.5 46.5t41.5 23.5q18 0 37 3t33 12t22.5 27.5t8.5 51.5q0 49 -27.5 64.5t-68.5 15.5q-51 0 -75 -12.5t-24 -45.5q0 -29 -16.5 -45t-65.5 -16q-59 0 -74.5 13t-15.5 54 q0 33 13.5 70t44 65.5t83 48t130.5 19.5q57 0 105 -10t83 -33.5t55.5 -62.5t20.5 -97q0 -61 -23.5 -112t-70.5 -72q55 -18 88.5 -57t33.5 -107v-22q0 -68 -23.5 -116t-63.5 -79t-95 -44t-117 -13q-76 0 -130 20.5t-87.5 51t-49 67.5t-15.5 72q0 39 17.5 51t64.5 12 q55 0 72.5 -12t17.5 -45q0 -37 35 -50.5t82 -13.5zM68 1282q0 51 22.5 91t60 67.5t86 42t99.5 14.5q53 0 103 -15.5t89 -44t62.5 -72.5t23.5 -99q0 -59 -27.5 -106.5t-69.5 -85.5t-91 -67.5t-91 -56t-69.5 -50t-27.5 -48.5v-21h323q23 0 38 -22.5t15 -52.5q0 -29 -15 -53.5 t-38 -24.5h-430q-25 0 -51.5 15.5t-26.5 39.5v109q0 43 29 81t72 72.5t92 67.5t92 64.5t71.5 64.5t28.5 68q0 27 -23.5 53t-76.5 26q-41 0 -68.5 -19.5t-27.5 -64.5q0 -25 -26 -44t-69 -19q-35 0 -57 18.5t-22 71.5zM1192 1579q35 0 68.5 -25.5t33.5 -66.5q0 -20 -8 -37 l-737 -1487q-10 -23 -31.5 -34t-48.5 -11q-43 0 -69.5 28.5t-26.5 61.5q0 14 8 35l737 1493q10 23 30.5 33t43.5 10z" />
<glyph unicode="&#x215b;" horiz-adv-x="1370" d="M166 1303l-35 -21q-14 -8 -31 -8q-25 0 -40 21.5t-15 45.5q0 43 31 62l155 90q8 4 15.5 6t17.5 2q29 0 54.5 -15.5t25.5 -41.5v-711q0 -29 -27.5 -42t-60.5 -13q-35 0 -62.5 13.5t-27.5 41.5v570zM1028 819q117 0 189.5 -47t72.5 -154q0 -70 -32.5 -111.5t-86.5 -57.5 q68 -23 108 -74t40 -137v-15q0 -61 -22.5 -105t-61.5 -72t-92 -40t-115 -12q-61 0 -114.5 12t-93.5 40t-62.5 72t-22.5 105v15q0 86 41 137t107 74q-53 16 -86 58t-33 111q0 106 73.5 153.5t190.5 47.5zM1143 270q0 53 -31 79t-84 26q-55 0 -86 -25.5t-31 -79.5v-24 q0 -59 32 -86t85 -27q115 0 115 113v24zM1028 678q-94 0 -94 -82q0 -43 24.5 -61.5t69.5 -18.5t68.5 18.5t23.5 61.5q0 82 -92 82zM940 1579q35 0 68.5 -25.5t33.5 -66.5q0 -20 -8 -37l-737 -1487q-10 -23 -31.5 -34t-48.5 -11q-43 0 -69.5 28.5t-26.5 61.5q0 14 8 35 l737 1493q10 23 30.5 33t43.5 10z" />
<glyph unicode="&#x215c;" horiz-adv-x="1617" d="M336 825q66 0 92.5 23.5t26.5 77.5v20q0 57 -35 72.5t-88 15.5q-31 0 -42 21.5t-11 46.5q0 27 11 47t42 22q18 0 36.5 3.5t33 12.5t22.5 27.5t8 51.5q0 49 -27.5 65.5t-68.5 16.5q-51 0 -74.5 -12.5t-23.5 -45.5q0 -29 -16.5 -46t-65.5 -17q-59 0 -74.5 14t-15.5 55 q0 33 13 69t44 64.5t83 48t130 19.5q57 0 105 -10t83 -33.5t55.5 -62.5t20.5 -97q0 -61 -23.5 -112.5t-70.5 -71.5q55 -18 89 -57t34 -107v-20q0 -70 -23.5 -118t-63.5 -79t-95.5 -44t-116.5 -13q-76 0 -130.5 20.5t-88 51t-49 68.5t-15.5 73q0 39 17.5 51t64.5 12 q55 0 72.5 -13t17.5 -44q0 -37 35 -51.5t82 -14.5zM1278 819q117 0 189.5 -47t72.5 -154q0 -70 -32.5 -111.5t-86.5 -57.5q68 -23 108 -74t40 -137v-15q0 -61 -22.5 -105t-61.5 -72t-92.5 -40t-114.5 -12t-114.5 12t-93.5 40t-62.5 72t-22.5 105v15q0 86 41 137t107 74 q-53 16 -86 58t-33 111q0 106 73.5 153.5t190.5 47.5zM1393 270q0 53 -31 79t-84 26q-55 0 -86 -25.5t-31 -79.5v-24q0 -59 32 -86t85 -27q115 0 115 113v24zM1278 678q-94 0 -94 -82q0 -43 24.5 -61.5t69.5 -18.5t68.5 18.5t23.5 61.5q0 82 -92 82zM1188 1579 q35 0 68.5 -25.5t33.5 -66.5q0 -20 -8 -37l-737 -1487q-10 -23 -31.5 -34t-48.5 -11q-43 0 -69.5 28.5t-26.5 61.5q0 14 8 35l737 1493q10 23 30.5 33t43.5 10z" />
<glyph unicode="&#x215d;" horiz-adv-x="1617" d="M1276 819q117 0 189.5 -47t72.5 -154q0 -70 -32.5 -111.5t-86.5 -57.5q68 -23 108 -74t40 -137v-15q0 -61 -22.5 -105t-61.5 -72t-92.5 -40t-114.5 -12t-114.5 12t-93.5 40t-62.5 72t-22.5 105v15q0 86 41 137t106 74q-53 16 -85.5 58t-32.5 111q0 106 73.5 153.5 t190.5 47.5zM1391 270q0 53 -31 79t-84 26q-55 0 -86 -25.5t-31 -79.5v-24q0 -59 32 -86t85 -27q115 0 115 113v24zM1276 678q-94 0 -94 -82q0 -43 24.5 -61.5t69.5 -18.5t68.5 18.5t23.5 61.5q0 82 -92 82zM1186 1579q35 0 68.5 -25.5t33.5 -66.5q0 -20 -8 -37l-737 -1487 q-10 -23 -32 -34t-48 -11q-43 0 -69.5 28.5t-26.5 61.5q0 14 8 35l737 1493q10 23 30.5 33t43.5 10zM336 1196q61 0 114.5 -13.5t92.5 -42t61.5 -74.5t22.5 -114v-22q0 -70 -22.5 -119t-61.5 -80t-92.5 -45t-112.5 -14q-72 0 -127 17.5t-92 47t-55.5 66.5t-18.5 76 q0 47 22.5 63t63.5 16q59 0 74.5 -18t15.5 -47q0 -33 30 -50.5t81 -17.5q55 0 87 24.5t32 80.5v22q0 53 -31 80t-84 27h-182q-41 0 -54.5 19.5t-13.5 49.5v18.5t2 20.5l29 277q6 53 35 53h378q29 0 41.5 -23.5t12.5 -52.5t-12.5 -53.5t-41.5 -24.5h-266l-14 -147h86z" />
<glyph unicode="&#x215e;" horiz-adv-x="1615" d="M1276 819q117 0 189.5 -47t72.5 -154q0 -70 -32.5 -111.5t-86.5 -57.5q68 -23 108 -74t40 -137v-15q0 -61 -22.5 -105t-61.5 -72t-92.5 -40t-114.5 -12t-114.5 12t-93.5 40t-62.5 72t-22.5 105v15q0 86 41 137t106 74q-53 16 -85.5 58t-32.5 111q0 106 73.5 153.5 t190.5 47.5zM1391 270q0 53 -31 79t-84 26q-55 0 -86 -25.5t-31 -79.5v-24q0 -59 32 -86t85 -27q115 0 115 113v24zM1276 678q-94 0 -94 -82q0 -43 24.5 -61.5t69.5 -18.5t68.5 18.5t23.5 61.5q0 82 -92 82zM1083 1579q35 0 69 -25.5t34 -66.5q0 -20 -8 -37l-738 -1487 q-10 -23 -31.5 -34t-48.5 -11q-43 0 -69.5 28.5t-26.5 61.5q0 14 8 35l738 1493q10 23 30 33t43 10zM629 1303q0 -23 -10.5 -52.5t-24.5 -54.5l-293 -500q-12 -25 -51 -24q-41 0 -76 25.5t-35 62.5q0 16 6 28l308 478v77h-232v-73q0 -23 -26.5 -38t-61.5 -15q-37 0 -62.5 15 t-25.5 38v174q0 20 24.5 36.5t53.5 16.5h428q27 0 52.5 -16.5t25.5 -36.5v-141z" />
<glyph unicode="&#x2190;" horiz-adv-x="1579" d="M633 977q45 0 84 -39t39 -86q0 -31 -21 -51l-198 -199h817q37 0 59.5 -31.5t22.5 -78.5q0 -49 -22.5 -79t-59.5 -30h-817l198 -199q20 -20 21 -51q0 -47 -39 -86t-84 -39q-33 0 -53 21l-402 401q-35 35 -35 62q0 29 35 63l402 401q24 21 53 21z" />
<glyph unicode="&#x2191;" horiz-adv-x="1579" d="M305 649q0 33 21 53l401 402q31 31 64 35q27 0 61 -35l401 -402q20 -25 21 -53q0 -45 -39 -84t-86 -39q-31 0 -51 21l-199 198v-817q0 -37 -29.5 -59.5t-78.5 -22.5q-47 0 -79 22.5t-32 59.5v817l-199 -198q-20 -20 -51 -21q-47 0 -86 39t-39 84z" />
<glyph unicode="&#x2192;" horiz-adv-x="1579" d="M946 977q29 0 53 -21l402 -401q16 -18 25.5 -32.5t9.5 -30.5q0 -27 -35 -62l-402 -401q-20 -20 -53 -21q-45 0 -84 39t-39 86q0 31 21 51l198 199h-817q-37 0 -59.5 29.5t-22.5 79.5q0 47 22.5 78.5t59.5 31.5h817l-198 199q-20 20 -21 51q0 47 39 86t84 39z" />
<glyph unicode="&#x2193;" horiz-adv-x="1579" d="M305 336q0 45 39 84t86 39q31 0 51 -21l199 -198v817q0 37 31.5 59.5t79.5 22.5q49 0 78.5 -22.5t29.5 -59.5v-817l199 198q20 20 51 21q47 0 86 -39t39 -84q0 -29 -21 -53l-401 -402q-35 -35 -61 -35q-33 4 -64 35l-401 402q-21 20 -21 53z" />
<glyph unicode="&#x2202;" horiz-adv-x="1054" d="M700 829q-12 248 -78.5 361t-211.5 113q-41 0 -71 -8.5t-54.5 -17.5t-44 -16.5t-35.5 -7.5q-23 0 -41.5 17.5t-30.5 40t-19.5 46t-7.5 36.5q0 23 27 46t71 43.5t102.5 33t123.5 12.5q100 0 196.5 -39t171 -131t121 -244.5t46.5 -380.5v-317q0 -84 -36 -162t-97.5 -138.5 t-142.5 -97t-173 -36.5q-88 0 -169 34.5t-142.5 93t-98 134t-36.5 157.5v172q0 86 28.5 161t77.5 132.5t115.5 90t140.5 32.5q94 0 165.5 -47t102.5 -113zM334 401q0 -37 14 -70.5t40 -59t59.5 -42t70.5 -16.5t71 16.5t58.5 42t38.5 59.5t14 70v174q0 39 -16 73t-42 58.5 t-59.5 38t-68.5 13.5q-37 0 -69.5 -15.5t-57.5 -42t-39 -59.5t-14 -68v-172z" />
<glyph unicode="&#x2206;" horiz-adv-x="1210" d="M1157 152q10 -27 10 -60q0 -41 -26.5 -66.5t-85.5 -25.5h-899q-59 0 -86 25.5t-27 66.5q0 33 10 60l379 1259q14 45 58.5 71.5t115.5 26.5q70 0 114 -26.5t58 -71.5zM862 233l-256 947l-258 -947h514z" />
<glyph unicode="&#x220f;" horiz-adv-x="1206" d="M967 1497q43 0 79.5 -21.5t36.5 -62.5v-1331q0 -43 -42 -62.5t-91 -19.5q-51 0 -92 19.5t-41 62.5v1182h-430v-1182q0 -43 -41 -62.5t-92 -19.5q-49 0 -90 19.5t-41 62.5v1331q0 41 36 62.5t81 21.5h727z" />
<glyph unicode="&#x2211;" horiz-adv-x="1062" d="M78 1286q-10 20 -20.5 50t-10.5 61q0 39 24.5 69.5t88.5 30.5h772q41 0 62.5 -38t21.5 -79t-21.5 -78.5t-62.5 -37.5h-557l303 -549q35 -59 57.5 -107.5t22.5 -91.5t-22.5 -91t-57.5 -108l-303 -548h557q41 0 62.5 -38t21.5 -79t-21.5 -79t-62.5 -38h-772q-63 0 -88 31 t-25 69q0 31 10.5 61t20.5 50l416 770z" />
<glyph unicode="&#x2212;" horiz-adv-x="1009" d="M94 582q0 47 22.5 78.5t59.5 31.5h655q33 0 60 -31.5t27 -78.5q0 -49 -27 -79t-60 -30h-655q-37 0 -59.5 30t-22.5 79z" />
<glyph unicode="&#x221a;" horiz-adv-x="1404" d="M2 799q0 47 22.5 78.5t59.5 31.5h215q35 0 54.5 -29.5t29.5 -64.5l160 -573l350 1269q6 25 27.5 43.5t48.5 18.5h360q33 0 59.5 -32t26.5 -79q0 -49 -26.5 -78.5t-59.5 -29.5h-207l-407 -1336q-14 -47 -63.5 -68.5t-108.5 -21.5q-57 0 -106.5 21.5t-65.5 68.5l-224 672 h-63q-37 0 -59.5 30t-22.5 79z" />
<glyph unicode="&#x221e;" horiz-adv-x="1843" d="M516 901q113 0 222.5 -64.5t181.5 -179.5q72 115 181 179.5t224 64.5q86 0 165 -26.5t139.5 -79t97 -130t36.5 -182.5q0 -104 -36.5 -183t-97 -131t-140.5 -77.5t-166 -25.5q-113 0 -222.5 63.5t-180.5 177.5q-72 -115 -181.5 -178t-222.5 -63q-84 0 -163 25.5t-139 77.5 t-97 131t-37 183t37 182t97 130.5t139 79t163 26.5zM1012 483q51 -102 140 -151t171 -49q41 0 79 12t66.5 36.5t45 62.5t16.5 89t-16.5 89t-45 62.5t-66.5 37t-79 12.5q-82 0 -171 -49.5t-140 -151.5zM831 483q-51 102 -140 151.5t-173 49.5q-82 0 -143.5 -49t-61.5 -152 q0 -102 61.5 -151t143.5 -49q84 0 173 49t140 151z" />
<glyph unicode="&#x222b;" horiz-adv-x="731" d="M653 1532q27 0 54.5 -26.5t27.5 -71.5q0 -33 -18.5 -69t-63.5 -36q-86 0 -119.5 -38t-33.5 -126v-1200q0 -70 -17.5 -137.5t-61.5 -119.5t-122 -85t-199 -33q-45 0 -73.5 30t-28.5 71t22.5 74.5t67.5 33.5q74 0 109.5 38t35.5 126v1213q0 74 19.5 139t68 113.5t129 76 t203.5 27.5z" />
<glyph unicode="&#x2248;" horiz-adv-x="913" d="M342 715q-33 0 -56.5 -8.5t-43 -17.5t-36 -16t-32.5 -7q-20 0 -33.5 11t-20.5 26.5t-10.5 31t-3.5 23.5q0 49 22 78.5t50.5 45t58 19.5t46.5 4q45 0 80.5 -9t68.5 -20.5t66.5 -20.5t74.5 -9q33 0 57.5 7t43 16.5t35 16.5t32.5 7q18 0 31.5 -11.5t21 -26.5t10.5 -30.5 t3 -23.5q0 -49 -20.5 -79t-49 -44t-57.5 -18.5t-45 -4.5q-51 0 -89 9.5t-70 20.5t-63.5 20.5t-70.5 9.5zM342 291q-33 0 -56.5 -8.5t-43 -17.5t-36 -16t-32.5 -7q-20 0 -33.5 11t-20.5 26.5t-10.5 31t-3.5 23.5q0 49 22 77.5t50.5 44t58 19.5t46.5 4q45 0 80.5 -9 t68.5 -20.5t66.5 -20.5t74.5 -9q33 0 57.5 7t43 16.5t35 17.5t32.5 8q18 0 31.5 -11.5t21 -26.5t10.5 -30.5t3 -23.5q0 -51 -20.5 -80t-49 -43t-57.5 -18.5t-45 -4.5q-51 0 -89 9.5t-70 20.5t-63.5 20.5t-70.5 9.5z" />
<glyph unicode="&#x2260;" horiz-adv-x="1024" d="M758 821h112q31 0 57.5 -31.5t26.5 -78.5q0 -49 -26.5 -79t-57.5 -30h-243l-109 -196h352q31 0 57.5 -32t26.5 -79q0 -49 -26.5 -79t-57.5 -30h-485l-115 -209q-12 -23 -39 -22q-25 0 -48 18.5t-23 44.5q0 12 10 29l72 139h-88q-37 0 -59.5 30t-22.5 79q0 47 22.5 79 t59.5 32h217l106 196h-323q-37 0 -59.5 30t-22.5 79q0 47 22.5 78.5t59.5 31.5h454l140 252q14 23 43 23q27 0 51 -19.5t24 -48.5q0 -8 -2 -14t-6 -15z" />
<glyph unicode="&#x2264;" horiz-adv-x="905" d="M762 559q23 -10 34 -28.5t11 -41.5q0 -45 -36 -86t-81 -41q-18 0 -35 9l-528 270q-33 16 -44 46t-11 52q0 23 11 52.5t44 46.5l528 268q20 10 35 10q23 0 43.5 -12t36.5 -30.5t26.5 -41t10.5 -43.5q0 -23 -11.5 -41t-33.5 -28l-383 -181zM72 172q0 47 23.5 79t60.5 32 h567q33 0 58.5 -32t25.5 -79q0 -49 -25.5 -79t-58.5 -30h-567q-37 0 -60.5 30t-23.5 79z" />
<glyph unicode="&#x2265;" horiz-adv-x="905" d="M526 739l-383 181q-23 10 -34 28.5t-11 40.5q0 20 10.5 43t27 41.5t37 30.5t42.5 12q18 0 35 -10l528 -268q33 -16 44.5 -46t11.5 -53t-11.5 -52.5t-44.5 -45.5l-528 -270q-14 -8 -35 -9q-45 0 -81 41t-36 86q0 23 11.5 41.5t33.5 28.5zM834 172q0 -49 -24 -79t-60 -30 h-568q-33 0 -58.5 30t-25.5 79q0 47 26 79t58 32h568q37 0 60.5 -32t23.5 -79z" />
<glyph unicode="&#x25ca;" horiz-adv-x="1052" d="M932 948q33 -59 55.5 -107t22.5 -91q0 -45 -22.5 -92.5t-55.5 -106.5l-281 -502q-16 -31 -50 -47t-75 -16t-74.5 15t-52.5 48l-278 502q-33 59 -55.5 106.5t-22.5 92.5q0 43 22.5 91t55.5 107l278 502q16 31 51 47t76 16t75 -17t50 -46zM283 750l243 -455l244 455 l-244 469z" />
<glyph unicode="&#x25fc;" horiz-adv-x="983" d="M0 983h983v-983h-983v983z" />
<glyph unicode="&#xf6c3;" horiz-adv-x="503" d="M145 -389q-8 -4 -14 -6t-14 -2q-35 0 -58.5 32.5t-23.5 67.5q0 43 35 61l270 132q14 6 27 6q35 0 58.5 -33t23.5 -68q0 -20 -8.5 -36.5t-28.5 -26.5z" />
<glyph horiz-adv-x="1009" d="M444 985q111 0 192 -33.5t133 -89t76.5 -128t24.5 -148.5v-244q0 -39 6.5 -62.5t15.5 -36t21.5 -17.5t26.5 -7q35 -6 48 -28.5t13 -73.5q0 -80 -37.5 -107.5t-86.5 -27.5q-92 0 -157 45t-75 116q-57 -66 -139 -113.5t-187 -47.5q-55 0 -105 16t-87 49t-59.5 84t-22.5 123 q0 88 35 146.5t98.5 92t151.5 47t192 13.5h84v29q0 33 -8 66.5t-29.5 60t-59.5 44t-97 17.5q-49 0 -83 -10t-58.5 -21.5t-43 -21.5t-37.5 -10q-23 0 -39 13t-26 31.5t-16.5 40t-6.5 37.5q0 37 31 67t80 49.5t110.5 29.5t120.5 10zM606 418h-31q-53 0 -101 -4t-85 -17.5 t-58.5 -40t-21.5 -69.5q0 -55 31 -82t72 -27q35 0 69.5 16.5t62 44t45 63.5t17.5 73v43z" />
<glyph horiz-adv-x="1050" d="M985 401q0 -80 -33.5 -154.5t-94 -134t-142.5 -95t-178 -35.5q-88 0 -168 31.5t-141.5 86t-97.5 129t-36 160.5v1069q0 37 36 59.5t93 22.5t96 -22.5t39 -59.5v-629q33 59 99.5 107.5t163.5 48.5q76 0 142 -32.5t115.5 -90t78 -132.5t28.5 -161v-168zM721 569 q0 35 -14.5 68t-39 59.5t-57 42t-69.5 15.5q-33 0 -66 -12.5t-58.5 -37t-42 -58.5t-16.5 -77v-176q0 -78 52.5 -129t126.5 -51q43 0 77.5 17.5t58 44t36 60.5t12.5 66v168z" />
<glyph horiz-adv-x="276" d="M137 1518q57 0 98 -41t41 -97q0 -10 -3 -25.5t-15 -47t-34.5 -86t-59.5 -142.5q-10 -18 -24.5 -25t-30.5 -7q-29 0 -59 17t-30 52q0 14 9 29l47 108q-35 18 -55.5 51t-20.5 74q0 57 40 98.5t97 41.5z" />
<glyph horiz-adv-x="1064" d="M834 973q53 0 90 -22.5t37 -59.5v-909q0 -92 -31 -177.5t-95.5 -150t-165 -102t-241.5 -37.5q-59 0 -121.5 9t-114 28.5t-83 53.5t-31.5 83q0 51 28.5 87t65.5 36q20 0 45 -10.5t56.5 -24t73.5 -23.5t97 -10q82 0 132.5 25.5t77 65.5t34.5 86t8 87v152 q-31 -63 -104.5 -112.5t-165.5 -49.5q-72 0 -136.5 35t-113.5 93t-78.5 134t-29.5 158v151q0 86 28.5 161t77.5 132.5t116.5 90t145.5 32.5q98 0 169 -48t106 -108v62q0 37 35 59.5t88 22.5zM332 418q0 -37 15 -71t40 -59.5t57.5 -42t69.5 -16.5q39 0 73 17.5t58.5 42 t37.5 50.5t13 42v188q0 43 -15 77t-41 58.5t-57.5 37t-64.5 12.5q-39 0 -72.5 -15.5t-59.5 -42t-40 -59.5t-14 -68v-151z" />
<glyph horiz-adv-x="1644" d="M1155 985q80 0 151.5 -32.5t126 -89t86 -132.5t31.5 -162v-485q0 -35 -36.5 -59.5t-96.5 -24.5q-53 0 -92 24.5t-39 59.5v485q0 78 -50 131.5t-116 53.5q-33 0 -62.5 -15.5t-53 -40t-37 -58.5t-13.5 -71v-487q0 -35 -36.5 -58.5t-94.5 -23.5q-53 0 -93 23.5t-40 58.5v487 q0 37 -13 71t-37 58.5t-53.5 40t-62.5 15.5q-66 0 -116 -53.5t-50 -131.5v-485q0 -31 -38.5 -57.5t-92.5 -26.5q-55 0 -94 26.5t-39 57.5v485q0 86 32 162t86 132.5t126 89t151 32.5q96 0 181.5 -36t150.5 -107q66 72 151 107.5t183 35.5z" />
<glyph horiz-adv-x="1062" d="M530 985q90 0 170 -33.5t139.5 -91t94.5 -133.5t35 -158v-485q0 -35 -36 -59.5t-95 -24.5q-53 0 -93 24.5t-40 59.5v485q0 35 -13.5 68t-37 59.5t-55.5 42t-69 15.5t-68.5 -15.5t-55 -41t-37 -59.5t-13.5 -69v-485q0 -31 -40 -57.5t-93 -26.5t-92 26.5t-39 57.5v485 q0 82 35 158t94.5 133.5t139 91t169.5 33.5z" />
<glyph horiz-adv-x="839" d="M27 117q0 49 24.5 82.5t59.5 33.5h188v945l-66 -66q-20 -18 -47 -18q-39 0 -62.5 32.5t-23.5 73.5q0 29 12.5 53.5t37.5 40.5l241 187q25 20 58 20q41 0 78.5 -22.5t37.5 -63.5v-1182h185q31 0 57.5 -33.5t26.5 -82.5t-27 -83t-57 -34h-639q-35 0 -59.5 34t-24.5 83z" />
<glyph horiz-adv-x="1052" d="M426 -18q-72 0 -137.5 34.5t-114.5 92t-78.5 133t-29.5 159.5v166q0 80 32.5 156t92 134t141.5 93t180 35q88 0 169 -30.5t142.5 -86t98 -132.5t36.5 -171v-934q0 -33 -36.5 -58.5t-94.5 -25.5q-55 0 -94 26t-39 58v512q-31 -63 -103.5 -112t-164.5 -49zM510 213 q39 0 72.5 17.5t58.5 42t39 50t14 42.5v196q0 86 -54 139.5t-130 53.5q-43 0 -77 -17.5t-57.5 -44t-34.5 -59.5t-11 -66v-166q0 -35 15 -68.5t40 -60t57.5 -43t67.5 -16.5z" />
<glyph horiz-adv-x="755" d="M582 754q-47 0 -89 -23.5t-74 -65.5t-50.5 -99.5t-18.5 -127.5v-354q0 -31 -39 -57.5t-96 -26.5q-55 0 -92 26.5t-37 57.5v358q0 98 28.5 195.5t84 174.5t138.5 125t193 48h113q51 0 76.5 -33.5t25.5 -81.5q0 -47 -28.5 -81.5t-67.5 -34.5h-67z" />
<glyph horiz-adv-x="1081" d="M453 -18q-72 0 -137.5 34.5t-114.5 92t-78 133t-29 159.5v488q0 39 39 61.5t96 22.5q55 0 92 -22.5t37 -61.5v-488q0 -35 14.5 -68.5t38 -60t56.5 -43t70 -16.5t68.5 16.5t56 42t39 55t14.5 54.5v508q0 37 39 60.5t96 23.5q55 0 92 -23.5t37 -60.5v-805q0 -33 -37 -58.5 t-92 -25.5q-49 0 -84 25.5t-35 58.5v59q-31 -63 -105.5 -112t-172.5 -49z" />
</font>
</defs>
</svg>
